<?xml version="1.0" encoding="UTF-8" standalone="no"?>
<!DOCTYPE svg PUBLIC "-//W3C//DTD SVG 1.1//EN" "http://www.w3.org/Graphics/SVG/1.1/DTD/svg11.dtd">
<svg width="100%" height="100%" viewBox="0 0 1009 138" version="1.1" xmlns="http://www.w3.org/2000/svg" xmlns:xlink="http://www.w3.org/1999/xlink" xml:space="preserve" xmlns:serif="http://www.serif.com/" style="fill-rule:evenodd;clip-rule:evenodd;stroke-linejoin:round;stroke-miterlimit:2;">
    <g transform="matrix(1,0,0,1,-56.9019,-49.122)">
        <g id="Browser" transform="matrix(1,0,0,1,-466.487,-653.096)">
            <g transform="matrix(2.98402,0,0,0.572084,334.065,665.349)">
                <path d="M68.489,64.446L396.285,64.446C399.059,64.446 401.327,66.714 401.327,69.488L401.327,298.944C401.327,301.719 399.058,303.987 396.285,303.987L68.489,303.987C65.715,303.987 63.446,301.719 63.446,298.944L63.446,69.488C63.446,66.714 65.715,64.446 68.489,64.446Z" style="fill:white;"/>
            </g>
            <g transform="matrix(2.98402,0,0,4.16667,334.065,433.693)">
                <path d="M68.491,64.446L396.285,64.446C399.059,64.446 401.327,66.714 401.327,69.489L401.327,87.139L63.446,87.139L63.446,69.489C63.446,66.714 65.715,64.446 68.491,64.446Z" style="fill:rgb(228,228,228);"/>
            </g>
            <g transform="matrix(4.16667,0,0,4.16667,259.03,433.693)">
                <path d="M101.937,78.543C101.178,79.302 100.182,79.682 99.187,79.682C98.192,79.682 97.196,79.302 96.438,78.543C95.677,77.783 95.297,76.788 95.297,75.793C95.297,74.797 95.677,73.802 96.438,73.043C97.196,72.283 98.192,71.904 99.187,71.904C100.098,71.904 101.008,72.222 101.738,72.857L102.665,71.929L102.941,73.618L103.216,75.305L101.529,75.03L99.84,74.753L100.809,73.785C100.337,73.403 99.762,73.211 99.187,73.211C98.526,73.211 97.865,73.464 97.362,73.968C96.858,74.471 96.606,75.132 96.606,75.793C96.606,76.453 96.858,77.113 97.362,77.618C97.865,78.121 98.526,78.374 99.187,78.374C99.847,78.373 100.508,78.121 101.012,77.618L101.937,78.543Z" style="fill:rgb(128,128,128);"/>
            </g>
            <g transform="matrix(2.72946,0,0,4.16667,416.261,433.693)">
                <path d="M111.189,70.75L383.32,70.75C384.305,70.75 385.108,71.554 385.108,72.539L385.109,79.046C385.109,80.031 384.304,80.836 383.32,80.836L111.189,80.836C110.206,80.836 109.4,80.031 109.4,79.047L109.4,72.539C109.4,71.554 110.206,70.75 111.189,70.75Z" style="fill:white;"/>
            </g>
            <g transform="matrix(4.16667,0,0,4.16667,-140.747,433.693)">
                <path d="M379.303,73.162L380.144,74.903L382.059,75.165L380.663,76.503L381.006,78.407L379.303,77.492L377.597,78.407L377.941,76.503L376.544,75.165L378.461,74.903L379.303,73.162Z" style="fill:rgb(237,202,37);"/>
            </g>
            <g transform="matrix(4.16667,0,0,4.16667,259.03,433.693)">
                <path d="M81.402,75.162L87.599,75.162L85.235,72.967L86.093,72.046L90.127,75.793L86.093,79.54L85.235,78.618L87.599,76.423L81.402,76.423L81.402,75.162Z" style="fill:rgb(210,210,210);"/>
            </g>
            <g transform="matrix(4.16667,0,0,4.16667,-140.747,433.693)">
                <rect x="389.666" y="73.113" width="5.701" height="1.261" style="fill:rgb(128,128,128);"/>
            </g>
            <g transform="matrix(4.16667,0,0,4.16667,-140.747,433.693)">
                <rect x="389.666" y="75.162" width="5.701" height="1.261" style="fill:rgb(128,128,128);"/>
            </g>
            <g transform="matrix(4.16667,0,0,4.16667,-140.747,433.693)">
                <rect x="389.666" y="77.211" width="5.701" height="1.261" style="fill:rgb(128,128,128);"/>
            </g>
            <g transform="matrix(4.16667,0,0,4.16667,259.03,433.693)">
                <path d="M78.418,75.162L72.22,75.162L74.585,72.967L73.729,72.046L69.693,75.793L73.729,79.54L74.585,78.618L72.22,76.423L78.418,76.423L78.418,75.162Z" style="fill:rgb(128,128,128);"/>
            </g>
            <g transform="matrix(0.759131,0,0,0.759131,176.837,177.783)">
                <g transform="matrix(32.9324,0,0,32.9324,731.664,765.701)">
                    <path d="M0.736,-0.558C0.779,-0.558 0.817,-0.549 0.85,-0.532C0.883,-0.514 0.91,-0.487 0.929,-0.452C0.948,-0.417 0.958,-0.374 0.958,-0.323L0.958,-0L0.868,-0L0.868,-0.31C0.868,-0.365 0.855,-0.406 0.828,-0.436C0.801,-0.465 0.764,-0.479 0.718,-0.479C0.671,-0.479 0.633,-0.464 0.605,-0.434C0.577,-0.403 0.563,-0.359 0.563,-0.302L0.563,-0L0.473,-0L0.473,-0.31C0.473,-0.365 0.46,-0.406 0.433,-0.436C0.406,-0.465 0.369,-0.479 0.323,-0.479C0.276,-0.479 0.238,-0.464 0.21,-0.434C0.182,-0.403 0.168,-0.359 0.168,-0.302L0.168,-0L0.077,-0L0.077,-0.548L0.168,-0.548L0.168,-0.469C0.186,-0.498 0.21,-0.52 0.241,-0.535C0.271,-0.55 0.304,-0.558 0.341,-0.558C0.387,-0.558 0.428,-0.548 0.463,-0.527C0.498,-0.506 0.525,-0.476 0.542,-0.436C0.557,-0.475 0.583,-0.505 0.618,-0.526C0.653,-0.547 0.693,-0.558 0.736,-0.558Z" style="fill-rule:nonzero;"/>
                </g>
                <g transform="matrix(32.9324,0,0,32.9324,765.584,765.701)">
                    <path d="M0.549,-0.548L0.219,0.258L0.125,0.258L0.233,-0.006L0.012,-0.548L0.113,-0.548L0.285,-0.104L0.455,-0.548L0.549,-0.548Z" style="fill-rule:nonzero;"/>
                </g>
                <g transform="matrix(32.9324,0,0,32.9324,784.125,765.701)">
                    <path d="M0.106,0.006C0.089,0.006 0.074,-0 0.062,-0.012C0.05,-0.024 0.044,-0.039 0.044,-0.056C0.044,-0.073 0.05,-0.088 0.062,-0.1C0.074,-0.112 0.089,-0.118 0.106,-0.118C0.123,-0.118 0.137,-0.112 0.149,-0.1C0.16,-0.088 0.166,-0.073 0.166,-0.056C0.166,-0.039 0.16,-0.024 0.149,-0.012C0.137,-0 0.123,0.006 0.106,0.006Z" style="fill-rule:nonzero;"/>
                </g>
                <g transform="matrix(32.9324,0,0,32.9324,791.041,765.701)">
                    <path d="M0.043,-0.276C0.043,-0.332 0.054,-0.381 0.077,-0.424C0.1,-0.466 0.131,-0.499 0.171,-0.522C0.21,-0.545 0.254,-0.557 0.303,-0.557C0.351,-0.557 0.393,-0.547 0.428,-0.526C0.463,-0.505 0.49,-0.479 0.507,-0.448L0.507,-0.548L0.599,-0.548L0.599,-0L0.507,-0L0.507,-0.102C0.489,-0.07 0.462,-0.043 0.427,-0.023C0.391,-0.002 0.349,0.009 0.302,0.009C0.253,0.009 0.209,-0.003 0.17,-0.027C0.131,-0.051 0.1,-0.085 0.077,-0.128C0.054,-0.171 0.043,-0.221 0.043,-0.276ZM0.507,-0.275C0.507,-0.316 0.499,-0.352 0.482,-0.383C0.465,-0.414 0.443,-0.437 0.414,-0.454C0.386,-0.47 0.355,-0.478 0.321,-0.478C0.287,-0.478 0.256,-0.47 0.228,-0.454C0.2,-0.438 0.178,-0.415 0.161,-0.384C0.144,-0.353 0.136,-0.317 0.136,-0.276C0.136,-0.234 0.144,-0.198 0.161,-0.167C0.178,-0.136 0.2,-0.112 0.228,-0.096C0.256,-0.079 0.287,-0.071 0.321,-0.071C0.355,-0.071 0.386,-0.079 0.414,-0.096C0.443,-0.112 0.465,-0.136 0.482,-0.167C0.499,-0.198 0.507,-0.234 0.507,-0.275Z" style="fill-rule:nonzero;"/>
                </g>
                <g transform="matrix(32.9324,0,0,32.9324,813.303,765.701)">
                    <path d="M0.168,-0.447C0.186,-0.478 0.213,-0.504 0.249,-0.526C0.284,-0.547 0.326,-0.557 0.373,-0.557C0.422,-0.557 0.466,-0.545 0.505,-0.522C0.545,-0.499 0.576,-0.466 0.599,-0.424C0.622,-0.381 0.633,-0.332 0.633,-0.276C0.633,-0.221 0.622,-0.171 0.599,-0.128C0.576,-0.085 0.545,-0.051 0.505,-0.027C0.466,-0.003 0.422,0.009 0.373,0.009C0.326,0.009 0.285,-0.002 0.25,-0.023C0.214,-0.043 0.187,-0.07 0.168,-0.101L0.168,0.26L0.077,0.26L0.077,-0.548L0.168,-0.548L0.168,-0.447ZM0.54,-0.276C0.54,-0.317 0.532,-0.353 0.515,-0.384C0.498,-0.415 0.476,-0.438 0.448,-0.454C0.419,-0.47 0.388,-0.478 0.354,-0.478C0.321,-0.478 0.29,-0.47 0.262,-0.454C0.233,-0.437 0.211,-0.413 0.194,-0.383C0.177,-0.352 0.168,-0.316 0.168,-0.275C0.168,-0.234 0.177,-0.198 0.194,-0.167C0.211,-0.136 0.233,-0.112 0.262,-0.096C0.29,-0.079 0.321,-0.071 0.354,-0.071C0.388,-0.071 0.419,-0.079 0.448,-0.096C0.476,-0.112 0.498,-0.136 0.515,-0.167C0.532,-0.198 0.54,-0.234 0.54,-0.276Z" style="fill-rule:nonzero;"/>
                </g>
                <g transform="matrix(32.9324,0,0,32.9324,835.566,765.701)">
                    <path d="M0.168,-0.447C0.186,-0.478 0.213,-0.504 0.249,-0.526C0.284,-0.547 0.326,-0.557 0.373,-0.557C0.422,-0.557 0.466,-0.545 0.505,-0.522C0.545,-0.499 0.576,-0.466 0.599,-0.424C0.622,-0.381 0.633,-0.332 0.633,-0.276C0.633,-0.221 0.622,-0.171 0.599,-0.128C0.576,-0.085 0.545,-0.051 0.505,-0.027C0.466,-0.003 0.422,0.009 0.373,0.009C0.326,0.009 0.285,-0.002 0.25,-0.023C0.214,-0.043 0.187,-0.07 0.168,-0.101L0.168,0.26L0.077,0.26L0.077,-0.548L0.168,-0.548L0.168,-0.447ZM0.54,-0.276C0.54,-0.317 0.532,-0.353 0.515,-0.384C0.498,-0.415 0.476,-0.438 0.448,-0.454C0.419,-0.47 0.388,-0.478 0.354,-0.478C0.321,-0.478 0.29,-0.47 0.262,-0.454C0.233,-0.437 0.211,-0.413 0.194,-0.383C0.177,-0.352 0.168,-0.316 0.168,-0.275C0.168,-0.234 0.177,-0.198 0.194,-0.167C0.211,-0.136 0.233,-0.112 0.262,-0.096C0.29,-0.079 0.321,-0.071 0.354,-0.071C0.388,-0.071 0.419,-0.079 0.448,-0.096C0.476,-0.112 0.498,-0.136 0.515,-0.167C0.532,-0.198 0.54,-0.234 0.54,-0.276Z" style="fill-rule:nonzero;"/>
                </g>
                <g transform="matrix(32.9324,0,0,32.9324,857.828,765.701)">
                    <path d="M0.417,-0.942L0.143,0.17L0.053,0.17L0.326,-0.942L0.417,-0.942Z" style="fill-rule:nonzero;"/>
                </g>
                <g transform="matrix(32.9324,0,0,32.9324,873.504,765.701)">
                    <path d="M0.043,-0.275C0.043,-0.332 0.054,-0.381 0.077,-0.424C0.1,-0.466 0.131,-0.499 0.172,-0.522C0.212,-0.545 0.258,-0.557 0.31,-0.557C0.377,-0.557 0.433,-0.541 0.476,-0.508C0.52,-0.475 0.549,-0.43 0.563,-0.372L0.465,-0.372C0.456,-0.405 0.438,-0.432 0.41,-0.451C0.384,-0.47 0.35,-0.48 0.31,-0.48C0.258,-0.48 0.216,-0.462 0.184,-0.427C0.152,-0.391 0.136,-0.34 0.136,-0.275C0.136,-0.209 0.152,-0.158 0.184,-0.122C0.216,-0.086 0.258,-0.068 0.31,-0.068C0.35,-0.068 0.383,-0.077 0.41,-0.096C0.437,-0.115 0.455,-0.141 0.465,-0.176L0.563,-0.176C0.548,-0.12 0.519,-0.075 0.475,-0.042C0.431,-0.008 0.376,0.009 0.31,0.009C0.258,0.009 0.212,-0.003 0.172,-0.026C0.131,-0.049 0.1,-0.082 0.077,-0.125C0.054,-0.168 0.043,-0.218 0.043,-0.275Z" style="fill-rule:nonzero;"/>
                </g>
                <g transform="matrix(32.9324,0,0,32.9324,893.494,765.701)">
                    <path d="M0.563,-0.548L0.563,-0L0.472,-0L0.472,-0.081C0.455,-0.053 0.431,-0.031 0.4,-0.016C0.369,0 0.334,0.008 0.297,0.008C0.254,0.008 0.216,-0.001 0.182,-0.019C0.148,-0.036 0.121,-0.063 0.102,-0.098C0.082,-0.133 0.072,-0.176 0.072,-0.227L0.072,-0.548L0.162,-0.548L0.162,-0.239C0.162,-0.185 0.176,-0.143 0.203,-0.115C0.23,-0.086 0.268,-0.071 0.315,-0.071C0.364,-0.071 0.402,-0.086 0.43,-0.116C0.458,-0.146 0.472,-0.19 0.472,-0.247L0.472,-0.548L0.563,-0.548Z" style="fill-rule:nonzero;"/>
                </g>
                <g transform="matrix(32.9324,0,0,32.9324,914.57,765.701)">
                    <path d="M0.271,0.009C0.229,0.009 0.191,0.002 0.158,-0.013C0.125,-0.027 0.098,-0.047 0.079,-0.073C0.06,-0.098 0.049,-0.128 0.047,-0.161L0.141,-0.161C0.144,-0.134 0.157,-0.111 0.18,-0.094C0.203,-0.077 0.233,-0.068 0.27,-0.068C0.305,-0.068 0.332,-0.076 0.352,-0.091C0.372,-0.106 0.382,-0.126 0.382,-0.149C0.382,-0.173 0.371,-0.191 0.35,-0.203C0.329,-0.214 0.296,-0.226 0.251,-0.237C0.21,-0.248 0.177,-0.259 0.152,-0.27C0.126,-0.281 0.104,-0.297 0.086,-0.319C0.067,-0.34 0.058,-0.369 0.058,-0.404C0.058,-0.432 0.066,-0.458 0.083,-0.481C0.1,-0.504 0.123,-0.523 0.154,-0.537C0.185,-0.55 0.22,-0.557 0.259,-0.557C0.32,-0.557 0.369,-0.542 0.406,-0.511C0.443,-0.48 0.463,-0.438 0.466,-0.385L0.375,-0.385C0.373,-0.414 0.362,-0.437 0.341,-0.454C0.32,-0.471 0.291,-0.48 0.256,-0.48C0.223,-0.48 0.197,-0.473 0.178,-0.459C0.159,-0.445 0.149,-0.427 0.149,-0.404C0.149,-0.386 0.155,-0.371 0.167,-0.36C0.178,-0.348 0.193,-0.339 0.211,-0.332C0.228,-0.325 0.253,-0.317 0.284,-0.308C0.323,-0.297 0.355,-0.287 0.38,-0.277C0.405,-0.266 0.426,-0.251 0.444,-0.23C0.461,-0.209 0.47,-0.182 0.471,-0.149C0.471,-0.119 0.463,-0.092 0.446,-0.068C0.429,-0.044 0.406,-0.025 0.376,-0.012C0.345,0.002 0.31,0.009 0.271,0.009Z" style="fill-rule:nonzero;"/>
                </g>
                <g transform="matrix(32.9324,0,0,32.9324,931.761,765.701)">
                    <path d="M0.188,-0.473L0.188,-0.15C0.188,-0.123 0.194,-0.105 0.205,-0.094C0.216,-0.083 0.236,-0.077 0.264,-0.077L0.331,-0.077L0.331,-0L0.249,-0C0.198,-0 0.16,-0.012 0.135,-0.035C0.11,-0.058 0.097,-0.097 0.097,-0.15L0.097,-0.473L0.026,-0.473L0.026,-0.548L0.097,-0.548L0.097,-0.686L0.188,-0.686L0.188,-0.548L0.331,-0.548L0.331,-0.473L0.188,-0.473Z" style="fill-rule:nonzero;"/>
                </g>
                <g transform="matrix(32.9324,0,0,32.9324,943.748,765.701)">
                    <path d="M0.316,0.009C0.265,0.009 0.218,-0.003 0.177,-0.026C0.135,-0.049 0.102,-0.083 0.079,-0.126C0.055,-0.169 0.043,-0.218 0.043,-0.275C0.043,-0.331 0.055,-0.381 0.08,-0.424C0.104,-0.467 0.137,-0.5 0.179,-0.523C0.221,-0.546 0.268,-0.557 0.32,-0.557C0.372,-0.557 0.419,-0.546 0.461,-0.523C0.503,-0.5 0.536,-0.467 0.561,-0.424C0.585,-0.381 0.597,-0.332 0.597,-0.275C0.597,-0.218 0.585,-0.169 0.56,-0.126C0.535,-0.083 0.501,-0.049 0.458,-0.026C0.415,-0.003 0.368,0.009 0.316,0.009ZM0.316,-0.071C0.349,-0.071 0.379,-0.079 0.408,-0.094C0.437,-0.109 0.46,-0.132 0.477,-0.163C0.495,-0.194 0.504,-0.231 0.504,-0.275C0.504,-0.319 0.495,-0.356 0.478,-0.387C0.461,-0.418 0.438,-0.441 0.41,-0.456C0.382,-0.47 0.352,-0.478 0.319,-0.478C0.286,-0.478 0.255,-0.47 0.228,-0.456C0.2,-0.441 0.178,-0.418 0.161,-0.387C0.144,-0.356 0.136,-0.319 0.136,-0.275C0.136,-0.23 0.144,-0.193 0.161,-0.162C0.177,-0.131 0.199,-0.109 0.226,-0.094C0.253,-0.079 0.283,-0.071 0.316,-0.071Z" style="fill-rule:nonzero;"/>
                </g>
                <g transform="matrix(32.9324,0,0,32.9324,964.825,765.701)">
                    <path d="M0.736,-0.558C0.779,-0.558 0.817,-0.549 0.85,-0.532C0.883,-0.514 0.91,-0.487 0.929,-0.452C0.948,-0.417 0.958,-0.374 0.958,-0.323L0.958,-0L0.868,-0L0.868,-0.31C0.868,-0.365 0.855,-0.406 0.828,-0.436C0.801,-0.465 0.764,-0.479 0.718,-0.479C0.671,-0.479 0.633,-0.464 0.605,-0.434C0.577,-0.403 0.563,-0.359 0.563,-0.302L0.563,-0L0.473,-0L0.473,-0.31C0.473,-0.365 0.46,-0.406 0.433,-0.436C0.406,-0.465 0.369,-0.479 0.323,-0.479C0.276,-0.479 0.238,-0.464 0.21,-0.434C0.182,-0.403 0.168,-0.359 0.168,-0.302L0.168,-0L0.077,-0L0.077,-0.548L0.168,-0.548L0.168,-0.469C0.186,-0.498 0.21,-0.52 0.241,-0.535C0.271,-0.55 0.304,-0.558 0.341,-0.558C0.387,-0.558 0.428,-0.548 0.463,-0.527C0.498,-0.506 0.525,-0.476 0.542,-0.436C0.557,-0.475 0.583,-0.505 0.618,-0.526C0.653,-0.547 0.693,-0.558 0.736,-0.558Z" style="fill-rule:nonzero;"/>
                </g>
                <g transform="matrix(32.9324,0,0,32.9324,998.745,765.701)">
                    <path d="M0.577,-0.295C0.577,-0.278 0.576,-0.259 0.574,-0.24L0.136,-0.24C0.139,-0.186 0.158,-0.144 0.192,-0.114C0.225,-0.083 0.266,-0.068 0.314,-0.068C0.353,-0.068 0.386,-0.077 0.412,-0.096C0.439,-0.114 0.457,-0.138 0.468,-0.169L0.566,-0.169C0.551,-0.116 0.522,-0.074 0.478,-0.041C0.434,-0.008 0.379,0.009 0.314,0.009C0.262,0.009 0.216,-0.003 0.174,-0.026C0.134,-0.049 0.101,-0.083 0.078,-0.126C0.055,-0.169 0.043,-0.218 0.043,-0.275C0.043,-0.332 0.054,-0.381 0.077,-0.424C0.1,-0.467 0.132,-0.5 0.172,-0.523C0.214,-0.546 0.261,-0.557 0.314,-0.557C0.366,-0.557 0.412,-0.546 0.452,-0.523C0.492,-0.5 0.523,-0.469 0.545,-0.43C0.566,-0.39 0.577,-0.345 0.577,-0.295ZM0.483,-0.314C0.483,-0.349 0.475,-0.379 0.46,-0.404C0.445,-0.429 0.424,-0.448 0.398,-0.461C0.371,-0.473 0.342,-0.48 0.31,-0.48C0.264,-0.48 0.225,-0.465 0.193,-0.436C0.16,-0.407 0.142,-0.366 0.137,-0.314L0.483,-0.314Z" style="fill-rule:nonzero;"/>
                </g>
                <g transform="matrix(32.9324,0,0,32.9324,1019.16,765.701)">
                    <path d="M0.168,-0.459C0.184,-0.49 0.207,-0.515 0.236,-0.532C0.266,-0.549 0.302,-0.558 0.345,-0.558L0.345,-0.464L0.321,-0.464C0.219,-0.464 0.168,-0.409 0.168,-0.298L0.168,-0L0.077,-0L0.077,-0.548L0.168,-0.548L0.168,-0.459Z" style="fill-rule:nonzero;"/>
                </g>
                <g transform="matrix(32.9324,0,0,32.9324,1031.45,765.701)">
                    <path d="M0.271,0.009C0.229,0.009 0.191,0.002 0.158,-0.013C0.125,-0.027 0.098,-0.047 0.079,-0.073C0.06,-0.098 0.049,-0.128 0.047,-0.161L0.141,-0.161C0.144,-0.134 0.157,-0.111 0.18,-0.094C0.203,-0.077 0.233,-0.068 0.27,-0.068C0.305,-0.068 0.332,-0.076 0.352,-0.091C0.372,-0.106 0.382,-0.126 0.382,-0.149C0.382,-0.173 0.371,-0.191 0.35,-0.203C0.329,-0.214 0.296,-0.226 0.251,-0.237C0.21,-0.248 0.177,-0.259 0.152,-0.27C0.126,-0.281 0.104,-0.297 0.086,-0.319C0.067,-0.34 0.058,-0.369 0.058,-0.404C0.058,-0.432 0.066,-0.458 0.083,-0.481C0.1,-0.504 0.123,-0.523 0.154,-0.537C0.185,-0.55 0.22,-0.557 0.259,-0.557C0.32,-0.557 0.369,-0.542 0.406,-0.511C0.443,-0.48 0.463,-0.438 0.466,-0.385L0.375,-0.385C0.373,-0.414 0.362,-0.437 0.341,-0.454C0.32,-0.471 0.291,-0.48 0.256,-0.48C0.223,-0.48 0.197,-0.473 0.178,-0.459C0.159,-0.445 0.149,-0.427 0.149,-0.404C0.149,-0.386 0.155,-0.371 0.167,-0.36C0.178,-0.348 0.193,-0.339 0.211,-0.332C0.228,-0.325 0.253,-0.317 0.284,-0.308C0.323,-0.297 0.355,-0.287 0.38,-0.277C0.405,-0.266 0.426,-0.251 0.444,-0.23C0.461,-0.209 0.47,-0.182 0.471,-0.149C0.471,-0.119 0.463,-0.092 0.446,-0.068C0.429,-0.044 0.406,-0.025 0.376,-0.012C0.345,0.002 0.31,0.009 0.271,0.009Z" style="fill-rule:nonzero;"/>
                </g>
                <g transform="matrix(32.9324,0,0,32.9324,1048.64,765.701)">
                    <path d="M0.255,-0.706C0.321,-0.706 0.374,-0.687 0.415,-0.65C0.456,-0.613 0.476,-0.563 0.476,-0.5C0.476,-0.43 0.454,-0.378 0.411,-0.344C0.368,-0.311 0.309,-0.294 0.235,-0.294L0.232,-0.199L0.153,-0.199L0.149,-0.357L0.178,-0.357C0.244,-0.357 0.296,-0.367 0.333,-0.387C0.37,-0.407 0.389,-0.445 0.389,-0.5C0.389,-0.54 0.377,-0.572 0.353,-0.595C0.329,-0.618 0.297,-0.63 0.256,-0.63C0.215,-0.63 0.182,-0.619 0.159,-0.597C0.135,-0.574 0.123,-0.544 0.123,-0.505L0.037,-0.505C0.037,-0.545 0.046,-0.58 0.064,-0.611C0.082,-0.641 0.108,-0.664 0.141,-0.681C0.173,-0.698 0.212,-0.706 0.255,-0.706ZM0.192,0.006C0.175,0.006 0.16,-0 0.148,-0.012C0.136,-0.024 0.13,-0.039 0.13,-0.056C0.13,-0.073 0.136,-0.088 0.148,-0.1C0.16,-0.112 0.175,-0.118 0.192,-0.118C0.209,-0.118 0.223,-0.112 0.234,-0.1C0.246,-0.088 0.252,-0.073 0.252,-0.056C0.252,-0.039 0.246,-0.024 0.234,-0.012C0.223,-0 0.209,0.006 0.192,0.006Z" style="fill-rule:nonzero;"/>
                </g>
                <g transform="matrix(32.9324,0,0,32.9324,1065.89,765.701)">
                    <path d="M0.344,-0.558C0.411,-0.558 0.465,-0.538 0.506,-0.498C0.547,-0.457 0.568,-0.399 0.568,-0.323L0.568,-0L0.478,-0L0.478,-0.31C0.478,-0.365 0.464,-0.406 0.437,-0.436C0.41,-0.465 0.372,-0.479 0.325,-0.479C0.277,-0.479 0.239,-0.464 0.211,-0.434C0.182,-0.404 0.168,-0.36 0.168,-0.303L0.168,-0L0.077,-0L0.077,-0.548L0.168,-0.548L0.168,-0.47C0.186,-0.498 0.211,-0.52 0.242,-0.535C0.273,-0.55 0.307,-0.558 0.344,-0.558Z" style="fill-rule:nonzero;"/>
                </g>
                <g transform="matrix(32.9324,0,0,32.9324,1086.97,765.701)">
                    <path d="M0.043,-0.276C0.043,-0.332 0.054,-0.381 0.077,-0.424C0.1,-0.466 0.131,-0.499 0.171,-0.522C0.21,-0.545 0.254,-0.557 0.303,-0.557C0.351,-0.557 0.393,-0.547 0.428,-0.526C0.463,-0.505 0.49,-0.479 0.507,-0.448L0.507,-0.548L0.599,-0.548L0.599,-0L0.507,-0L0.507,-0.102C0.489,-0.07 0.462,-0.043 0.427,-0.023C0.391,-0.002 0.349,0.009 0.302,0.009C0.253,0.009 0.209,-0.003 0.17,-0.027C0.131,-0.051 0.1,-0.085 0.077,-0.128C0.054,-0.171 0.043,-0.221 0.043,-0.276ZM0.507,-0.275C0.507,-0.316 0.499,-0.352 0.482,-0.383C0.465,-0.414 0.443,-0.437 0.414,-0.454C0.386,-0.47 0.355,-0.478 0.321,-0.478C0.287,-0.478 0.256,-0.47 0.228,-0.454C0.2,-0.438 0.178,-0.415 0.161,-0.384C0.144,-0.353 0.136,-0.317 0.136,-0.276C0.136,-0.234 0.144,-0.198 0.161,-0.167C0.178,-0.136 0.2,-0.112 0.228,-0.096C0.256,-0.079 0.287,-0.071 0.321,-0.071C0.355,-0.071 0.386,-0.079 0.414,-0.096C0.443,-0.112 0.465,-0.136 0.482,-0.167C0.499,-0.198 0.507,-0.234 0.507,-0.275Z" style="fill-rule:nonzero;"/>
                </g>
                <g transform="matrix(32.9324,0,0,32.9324,1109.23,765.701)">
                    <path d="M0.736,-0.558C0.779,-0.558 0.817,-0.549 0.85,-0.532C0.883,-0.514 0.91,-0.487 0.929,-0.452C0.948,-0.417 0.958,-0.374 0.958,-0.323L0.958,-0L0.868,-0L0.868,-0.31C0.868,-0.365 0.855,-0.406 0.828,-0.436C0.801,-0.465 0.764,-0.479 0.718,-0.479C0.671,-0.479 0.633,-0.464 0.605,-0.434C0.577,-0.403 0.563,-0.359 0.563,-0.302L0.563,-0L0.473,-0L0.473,-0.31C0.473,-0.365 0.46,-0.406 0.433,-0.436C0.406,-0.465 0.369,-0.479 0.323,-0.479C0.276,-0.479 0.238,-0.464 0.21,-0.434C0.182,-0.403 0.168,-0.359 0.168,-0.302L0.168,-0L0.077,-0L0.077,-0.548L0.168,-0.548L0.168,-0.469C0.186,-0.498 0.21,-0.52 0.241,-0.535C0.271,-0.55 0.304,-0.558 0.341,-0.558C0.387,-0.558 0.428,-0.548 0.463,-0.527C0.498,-0.506 0.525,-0.476 0.542,-0.436C0.557,-0.475 0.583,-0.505 0.618,-0.526C0.653,-0.547 0.693,-0.558 0.736,-0.558Z" style="fill-rule:nonzero;"/>
                </g>
                <g transform="matrix(32.9324,0,0,32.9324,1143.15,765.701)">
                    <path d="M0.577,-0.295C0.577,-0.278 0.576,-0.259 0.574,-0.24L0.136,-0.24C0.139,-0.186 0.158,-0.144 0.192,-0.114C0.225,-0.083 0.266,-0.068 0.314,-0.068C0.353,-0.068 0.386,-0.077 0.412,-0.096C0.439,-0.114 0.457,-0.138 0.468,-0.169L0.566,-0.169C0.551,-0.116 0.522,-0.074 0.478,-0.041C0.434,-0.008 0.379,0.009 0.314,0.009C0.262,0.009 0.216,-0.003 0.174,-0.026C0.134,-0.049 0.101,-0.083 0.078,-0.126C0.055,-0.169 0.043,-0.218 0.043,-0.275C0.043,-0.332 0.054,-0.381 0.077,-0.424C0.1,-0.467 0.132,-0.5 0.172,-0.523C0.214,-0.546 0.261,-0.557 0.314,-0.557C0.366,-0.557 0.412,-0.546 0.452,-0.523C0.492,-0.5 0.523,-0.469 0.545,-0.43C0.566,-0.39 0.577,-0.345 0.577,-0.295ZM0.483,-0.314C0.483,-0.349 0.475,-0.379 0.46,-0.404C0.445,-0.429 0.424,-0.448 0.398,-0.461C0.371,-0.473 0.342,-0.48 0.31,-0.48C0.264,-0.48 0.225,-0.465 0.193,-0.436C0.16,-0.407 0.142,-0.366 0.137,-0.314L0.483,-0.314Z" style="fill-rule:nonzero;"/>
                </g>
                <g transform="matrix(32.9324,0,0,32.9324,1163.57,765.701)">
                    <path d="M0.621,-0.512L0.621,-0.435L0.101,-0.435L0.101,-0.512L0.621,-0.512ZM0.621,-0.297L0.621,-0.22L0.101,-0.22L0.101,-0.297L0.621,-0.297Z" style="fill-rule:nonzero;"/>
                </g>
                <g transform="matrix(32.9324,0,0,32.9324,1187.38,765.701)">
                    <path d="M0.428,-0.697L0.428,-0.182C0.428,-0.125 0.41,-0.079 0.375,-0.045C0.34,-0.01 0.293,0.007 0.235,0.007C0.176,0.007 0.129,-0.011 0.094,-0.046C0.059,-0.081 0.041,-0.128 0.041,-0.189L0.132,-0.189C0.133,-0.155 0.141,-0.127 0.159,-0.106C0.175,-0.085 0.201,-0.074 0.235,-0.074C0.269,-0.074 0.294,-0.084 0.311,-0.105C0.328,-0.125 0.336,-0.151 0.336,-0.182L0.336,-0.697L0.428,-0.697Z" style="fill-rule:nonzero;"/>
                </g>
                <g transform="matrix(32.9324,0,0,32.9324,1204.84,765.701)">
                    <path d="M0.316,0.009C0.265,0.009 0.218,-0.003 0.177,-0.026C0.135,-0.049 0.102,-0.083 0.079,-0.126C0.055,-0.169 0.043,-0.218 0.043,-0.275C0.043,-0.331 0.055,-0.381 0.08,-0.424C0.104,-0.467 0.137,-0.5 0.179,-0.523C0.221,-0.546 0.268,-0.557 0.32,-0.557C0.372,-0.557 0.419,-0.546 0.461,-0.523C0.503,-0.5 0.536,-0.467 0.561,-0.424C0.585,-0.381 0.597,-0.332 0.597,-0.275C0.597,-0.218 0.585,-0.169 0.56,-0.126C0.535,-0.083 0.501,-0.049 0.458,-0.026C0.415,-0.003 0.368,0.009 0.316,0.009ZM0.316,-0.071C0.349,-0.071 0.379,-0.079 0.408,-0.094C0.437,-0.109 0.46,-0.132 0.477,-0.163C0.495,-0.194 0.504,-0.231 0.504,-0.275C0.504,-0.319 0.495,-0.356 0.478,-0.387C0.461,-0.418 0.438,-0.441 0.41,-0.456C0.382,-0.47 0.352,-0.478 0.319,-0.478C0.286,-0.478 0.255,-0.47 0.228,-0.456C0.2,-0.441 0.178,-0.418 0.161,-0.387C0.144,-0.356 0.136,-0.319 0.136,-0.275C0.136,-0.23 0.144,-0.193 0.161,-0.162C0.177,-0.131 0.199,-0.109 0.226,-0.094C0.253,-0.079 0.283,-0.071 0.316,-0.071Z" style="fill-rule:nonzero;"/>
                </g>
                <g transform="matrix(32.9324,0,0,32.9324,1225.91,765.701)">
                    <path d="M0.577,-0.295C0.577,-0.278 0.576,-0.259 0.574,-0.24L0.136,-0.24C0.139,-0.186 0.158,-0.144 0.192,-0.114C0.225,-0.083 0.266,-0.068 0.314,-0.068C0.353,-0.068 0.386,-0.077 0.412,-0.096C0.439,-0.114 0.457,-0.138 0.468,-0.169L0.566,-0.169C0.551,-0.116 0.522,-0.074 0.478,-0.041C0.434,-0.008 0.379,0.009 0.314,0.009C0.262,0.009 0.216,-0.003 0.174,-0.026C0.134,-0.049 0.101,-0.083 0.078,-0.126C0.055,-0.169 0.043,-0.218 0.043,-0.275C0.043,-0.332 0.054,-0.381 0.077,-0.424C0.1,-0.467 0.132,-0.5 0.172,-0.523C0.214,-0.546 0.261,-0.557 0.314,-0.557C0.366,-0.557 0.412,-0.546 0.452,-0.523C0.492,-0.5 0.523,-0.469 0.545,-0.43C0.566,-0.39 0.577,-0.345 0.577,-0.295ZM0.483,-0.314C0.483,-0.349 0.475,-0.379 0.46,-0.404C0.445,-0.429 0.424,-0.448 0.398,-0.461C0.371,-0.473 0.342,-0.48 0.31,-0.48C0.264,-0.48 0.225,-0.465 0.193,-0.436C0.16,-0.407 0.142,-0.366 0.137,-0.314L0.483,-0.314Z" style="fill-rule:nonzero;"/>
                </g>
                <g transform="matrix(32.9324,0,0,32.9324,1246.33,765.701)">
                    <path d="M0.612,-0L0.521,-0.092C0.487,-0.057 0.451,-0.031 0.412,-0.014C0.373,0.003 0.33,0.012 0.281,0.012C0.233,0.012 0.191,0.003 0.154,-0.014C0.117,-0.031 0.088,-0.056 0.068,-0.088C0.047,-0.12 0.037,-0.157 0.037,-0.2C0.037,-0.249 0.051,-0.292 0.079,-0.329C0.106,-0.366 0.147,-0.395 0.201,-0.416C0.18,-0.441 0.164,-0.465 0.155,-0.486C0.146,-0.507 0.141,-0.531 0.141,-0.556C0.141,-0.585 0.149,-0.612 0.164,-0.635C0.179,-0.659 0.2,-0.678 0.228,-0.691C0.256,-0.704 0.288,-0.711 0.325,-0.711C0.361,-0.711 0.392,-0.704 0.419,-0.69C0.446,-0.676 0.466,-0.657 0.479,-0.631C0.492,-0.607 0.498,-0.579 0.497,-0.548L0.406,-0.548C0.407,-0.575 0.399,-0.597 0.383,-0.613C0.367,-0.628 0.346,-0.636 0.321,-0.636C0.294,-0.636 0.273,-0.628 0.257,-0.614C0.24,-0.599 0.232,-0.579 0.232,-0.556C0.232,-0.536 0.237,-0.517 0.249,-0.498C0.26,-0.479 0.278,-0.456 0.304,-0.429L0.512,-0.22L0.53,-0.248L0.598,-0.362L0.696,-0.362L0.614,-0.22C0.603,-0.2 0.589,-0.179 0.574,-0.157L0.731,-0L0.612,-0ZM0.281,-0.066C0.317,-0.066 0.349,-0.073 0.379,-0.087C0.407,-0.101 0.435,-0.123 0.461,-0.152L0.256,-0.358C0.171,-0.325 0.128,-0.274 0.128,-0.203C0.128,-0.164 0.142,-0.131 0.171,-0.105C0.199,-0.079 0.236,-0.066 0.281,-0.066Z" style="fill-rule:nonzero;"/>
                </g>
                <g transform="matrix(32.9324,0,0,32.9324,1270.67,765.701)">
                    <path d="M0.316,0.009C0.265,0.009 0.218,-0.003 0.177,-0.026C0.135,-0.049 0.102,-0.083 0.079,-0.126C0.055,-0.169 0.043,-0.218 0.043,-0.275C0.043,-0.331 0.055,-0.381 0.08,-0.424C0.104,-0.467 0.137,-0.5 0.179,-0.523C0.221,-0.546 0.268,-0.557 0.32,-0.557C0.372,-0.557 0.419,-0.546 0.461,-0.523C0.503,-0.5 0.536,-0.467 0.561,-0.424C0.585,-0.381 0.597,-0.332 0.597,-0.275C0.597,-0.218 0.585,-0.169 0.56,-0.126C0.535,-0.083 0.501,-0.049 0.458,-0.026C0.415,-0.003 0.368,0.009 0.316,0.009ZM0.316,-0.071C0.349,-0.071 0.379,-0.079 0.408,-0.094C0.437,-0.109 0.46,-0.132 0.477,-0.163C0.495,-0.194 0.504,-0.231 0.504,-0.275C0.504,-0.319 0.495,-0.356 0.478,-0.387C0.461,-0.418 0.438,-0.441 0.41,-0.456C0.382,-0.47 0.352,-0.478 0.319,-0.478C0.286,-0.478 0.255,-0.47 0.228,-0.456C0.2,-0.441 0.178,-0.418 0.161,-0.387C0.144,-0.356 0.136,-0.319 0.136,-0.275C0.136,-0.23 0.144,-0.193 0.161,-0.162C0.177,-0.131 0.199,-0.109 0.226,-0.094C0.253,-0.079 0.283,-0.071 0.316,-0.071Z" style="fill-rule:nonzero;"/>
                </g>
                <g transform="matrix(32.9324,0,0,32.9324,1291.74,765.701)">
                    <path d="M0.168,-0.459C0.184,-0.49 0.207,-0.515 0.236,-0.532C0.266,-0.549 0.302,-0.558 0.345,-0.558L0.345,-0.464L0.321,-0.464C0.219,-0.464 0.168,-0.409 0.168,-0.298L0.168,-0L0.077,-0L0.077,-0.548L0.168,-0.548L0.168,-0.459Z" style="fill-rule:nonzero;"/>
                </g>
                <g transform="matrix(32.9324,0,0,32.9324,1304.03,765.701)">
                    <path d="M0.043,-0.276C0.043,-0.332 0.054,-0.381 0.077,-0.424C0.1,-0.466 0.131,-0.499 0.171,-0.522C0.21,-0.545 0.255,-0.557 0.304,-0.557C0.347,-0.557 0.386,-0.547 0.423,-0.528C0.46,-0.508 0.488,-0.482 0.507,-0.45L0.507,-0.74L0.599,-0.74L0.599,-0L0.507,-0L0.507,-0.103C0.489,-0.07 0.462,-0.043 0.427,-0.023C0.392,-0.002 0.35,0.009 0.303,0.009C0.254,0.009 0.21,-0.003 0.171,-0.027C0.131,-0.051 0.1,-0.085 0.077,-0.128C0.054,-0.171 0.043,-0.221 0.043,-0.276ZM0.507,-0.275C0.507,-0.316 0.499,-0.352 0.482,-0.383C0.465,-0.414 0.443,-0.437 0.414,-0.454C0.386,-0.47 0.355,-0.478 0.321,-0.478C0.287,-0.478 0.256,-0.47 0.228,-0.454C0.2,-0.438 0.178,-0.415 0.161,-0.384C0.144,-0.353 0.136,-0.317 0.136,-0.276C0.136,-0.234 0.144,-0.198 0.161,-0.167C0.178,-0.136 0.2,-0.112 0.228,-0.096C0.256,-0.079 0.287,-0.071 0.321,-0.071C0.355,-0.071 0.386,-0.079 0.414,-0.096C0.443,-0.112 0.465,-0.136 0.482,-0.167C0.499,-0.198 0.507,-0.234 0.507,-0.275Z" style="fill-rule:nonzero;"/>
                </g>
                <g transform="matrix(32.9324,0,0,32.9324,1326.29,765.701)">
                    <path d="M0.577,-0.295C0.577,-0.278 0.576,-0.259 0.574,-0.24L0.136,-0.24C0.139,-0.186 0.158,-0.144 0.192,-0.114C0.225,-0.083 0.266,-0.068 0.314,-0.068C0.353,-0.068 0.386,-0.077 0.412,-0.096C0.439,-0.114 0.457,-0.138 0.468,-0.169L0.566,-0.169C0.551,-0.116 0.522,-0.074 0.478,-0.041C0.434,-0.008 0.379,0.009 0.314,0.009C0.262,0.009 0.216,-0.003 0.174,-0.026C0.134,-0.049 0.101,-0.083 0.078,-0.126C0.055,-0.169 0.043,-0.218 0.043,-0.275C0.043,-0.332 0.054,-0.381 0.077,-0.424C0.1,-0.467 0.132,-0.5 0.172,-0.523C0.214,-0.546 0.261,-0.557 0.314,-0.557C0.366,-0.557 0.412,-0.546 0.452,-0.523C0.492,-0.5 0.523,-0.469 0.545,-0.43C0.566,-0.39 0.577,-0.345 0.577,-0.295ZM0.483,-0.314C0.483,-0.349 0.475,-0.379 0.46,-0.404C0.445,-0.429 0.424,-0.448 0.398,-0.461C0.371,-0.473 0.342,-0.48 0.31,-0.48C0.264,-0.48 0.225,-0.465 0.193,-0.436C0.16,-0.407 0.142,-0.366 0.137,-0.314L0.483,-0.314Z" style="fill-rule:nonzero;"/>
                </g>
                <g transform="matrix(32.9324,0,0,32.9324,1346.71,765.701)">
                    <path d="M0.168,-0.459C0.184,-0.49 0.207,-0.515 0.236,-0.532C0.266,-0.549 0.302,-0.558 0.345,-0.558L0.345,-0.464L0.321,-0.464C0.219,-0.464 0.168,-0.409 0.168,-0.298L0.168,-0L0.077,-0L0.077,-0.548L0.168,-0.548L0.168,-0.459Z" style="fill-rule:nonzero;"/>
                </g>
                <g transform="matrix(32.9324,0,0,32.9324,1358.99,765.701)">
                    <path d="M0.168,-0.446C0.187,-0.479 0.214,-0.505 0.25,-0.526C0.286,-0.547 0.327,-0.557 0.373,-0.557C0.422,-0.557 0.467,-0.545 0.506,-0.522C0.545,-0.499 0.576,-0.466 0.599,-0.424C0.622,-0.381 0.633,-0.332 0.633,-0.276C0.633,-0.221 0.622,-0.171 0.599,-0.128C0.576,-0.085 0.545,-0.051 0.505,-0.027C0.466,-0.003 0.422,0.009 0.373,0.009C0.326,0.009 0.284,-0.001 0.249,-0.022C0.213,-0.043 0.186,-0.069 0.168,-0.101L0.168,-0L0.077,-0L0.077,-0.74L0.168,-0.74L0.168,-0.446ZM0.54,-0.276C0.54,-0.317 0.532,-0.353 0.515,-0.384C0.498,-0.415 0.476,-0.438 0.448,-0.454C0.419,-0.47 0.388,-0.478 0.354,-0.478C0.321,-0.478 0.29,-0.47 0.262,-0.454C0.233,-0.437 0.211,-0.413 0.194,-0.383C0.177,-0.352 0.168,-0.316 0.168,-0.275C0.168,-0.234 0.177,-0.198 0.194,-0.167C0.211,-0.136 0.233,-0.112 0.262,-0.096C0.29,-0.079 0.321,-0.071 0.354,-0.071C0.388,-0.071 0.419,-0.079 0.448,-0.096C0.476,-0.112 0.498,-0.136 0.515,-0.167C0.532,-0.198 0.54,-0.234 0.54,-0.276Z" style="fill-rule:nonzero;"/>
                </g>
                <g transform="matrix(32.9324,0,0,32.9324,1381.26,765.701)">
                    <path d="M0.549,-0.548L0.219,0.258L0.125,0.258L0.233,-0.006L0.012,-0.548L0.113,-0.548L0.285,-0.104L0.455,-0.548L0.549,-0.548Z" style="fill-rule:nonzero;"/>
                </g>
                <g transform="matrix(32.9324,0,0,32.9324,1399.8,765.701)">
                    <path d="M0.621,-0.512L0.621,-0.435L0.101,-0.435L0.101,-0.512L0.621,-0.512ZM0.621,-0.297L0.621,-0.22L0.101,-0.22L0.101,-0.297L0.621,-0.297Z" style="fill-rule:nonzero;"/>
                </g>
                <g transform="matrix(32.9324,0,0,32.9324,1423.61,765.701)">
                    <path d="M0.124,-0.637C0.107,-0.637 0.092,-0.643 0.08,-0.655C0.068,-0.667 0.062,-0.682 0.062,-0.699C0.062,-0.716 0.068,-0.731 0.08,-0.743C0.092,-0.755 0.107,-0.761 0.124,-0.761C0.141,-0.761 0.155,-0.755 0.167,-0.743C0.178,-0.731 0.184,-0.716 0.184,-0.699C0.184,-0.682 0.178,-0.667 0.167,-0.655C0.155,-0.643 0.141,-0.637 0.124,-0.637ZM0.168,-0.548L0.168,-0L0.077,-0L0.077,-0.548L0.168,-0.548Z" style="fill-rule:nonzero;"/>
                </g>
                <g transform="matrix(32.9324,0,0,32.9324,1431.71,765.701)">
                    <path d="M0.043,-0.276C0.043,-0.332 0.054,-0.381 0.077,-0.424C0.1,-0.466 0.131,-0.499 0.171,-0.522C0.21,-0.545 0.255,-0.557 0.304,-0.557C0.347,-0.557 0.386,-0.547 0.423,-0.528C0.46,-0.508 0.488,-0.482 0.507,-0.45L0.507,-0.74L0.599,-0.74L0.599,-0L0.507,-0L0.507,-0.103C0.489,-0.07 0.462,-0.043 0.427,-0.023C0.392,-0.002 0.35,0.009 0.303,0.009C0.254,0.009 0.21,-0.003 0.171,-0.027C0.131,-0.051 0.1,-0.085 0.077,-0.128C0.054,-0.171 0.043,-0.221 0.043,-0.276ZM0.507,-0.275C0.507,-0.316 0.499,-0.352 0.482,-0.383C0.465,-0.414 0.443,-0.437 0.414,-0.454C0.386,-0.47 0.355,-0.478 0.321,-0.478C0.287,-0.478 0.256,-0.47 0.228,-0.454C0.2,-0.438 0.178,-0.415 0.161,-0.384C0.144,-0.353 0.136,-0.317 0.136,-0.276C0.136,-0.234 0.144,-0.198 0.161,-0.167C0.178,-0.136 0.2,-0.112 0.228,-0.096C0.256,-0.079 0.287,-0.071 0.321,-0.071C0.355,-0.071 0.386,-0.079 0.414,-0.096C0.443,-0.112 0.465,-0.136 0.482,-0.167C0.499,-0.198 0.507,-0.234 0.507,-0.275Z" style="fill-rule:nonzero;"/>
                </g>
                <g transform="matrix(32.9324,0,0,32.9324,1453.97,765.701)">
                    <path d="M0.612,-0L0.521,-0.092C0.487,-0.057 0.451,-0.031 0.412,-0.014C0.373,0.003 0.33,0.012 0.281,0.012C0.233,0.012 0.191,0.003 0.154,-0.014C0.117,-0.031 0.088,-0.056 0.068,-0.088C0.047,-0.12 0.037,-0.157 0.037,-0.2C0.037,-0.249 0.051,-0.292 0.079,-0.329C0.106,-0.366 0.147,-0.395 0.201,-0.416C0.18,-0.441 0.164,-0.465 0.155,-0.486C0.146,-0.507 0.141,-0.531 0.141,-0.556C0.141,-0.585 0.149,-0.612 0.164,-0.635C0.179,-0.659 0.2,-0.678 0.228,-0.691C0.256,-0.704 0.288,-0.711 0.325,-0.711C0.361,-0.711 0.392,-0.704 0.419,-0.69C0.446,-0.676 0.466,-0.657 0.479,-0.631C0.492,-0.607 0.498,-0.579 0.497,-0.548L0.406,-0.548C0.407,-0.575 0.399,-0.597 0.383,-0.613C0.367,-0.628 0.346,-0.636 0.321,-0.636C0.294,-0.636 0.273,-0.628 0.257,-0.614C0.24,-0.599 0.232,-0.579 0.232,-0.556C0.232,-0.536 0.237,-0.517 0.249,-0.498C0.26,-0.479 0.278,-0.456 0.304,-0.429L0.512,-0.22L0.53,-0.248L0.598,-0.362L0.696,-0.362L0.614,-0.22C0.603,-0.2 0.589,-0.179 0.574,-0.157L0.731,-0L0.612,-0ZM0.281,-0.066C0.317,-0.066 0.349,-0.073 0.379,-0.087C0.407,-0.101 0.435,-0.123 0.461,-0.152L0.256,-0.358C0.171,-0.325 0.128,-0.274 0.128,-0.203C0.128,-0.164 0.142,-0.131 0.171,-0.105C0.199,-0.079 0.236,-0.066 0.281,-0.066Z" style="fill-rule:nonzero;"/>
                </g>
                <g transform="matrix(32.9324,0,0,32.9324,1478.31,765.701)">
                    <path d="M0.168,-0.447C0.186,-0.478 0.213,-0.504 0.249,-0.526C0.284,-0.547 0.326,-0.557 0.373,-0.557C0.422,-0.557 0.466,-0.545 0.505,-0.522C0.545,-0.499 0.576,-0.466 0.599,-0.424C0.622,-0.381 0.633,-0.332 0.633,-0.276C0.633,-0.221 0.622,-0.171 0.599,-0.128C0.576,-0.085 0.545,-0.051 0.505,-0.027C0.466,-0.003 0.422,0.009 0.373,0.009C0.326,0.009 0.285,-0.002 0.25,-0.023C0.214,-0.043 0.187,-0.07 0.168,-0.101L0.168,0.26L0.077,0.26L0.077,-0.548L0.168,-0.548L0.168,-0.447ZM0.54,-0.276C0.54,-0.317 0.532,-0.353 0.515,-0.384C0.498,-0.415 0.476,-0.438 0.448,-0.454C0.419,-0.47 0.388,-0.478 0.354,-0.478C0.321,-0.478 0.29,-0.47 0.262,-0.454C0.233,-0.437 0.211,-0.413 0.194,-0.383C0.177,-0.352 0.168,-0.316 0.168,-0.275C0.168,-0.234 0.177,-0.198 0.194,-0.167C0.211,-0.136 0.233,-0.112 0.262,-0.096C0.29,-0.079 0.321,-0.071 0.354,-0.071C0.388,-0.071 0.419,-0.079 0.448,-0.096C0.476,-0.112 0.498,-0.136 0.515,-0.167C0.532,-0.198 0.54,-0.234 0.54,-0.276Z" style="fill-rule:nonzero;"/>
                </g>
                <g transform="matrix(32.9324,0,0,32.9324,1500.57,765.701)">
                    <path d="M0.043,-0.276C0.043,-0.332 0.054,-0.381 0.077,-0.424C0.1,-0.466 0.131,-0.499 0.171,-0.522C0.21,-0.545 0.254,-0.557 0.303,-0.557C0.351,-0.557 0.393,-0.547 0.428,-0.526C0.463,-0.505 0.49,-0.479 0.507,-0.448L0.507,-0.548L0.599,-0.548L0.599,-0L0.507,-0L0.507,-0.102C0.489,-0.07 0.462,-0.043 0.427,-0.023C0.391,-0.002 0.349,0.009 0.302,0.009C0.253,0.009 0.209,-0.003 0.17,-0.027C0.131,-0.051 0.1,-0.085 0.077,-0.128C0.054,-0.171 0.043,-0.221 0.043,-0.276ZM0.507,-0.275C0.507,-0.316 0.499,-0.352 0.482,-0.383C0.465,-0.414 0.443,-0.437 0.414,-0.454C0.386,-0.47 0.355,-0.478 0.321,-0.478C0.287,-0.478 0.256,-0.47 0.228,-0.454C0.2,-0.438 0.178,-0.415 0.161,-0.384C0.144,-0.353 0.136,-0.317 0.136,-0.276C0.136,-0.234 0.144,-0.198 0.161,-0.167C0.178,-0.136 0.2,-0.112 0.228,-0.096C0.256,-0.079 0.287,-0.071 0.321,-0.071C0.355,-0.071 0.386,-0.079 0.414,-0.096C0.443,-0.112 0.465,-0.136 0.482,-0.167C0.499,-0.198 0.507,-0.234 0.507,-0.275Z" style="fill-rule:nonzero;"/>
                </g>
                <g transform="matrix(32.9324,0,0,32.9324,1522.83,765.701)">
                    <path d="M0.303,-0.557C0.35,-0.557 0.392,-0.547 0.428,-0.526C0.463,-0.505 0.49,-0.479 0.507,-0.448L0.507,-0.548L0.599,-0.548L0.599,0.012C0.599,0.062 0.588,0.106 0.567,0.145C0.546,0.184 0.515,0.215 0.475,0.237C0.436,0.259 0.39,0.27 0.337,0.27C0.265,0.27 0.205,0.253 0.157,0.219C0.109,0.185 0.081,0.139 0.072,0.08L0.162,0.08C0.172,0.113 0.193,0.14 0.224,0.16C0.255,0.181 0.293,0.191 0.337,0.191C0.387,0.191 0.428,0.175 0.46,0.144C0.491,0.113 0.507,0.069 0.507,0.012L0.507,-0.103C0.489,-0.071 0.462,-0.044 0.427,-0.023C0.392,-0.002 0.35,0.009 0.303,0.009C0.254,0.009 0.21,-0.003 0.171,-0.027C0.131,-0.051 0.1,-0.085 0.077,-0.128C0.054,-0.171 0.043,-0.221 0.043,-0.276C0.043,-0.332 0.054,-0.381 0.077,-0.424C0.1,-0.466 0.131,-0.499 0.171,-0.522C0.21,-0.545 0.254,-0.557 0.303,-0.557ZM0.507,-0.275C0.507,-0.316 0.499,-0.352 0.482,-0.383C0.465,-0.414 0.443,-0.437 0.414,-0.454C0.386,-0.47 0.355,-0.478 0.321,-0.478C0.287,-0.478 0.256,-0.47 0.228,-0.454C0.2,-0.438 0.178,-0.415 0.161,-0.384C0.144,-0.353 0.136,-0.317 0.136,-0.276C0.136,-0.234 0.144,-0.198 0.161,-0.167C0.178,-0.136 0.2,-0.112 0.228,-0.096C0.256,-0.079 0.287,-0.071 0.321,-0.071C0.355,-0.071 0.386,-0.079 0.414,-0.096C0.443,-0.112 0.465,-0.136 0.482,-0.167C0.499,-0.198 0.507,-0.234 0.507,-0.275Z" style="fill-rule:nonzero;"/>
                </g>
                <g transform="matrix(32.9324,0,0,32.9324,1545.09,765.701)">
                    <path d="M0.577,-0.295C0.577,-0.278 0.576,-0.259 0.574,-0.24L0.136,-0.24C0.139,-0.186 0.158,-0.144 0.192,-0.114C0.225,-0.083 0.266,-0.068 0.314,-0.068C0.353,-0.068 0.386,-0.077 0.412,-0.096C0.439,-0.114 0.457,-0.138 0.468,-0.169L0.566,-0.169C0.551,-0.116 0.522,-0.074 0.478,-0.041C0.434,-0.008 0.379,0.009 0.314,0.009C0.262,0.009 0.216,-0.003 0.174,-0.026C0.134,-0.049 0.101,-0.083 0.078,-0.126C0.055,-0.169 0.043,-0.218 0.043,-0.275C0.043,-0.332 0.054,-0.381 0.077,-0.424C0.1,-0.467 0.132,-0.5 0.172,-0.523C0.214,-0.546 0.261,-0.557 0.314,-0.557C0.366,-0.557 0.412,-0.546 0.452,-0.523C0.492,-0.5 0.523,-0.469 0.545,-0.43C0.566,-0.39 0.577,-0.345 0.577,-0.295ZM0.483,-0.314C0.483,-0.349 0.475,-0.379 0.46,-0.404C0.445,-0.429 0.424,-0.448 0.398,-0.461C0.371,-0.473 0.342,-0.48 0.31,-0.48C0.264,-0.48 0.225,-0.465 0.193,-0.436C0.16,-0.407 0.142,-0.366 0.137,-0.314L0.483,-0.314Z" style="fill-rule:nonzero;"/>
                </g>
                <g transform="matrix(32.9324,0,0,32.9324,1565.51,765.701)">
                    <path d="M0.621,-0.512L0.621,-0.435L0.101,-0.435L0.101,-0.512L0.621,-0.512ZM0.621,-0.297L0.621,-0.22L0.101,-0.22L0.101,-0.297L0.621,-0.297Z" style="fill-rule:nonzero;"/>
                </g>
                <g transform="matrix(32.9324,0,0,32.9324,1589.32,765.701)">
                    <path d="M0.06,-0.541C0.065,-0.602 0.088,-0.65 0.131,-0.685C0.174,-0.72 0.229,-0.737 0.297,-0.737C0.342,-0.737 0.382,-0.729 0.414,-0.713C0.448,-0.696 0.472,-0.674 0.49,-0.646C0.506,-0.618 0.515,-0.586 0.515,-0.551C0.515,-0.51 0.503,-0.474 0.48,-0.444C0.456,-0.414 0.425,-0.395 0.387,-0.386L0.387,-0.381C0.43,-0.37 0.465,-0.349 0.49,-0.318C0.515,-0.287 0.528,-0.246 0.528,-0.195C0.528,-0.157 0.519,-0.123 0.502,-0.093C0.485,-0.062 0.459,-0.038 0.424,-0.021C0.389,-0.004 0.348,0.005 0.299,0.005C0.228,0.005 0.17,-0.014 0.125,-0.051C0.08,-0.087 0.054,-0.14 0.049,-0.208L0.137,-0.208C0.142,-0.168 0.158,-0.135 0.186,-0.11C0.214,-0.085 0.251,-0.072 0.298,-0.072C0.345,-0.072 0.38,-0.084 0.405,-0.109C0.429,-0.133 0.441,-0.164 0.441,-0.203C0.441,-0.253 0.424,-0.289 0.391,-0.311C0.358,-0.333 0.307,-0.344 0.24,-0.344L0.217,-0.344L0.217,-0.42L0.241,-0.42C0.302,-0.421 0.349,-0.431 0.38,-0.451C0.411,-0.47 0.427,-0.501 0.427,-0.542C0.427,-0.577 0.416,-0.606 0.393,-0.627C0.37,-0.648 0.337,-0.659 0.294,-0.659C0.253,-0.659 0.219,-0.648 0.194,-0.627C0.169,-0.606 0.154,-0.577 0.149,-0.541L0.06,-0.541Z" style="fill-rule:nonzero;"/>
                </g>
            </g>
        </g>
    </g>
</svg>
