<?xml version="1.0" encoding="UTF-8" standalone="no"?>
<!DOCTYPE svg PUBLIC "-//W3C//DTD SVG 1.1//EN" "http://www.w3.org/Graphics/SVG/1.1/DTD/svg11.dtd">
<svg width="100%" height="100%" viewBox="0 0 1177 358" version="1.1" xmlns="http://www.w3.org/2000/svg" xmlns:xlink="http://www.w3.org/1999/xlink" xml:space="preserve" xmlns:serif="http://www.serif.com/" style="fill-rule:evenodd;clip-rule:evenodd;stroke-linejoin:round;stroke-miterlimit:2;">
    <g transform="matrix(1.33333,0,0,1.33333,-3318.29,-250.882)">
        <g transform="matrix(1,0,0,2.67987,0,0)">
            <g transform="matrix(1,0,0,0.373153,139.644,2.43555)">
                <path d="M3146.99,253.723L3151.38,253.723C3151.78,253.723 3152.13,253.953 3152.29,254.31C3152.46,254.668 3152.39,255.087 3152.14,255.382C3149.35,258.559 3143.35,265.394 3141.24,267.796C3141.05,268.013 3140.77,268.137 3140.49,268.137C3140.2,268.137 3139.92,268.013 3139.73,267.796C3137.62,265.394 3131.62,258.559 3128.84,255.382C3128.58,255.087 3128.51,254.668 3128.68,254.31C3128.84,253.952 3129.19,253.723 3129.59,253.723C3131.27,253.723 3133.29,253.723 3133.29,253.723L3133.29,240.89L3146.99,240.89L3146.99,253.723ZM3116.05,182.491C3116.24,182.275 3116.52,182.151 3116.8,182.151C3117.09,182.151 3117.37,182.275 3117.56,182.491C3119.66,184.893 3125.66,191.729 3128.45,194.905C3128.71,195.2 3128.78,195.619 3128.61,195.977C3128.45,196.335 3128.1,196.565 3127.7,196.565C3122.76,196.565 3110.85,196.565 3105.91,196.565C3105.51,196.565 3105.16,196.335 3104.99,195.977C3104.83,195.619 3104.89,195.2 3105.15,194.905C3107.94,191.729 3113.94,184.893 3116.05,182.491Z" style="fill:rgb(52,150,67);"/>
            </g>
        </g>
        <g transform="matrix(1,0,0,2.67987,0,0)">
            <g transform="matrix(1,0,0,0.373153,2832.43,14.7748)">
                <g transform="matrix(80,0,0,78.4,-348.671,216.17)">
                    <path d="M0.233,-0.565L0.233,-0.423L0.462,-0.423L0.462,-0.291L0.233,-0.291L0.233,-0.137L0.492,-0.137L0.492,-0L0.062,-0L0.062,-0.702L0.492,-0.702L0.492,-0.565L0.233,-0.565Z" style="fill:rgb(51,51,51);fill-rule:nonzero;"/>
                </g>
                <g transform="matrix(80,0,0,78.4,-305.391,216.17)">
                    <path d="M0.028,-0.28C0.028,-0.337 0.039,-0.388 0.06,-0.431C0.082,-0.474 0.112,-0.508 0.149,-0.531C0.186,-0.554 0.228,-0.566 0.274,-0.566C0.313,-0.566 0.348,-0.558 0.377,-0.542C0.407,-0.526 0.43,-0.505 0.446,-0.479L0.446,-0.558L0.617,-0.558L0.617,-0L0.446,-0L0.446,-0.079C0.429,-0.053 0.406,-0.032 0.376,-0.016C0.347,0 0.312,0.008 0.273,0.008C0.228,0.008 0.186,-0.004 0.149,-0.027C0.112,-0.051 0.082,-0.085 0.06,-0.128C0.039,-0.172 0.028,-0.223 0.028,-0.28ZM0.446,-0.279C0.446,-0.322 0.434,-0.355 0.41,-0.38C0.387,-0.405 0.358,-0.417 0.324,-0.417C0.29,-0.417 0.261,-0.405 0.237,-0.38C0.214,-0.356 0.202,-0.323 0.202,-0.28C0.202,-0.237 0.214,-0.203 0.237,-0.178C0.261,-0.153 0.29,-0.141 0.324,-0.141C0.358,-0.141 0.387,-0.153 0.41,-0.178C0.434,-0.203 0.446,-0.236 0.446,-0.279Z" style="fill:rgb(51,51,51);fill-rule:nonzero;"/>
                </g>
                <g transform="matrix(80,0,0,78.4,-251.071,216.17)">
                    <path d="M0.289,0.008C0.24,0.008 0.197,-0 0.159,-0.017C0.121,-0.034 0.091,-0.056 0.069,-0.085C0.047,-0.114 0.035,-0.147 0.032,-0.183L0.201,-0.183C0.203,-0.164 0.212,-0.148 0.228,-0.136C0.244,-0.124 0.264,-0.118 0.287,-0.118C0.308,-0.118 0.325,-0.122 0.336,-0.13C0.348,-0.139 0.354,-0.15 0.354,-0.163C0.354,-0.179 0.346,-0.191 0.329,-0.198C0.312,-0.206 0.285,-0.215 0.248,-0.224C0.208,-0.233 0.175,-0.243 0.148,-0.253C0.121,-0.264 0.098,-0.28 0.079,-0.302C0.06,-0.325 0.05,-0.355 0.05,-0.393C0.05,-0.425 0.059,-0.454 0.076,-0.48C0.094,-0.507 0.12,-0.528 0.154,-0.543C0.189,-0.558 0.23,-0.566 0.277,-0.566C0.347,-0.566 0.402,-0.549 0.442,-0.514C0.483,-0.479 0.506,-0.433 0.512,-0.376L0.354,-0.376C0.351,-0.395 0.343,-0.411 0.328,-0.422C0.314,-0.433 0.295,-0.439 0.272,-0.439C0.252,-0.439 0.237,-0.435 0.226,-0.427C0.215,-0.42 0.21,-0.409 0.21,-0.396C0.21,-0.38 0.218,-0.368 0.235,-0.36C0.252,-0.352 0.279,-0.344 0.315,-0.336C0.356,-0.325 0.39,-0.315 0.416,-0.304C0.442,-0.294 0.465,-0.277 0.484,-0.254C0.504,-0.231 0.514,-0.201 0.515,-0.162C0.515,-0.129 0.506,-0.1 0.487,-0.074C0.469,-0.049 0.443,-0.029 0.408,-0.014C0.374,0.001 0.334,0.008 0.289,0.008Z" style="fill:rgb(51,51,51);fill-rule:nonzero;"/>
                </g>
                <g transform="matrix(80,0,0,78.4,-206.431,216.17)">
                    <path d="M0.632,-0.558L0.282,0.265L0.098,0.265L0.226,-0.019L-0.001,-0.558L0.19,-0.558L0.319,-0.209L0.447,-0.558L0.632,-0.558Z" style="fill:rgb(51,51,51);fill-rule:nonzero;"/>
                </g>
                <g transform="matrix(80,0,0,78.4,-121.951,216.17)">
                    <path d="M0.342,-0.416L0.25,-0.416L0.25,-0L0.079,-0L0.079,-0.416L0.017,-0.416L0.017,-0.558L0.079,-0.558L0.079,-0.574C0.079,-0.643 0.099,-0.695 0.138,-0.73C0.177,-0.766 0.235,-0.784 0.311,-0.784C0.324,-0.784 0.333,-0.784 0.339,-0.783L0.339,-0.638C0.306,-0.64 0.283,-0.635 0.27,-0.624C0.257,-0.613 0.25,-0.592 0.25,-0.563L0.25,-0.558L0.342,-0.558L0.342,-0.416Z" style="fill:url(#_Linear1);fill-rule:nonzero;"/>
                </g>
                <g transform="matrix(80,0,0,78.4,-93.1505,216.17)">
                    <path d="M0.148,-0.616C0.118,-0.616 0.093,-0.625 0.074,-0.642C0.055,-0.66 0.046,-0.682 0.046,-0.708C0.046,-0.735 0.055,-0.757 0.074,-0.774C0.093,-0.792 0.118,-0.801 0.148,-0.801C0.177,-0.801 0.201,-0.792 0.22,-0.774C0.239,-0.757 0.249,-0.735 0.249,-0.708C0.249,-0.682 0.239,-0.66 0.22,-0.642C0.201,-0.625 0.177,-0.616 0.148,-0.616ZM0.233,-0.558L0.233,-0L0.062,-0L0.062,-0.558L0.233,-0.558Z" style="fill:url(#_Linear2);fill-rule:nonzero;"/>
                </g>
                <g transform="matrix(80,0,0,78.4,-69.5505,216.17)">
                    <rect x="0.062" y="-0.74" width="0.171" height="0.74" style="fill:url(#_Linear3);fill-rule:nonzero;"/>
                </g>
                <g transform="matrix(80,0,0,78.4,-5.63053,216.17)">
                    <path d="M0.588,-0.288C0.588,-0.272 0.587,-0.255 0.585,-0.238L0.198,-0.238C0.201,-0.203 0.212,-0.177 0.231,-0.158C0.251,-0.14 0.275,-0.131 0.304,-0.131C0.347,-0.131 0.376,-0.149 0.393,-0.185L0.575,-0.185C0.566,-0.148 0.549,-0.115 0.524,-0.086C0.5,-0.057 0.47,-0.034 0.433,-0.017C0.396,-0 0.355,0.008 0.31,0.008C0.255,0.008 0.207,-0.004 0.164,-0.027C0.121,-0.05 0.088,-0.084 0.064,-0.127C0.04,-0.17 0.028,-0.221 0.028,-0.279C0.028,-0.337 0.04,-0.388 0.063,-0.431C0.087,-0.474 0.12,-0.508 0.163,-0.531C0.206,-0.554 0.255,-0.566 0.31,-0.566C0.364,-0.566 0.412,-0.555 0.454,-0.532C0.496,-0.509 0.529,-0.477 0.552,-0.435C0.576,-0.393 0.588,-0.344 0.588,-0.288ZM0.413,-0.333C0.413,-0.362 0.403,-0.386 0.383,-0.403C0.363,-0.42 0.338,-0.429 0.308,-0.429C0.279,-0.429 0.255,-0.421 0.235,-0.404C0.216,-0.387 0.204,-0.364 0.199,-0.333L0.413,-0.333Z" style="fill:url(#_Linear4);fill-rule:nonzero;"/>
                </g>
                <g transform="matrix(80,0,0,78.4,43.6495,216.17)">
                    <path d="M0.233,-0.465C0.253,-0.496 0.278,-0.52 0.308,-0.537C0.338,-0.555 0.371,-0.564 0.408,-0.564L0.408,-0.383L0.361,-0.383C0.318,-0.383 0.286,-0.374 0.265,-0.355C0.244,-0.337 0.233,-0.305 0.233,-0.259L0.233,-0L0.062,-0L0.062,-0.558L0.233,-0.558L0.233,-0.465Z" style="fill:url(#_Linear5);fill-rule:nonzero;"/>
                </g>
                <g transform="matrix(80,0,0,78.4,77.8895,216.17)">
                    <path d="M0.148,-0.616C0.118,-0.616 0.093,-0.625 0.074,-0.642C0.055,-0.66 0.046,-0.682 0.046,-0.708C0.046,-0.735 0.055,-0.757 0.074,-0.774C0.093,-0.792 0.118,-0.801 0.148,-0.801C0.177,-0.801 0.201,-0.792 0.22,-0.774C0.239,-0.757 0.249,-0.735 0.249,-0.708C0.249,-0.682 0.239,-0.66 0.22,-0.642C0.201,-0.625 0.177,-0.616 0.148,-0.616ZM0.233,-0.558L0.233,-0L0.062,-0L0.062,-0.558L0.233,-0.558Z" style="fill:url(#_Linear6);fill-rule:nonzero;"/>
                </g>
                <g transform="matrix(80,0,0,78.4,101.489,216.17)">
                    <path d="M0.402,-0.564C0.467,-0.564 0.519,-0.543 0.558,-0.5C0.597,-0.458 0.617,-0.4 0.617,-0.326L0.617,-0L0.447,-0L0.447,-0.303C0.447,-0.34 0.437,-0.369 0.418,-0.39C0.399,-0.411 0.373,-0.421 0.34,-0.421C0.307,-0.421 0.281,-0.411 0.262,-0.39C0.243,-0.369 0.233,-0.34 0.233,-0.303L0.233,-0L0.062,-0L0.062,-0.558L0.233,-0.558L0.233,-0.484C0.25,-0.509 0.274,-0.528 0.303,-0.542C0.332,-0.557 0.365,-0.564 0.402,-0.564Z" style="fill:url(#_Linear7);fill-rule:nonzero;"/>
                </g>
                <g transform="matrix(80,0,0,78.4,155.409,216.17)">
                    <path d="M0.274,-0.566C0.313,-0.566 0.348,-0.558 0.377,-0.542C0.407,-0.526 0.43,-0.505 0.446,-0.479L0.446,-0.558L0.617,-0.558L0.617,-0.001C0.617,0.05 0.607,0.097 0.586,0.138C0.566,0.18 0.535,0.213 0.493,0.238C0.452,0.263 0.4,0.275 0.338,0.275C0.255,0.275 0.188,0.255 0.137,0.216C0.086,0.177 0.056,0.125 0.049,0.058L0.218,0.058C0.223,0.079 0.236,0.096 0.256,0.108C0.276,0.121 0.301,0.127 0.33,0.127C0.365,0.127 0.393,0.117 0.414,0.096C0.435,0.076 0.446,0.044 0.446,-0.001L0.446,-0.08C0.429,-0.054 0.406,-0.033 0.377,-0.016C0.348,0 0.313,0.008 0.274,0.008C0.228,0.008 0.186,-0.004 0.149,-0.027C0.112,-0.051 0.082,-0.085 0.06,-0.128C0.039,-0.172 0.028,-0.223 0.028,-0.28C0.028,-0.337 0.039,-0.388 0.06,-0.431C0.082,-0.474 0.112,-0.508 0.149,-0.531C0.186,-0.554 0.228,-0.566 0.274,-0.566ZM0.446,-0.279C0.446,-0.322 0.434,-0.355 0.41,-0.38C0.387,-0.405 0.358,-0.417 0.324,-0.417C0.29,-0.417 0.261,-0.405 0.237,-0.38C0.214,-0.356 0.202,-0.323 0.202,-0.28C0.202,-0.237 0.214,-0.203 0.237,-0.178C0.261,-0.153 0.29,-0.141 0.324,-0.141C0.358,-0.141 0.387,-0.153 0.41,-0.178C0.434,-0.203 0.446,-0.236 0.446,-0.279Z" style="fill:url(#_Linear8);fill-rule:nonzero;"/>
                </g>
                <g transform="matrix(80,0,0,78.4,209.729,216.17)">
                    <path d="M0.246,-0.158L0.135,0.129L0.026,0.129L0.084,-0.158L0.246,-0.158Z" style="fill:url(#_Linear9);fill-rule:nonzero;"/>
                </g>
                <g transform="matrix(80,0,0,78.4,249.649,216.17)">
                    <path d="M0.289,0.008C0.24,0.008 0.197,-0 0.159,-0.017C0.121,-0.034 0.091,-0.056 0.069,-0.085C0.047,-0.114 0.035,-0.147 0.032,-0.183L0.201,-0.183C0.203,-0.164 0.212,-0.148 0.228,-0.136C0.244,-0.124 0.264,-0.118 0.287,-0.118C0.308,-0.118 0.325,-0.122 0.336,-0.13C0.348,-0.139 0.354,-0.15 0.354,-0.163C0.354,-0.179 0.346,-0.191 0.329,-0.198C0.312,-0.206 0.285,-0.215 0.248,-0.224C0.208,-0.233 0.175,-0.243 0.148,-0.253C0.121,-0.264 0.098,-0.28 0.079,-0.302C0.06,-0.325 0.05,-0.355 0.05,-0.393C0.05,-0.425 0.059,-0.454 0.076,-0.48C0.094,-0.507 0.12,-0.528 0.154,-0.543C0.189,-0.558 0.23,-0.566 0.277,-0.566C0.347,-0.566 0.402,-0.549 0.442,-0.514C0.483,-0.479 0.506,-0.433 0.512,-0.376L0.354,-0.376C0.351,-0.395 0.343,-0.411 0.328,-0.422C0.314,-0.433 0.295,-0.439 0.272,-0.439C0.252,-0.439 0.237,-0.435 0.226,-0.427C0.215,-0.42 0.21,-0.409 0.21,-0.396C0.21,-0.38 0.218,-0.368 0.235,-0.36C0.252,-0.352 0.279,-0.344 0.315,-0.336C0.356,-0.325 0.39,-0.315 0.416,-0.304C0.442,-0.294 0.465,-0.277 0.484,-0.254C0.504,-0.231 0.514,-0.201 0.515,-0.162C0.515,-0.129 0.506,-0.1 0.487,-0.074C0.469,-0.049 0.443,-0.029 0.408,-0.014C0.374,0.001 0.334,0.008 0.289,0.008Z" style="fill:url(#_Linear10);fill-rule:nonzero;"/>
                </g>
                <g transform="matrix(80,0,0,78.4,294.289,216.17)">
                    <path d="M0.316,0.008C0.261,0.008 0.212,-0.004 0.168,-0.027C0.125,-0.05 0.09,-0.084 0.065,-0.127C0.04,-0.17 0.028,-0.221 0.028,-0.279C0.028,-0.336 0.041,-0.387 0.066,-0.43C0.091,-0.474 0.126,-0.508 0.17,-0.531C0.214,-0.554 0.263,-0.566 0.318,-0.566C0.373,-0.566 0.422,-0.554 0.466,-0.531C0.51,-0.508 0.545,-0.474 0.57,-0.43C0.595,-0.387 0.608,-0.336 0.608,-0.279C0.608,-0.222 0.595,-0.171 0.569,-0.127C0.544,-0.084 0.509,-0.05 0.464,-0.027C0.42,-0.004 0.371,0.008 0.316,0.008ZM0.316,-0.14C0.349,-0.14 0.376,-0.152 0.399,-0.176C0.422,-0.2 0.434,-0.234 0.434,-0.279C0.434,-0.324 0.423,-0.358 0.4,-0.382C0.378,-0.406 0.351,-0.418 0.318,-0.418C0.285,-0.418 0.257,-0.406 0.235,-0.382C0.213,-0.359 0.202,-0.324 0.202,-0.279C0.202,-0.234 0.213,-0.2 0.234,-0.176C0.256,-0.152 0.283,-0.14 0.316,-0.14Z" style="fill:url(#_Linear11);fill-rule:nonzero;"/>
                </g>
                <g transform="matrix(80,0,0,78.4,345.249,216.17)">
                    <path d="M0.233,-0.465C0.253,-0.496 0.278,-0.52 0.308,-0.537C0.338,-0.555 0.371,-0.564 0.408,-0.564L0.408,-0.383L0.361,-0.383C0.318,-0.383 0.286,-0.374 0.265,-0.355C0.244,-0.337 0.233,-0.305 0.233,-0.259L0.233,-0L0.062,-0L0.062,-0.558L0.233,-0.558L0.233,-0.465Z" style="fill:url(#_Linear12);fill-rule:nonzero;"/>
                </g>
                <g transform="matrix(80,0,0,78.4,379.489,216.17)">
                    <path d="M0.373,-0.145L0.373,-0L0.286,-0C0.224,-0 0.176,-0.015 0.141,-0.045C0.106,-0.076 0.089,-0.125 0.089,-0.194L0.089,-0.416L0.021,-0.416L0.021,-0.558L0.089,-0.558L0.089,-0.694L0.26,-0.694L0.26,-0.558L0.372,-0.558L0.372,-0.416L0.26,-0.416L0.26,-0.192C0.26,-0.175 0.264,-0.163 0.272,-0.156C0.28,-0.149 0.293,-0.145 0.312,-0.145L0.373,-0.145Z" style="fill:url(#_Linear13);fill-rule:nonzero;"/>
                </g>
                <g transform="matrix(80,0,0,78.4,411.969,216.17)">
                    <rect x="0.062" y="-0.74" width="0.171" height="0.74" style="fill:url(#_Linear14);fill-rule:nonzero;"/>
                </g>
                <g transform="matrix(80,0,0,78.4,435.569,216.17)">
                    <path d="M0.402,-0.564C0.467,-0.564 0.519,-0.543 0.558,-0.5C0.597,-0.458 0.617,-0.4 0.617,-0.326L0.617,-0L0.447,-0L0.447,-0.303C0.447,-0.34 0.437,-0.369 0.418,-0.39C0.399,-0.411 0.373,-0.421 0.34,-0.421C0.307,-0.421 0.281,-0.411 0.262,-0.39C0.243,-0.369 0.233,-0.34 0.233,-0.303L0.233,-0L0.062,-0L0.062,-0.558L0.233,-0.558L0.233,-0.484C0.25,-0.509 0.274,-0.528 0.303,-0.542C0.332,-0.557 0.365,-0.564 0.402,-0.564Z" style="fill:url(#_Linear15);fill-rule:nonzero;"/>
                </g>
                <g transform="matrix(80,0,0,78.4,489.489,216.17)">
                    <path d="M0.274,-0.566C0.313,-0.566 0.348,-0.558 0.377,-0.542C0.407,-0.526 0.43,-0.505 0.446,-0.479L0.446,-0.558L0.617,-0.558L0.617,-0.001C0.617,0.05 0.607,0.097 0.586,0.138C0.566,0.18 0.535,0.213 0.493,0.238C0.452,0.263 0.4,0.275 0.338,0.275C0.255,0.275 0.188,0.255 0.137,0.216C0.086,0.177 0.056,0.125 0.049,0.058L0.218,0.058C0.223,0.079 0.236,0.096 0.256,0.108C0.276,0.121 0.301,0.127 0.33,0.127C0.365,0.127 0.393,0.117 0.414,0.096C0.435,0.076 0.446,0.044 0.446,-0.001L0.446,-0.08C0.429,-0.054 0.406,-0.033 0.377,-0.016C0.348,0 0.313,0.008 0.274,0.008C0.228,0.008 0.186,-0.004 0.149,-0.027C0.112,-0.051 0.082,-0.085 0.06,-0.128C0.039,-0.172 0.028,-0.223 0.028,-0.28C0.028,-0.337 0.039,-0.388 0.06,-0.431C0.082,-0.474 0.112,-0.508 0.149,-0.531C0.186,-0.554 0.228,-0.566 0.274,-0.566ZM0.446,-0.279C0.446,-0.322 0.434,-0.355 0.41,-0.38C0.387,-0.405 0.358,-0.417 0.324,-0.417C0.29,-0.417 0.261,-0.405 0.237,-0.38C0.214,-0.356 0.202,-0.323 0.202,-0.28C0.202,-0.237 0.214,-0.203 0.237,-0.178C0.261,-0.153 0.29,-0.141 0.324,-0.141C0.358,-0.141 0.387,-0.153 0.41,-0.178C0.434,-0.203 0.446,-0.236 0.446,-0.279Z" style="fill:url(#_Linear16);fill-rule:nonzero;"/>
                </g>
                <g transform="matrix(80,0,0,78.4,-222.031,316.17)">
                    <path d="M0.028,-0.28C0.028,-0.337 0.039,-0.388 0.06,-0.431C0.082,-0.474 0.112,-0.508 0.149,-0.531C0.186,-0.554 0.228,-0.566 0.274,-0.566C0.313,-0.566 0.348,-0.558 0.377,-0.542C0.407,-0.526 0.43,-0.505 0.446,-0.479L0.446,-0.558L0.617,-0.558L0.617,-0L0.446,-0L0.446,-0.079C0.429,-0.053 0.406,-0.032 0.376,-0.016C0.347,0 0.312,0.008 0.273,0.008C0.228,0.008 0.186,-0.004 0.149,-0.027C0.112,-0.051 0.082,-0.085 0.06,-0.128C0.039,-0.172 0.028,-0.223 0.028,-0.28ZM0.446,-0.279C0.446,-0.322 0.434,-0.355 0.41,-0.38C0.387,-0.405 0.358,-0.417 0.324,-0.417C0.29,-0.417 0.261,-0.405 0.237,-0.38C0.214,-0.356 0.202,-0.323 0.202,-0.28C0.202,-0.237 0.214,-0.203 0.237,-0.178C0.261,-0.153 0.29,-0.141 0.324,-0.141C0.358,-0.141 0.387,-0.153 0.41,-0.178C0.434,-0.203 0.446,-0.236 0.446,-0.279Z" style="fill:rgb(51,51,51);fill-rule:nonzero;"/>
                </g>
                <g transform="matrix(80,0,0,78.4,-167.711,316.17)">
                    <path d="M0.402,-0.564C0.467,-0.564 0.519,-0.543 0.558,-0.5C0.597,-0.458 0.617,-0.4 0.617,-0.326L0.617,-0L0.447,-0L0.447,-0.303C0.447,-0.34 0.437,-0.369 0.418,-0.39C0.399,-0.411 0.373,-0.421 0.34,-0.421C0.307,-0.421 0.281,-0.411 0.262,-0.39C0.243,-0.369 0.233,-0.34 0.233,-0.303L0.233,-0L0.062,-0L0.062,-0.558L0.233,-0.558L0.233,-0.484C0.25,-0.509 0.274,-0.528 0.303,-0.542C0.332,-0.557 0.365,-0.564 0.402,-0.564Z" style="fill:rgb(51,51,51);fill-rule:nonzero;"/>
                </g>
                <g transform="matrix(80,0,0,78.4,-113.791,316.17)">
                    <path d="M0.028,-0.28C0.028,-0.337 0.039,-0.388 0.06,-0.431C0.082,-0.474 0.112,-0.508 0.149,-0.531C0.186,-0.554 0.228,-0.566 0.274,-0.566C0.311,-0.566 0.344,-0.558 0.374,-0.543C0.405,-0.528 0.429,-0.507 0.446,-0.481L0.446,-0.74L0.617,-0.74L0.617,-0L0.446,-0L0.446,-0.08C0.43,-0.053 0.407,-0.032 0.377,-0.016C0.348,0 0.313,0.008 0.274,0.008C0.228,0.008 0.186,-0.004 0.149,-0.027C0.112,-0.051 0.082,-0.085 0.06,-0.128C0.039,-0.172 0.028,-0.223 0.028,-0.28ZM0.446,-0.279C0.446,-0.322 0.434,-0.355 0.41,-0.38C0.387,-0.405 0.358,-0.417 0.324,-0.417C0.29,-0.417 0.261,-0.405 0.237,-0.38C0.214,-0.356 0.202,-0.323 0.202,-0.28C0.202,-0.237 0.214,-0.203 0.237,-0.178C0.261,-0.153 0.29,-0.141 0.324,-0.141C0.358,-0.141 0.387,-0.153 0.41,-0.178C0.434,-0.203 0.446,-0.236 0.446,-0.279Z" style="fill:rgb(51,51,51);fill-rule:nonzero;"/>
                </g>
                <g transform="matrix(80,0,0,78.4,-25.5505,316.17)">
                    <path d="M0.233,-0.479C0.25,-0.505 0.273,-0.526 0.302,-0.542C0.331,-0.558 0.366,-0.566 0.405,-0.566C0.451,-0.566 0.493,-0.554 0.53,-0.531C0.567,-0.508 0.597,-0.474 0.618,-0.431C0.64,-0.388 0.651,-0.337 0.651,-0.28C0.651,-0.223 0.64,-0.172 0.618,-0.128C0.597,-0.085 0.567,-0.051 0.53,-0.027C0.493,-0.004 0.451,0.008 0.405,0.008C0.366,0.008 0.332,0 0.302,-0.016C0.273,-0.032 0.25,-0.053 0.233,-0.078L0.233,0.266L0.062,0.266L0.062,-0.558L0.233,-0.558L0.233,-0.479ZM0.477,-0.28C0.477,-0.323 0.465,-0.356 0.441,-0.38C0.418,-0.405 0.389,-0.417 0.354,-0.417C0.32,-0.417 0.291,-0.405 0.267,-0.38C0.244,-0.355 0.232,-0.322 0.232,-0.279C0.232,-0.236 0.244,-0.203 0.267,-0.178C0.291,-0.153 0.32,-0.141 0.354,-0.141C0.388,-0.141 0.417,-0.153 0.441,-0.178C0.465,-0.203 0.477,-0.237 0.477,-0.28Z" style="fill:url(#_Linear17);fill-rule:nonzero;"/>
                </g>
                <g transform="matrix(80,0,0,78.4,28.7695,316.17)">
                    <path d="M0.028,-0.28C0.028,-0.337 0.039,-0.388 0.06,-0.431C0.082,-0.474 0.112,-0.508 0.149,-0.531C0.186,-0.554 0.228,-0.566 0.274,-0.566C0.313,-0.566 0.348,-0.558 0.377,-0.542C0.407,-0.526 0.43,-0.505 0.446,-0.479L0.446,-0.558L0.617,-0.558L0.617,-0L0.446,-0L0.446,-0.079C0.429,-0.053 0.406,-0.032 0.376,-0.016C0.347,0 0.312,0.008 0.273,0.008C0.228,0.008 0.186,-0.004 0.149,-0.027C0.112,-0.051 0.082,-0.085 0.06,-0.128C0.039,-0.172 0.028,-0.223 0.028,-0.28ZM0.446,-0.279C0.446,-0.322 0.434,-0.355 0.41,-0.38C0.387,-0.405 0.358,-0.417 0.324,-0.417C0.29,-0.417 0.261,-0.405 0.237,-0.38C0.214,-0.356 0.202,-0.323 0.202,-0.28C0.202,-0.237 0.214,-0.203 0.237,-0.178C0.261,-0.153 0.29,-0.141 0.324,-0.141C0.358,-0.141 0.387,-0.153 0.41,-0.178C0.434,-0.203 0.446,-0.236 0.446,-0.279Z" style="fill:url(#_Linear18);fill-rule:nonzero;"/>
                </g>
                <g transform="matrix(80,0,0,78.4,83.0895,316.17)">
                    <path d="M0.274,-0.566C0.313,-0.566 0.348,-0.558 0.377,-0.542C0.407,-0.526 0.43,-0.505 0.446,-0.479L0.446,-0.558L0.617,-0.558L0.617,-0.001C0.617,0.05 0.607,0.097 0.586,0.138C0.566,0.18 0.535,0.213 0.493,0.238C0.452,0.263 0.4,0.275 0.338,0.275C0.255,0.275 0.188,0.255 0.137,0.216C0.086,0.177 0.056,0.125 0.049,0.058L0.218,0.058C0.223,0.079 0.236,0.096 0.256,0.108C0.276,0.121 0.301,0.127 0.33,0.127C0.365,0.127 0.393,0.117 0.414,0.096C0.435,0.076 0.446,0.044 0.446,-0.001L0.446,-0.08C0.429,-0.054 0.406,-0.033 0.377,-0.016C0.348,0 0.313,0.008 0.274,0.008C0.228,0.008 0.186,-0.004 0.149,-0.027C0.112,-0.051 0.082,-0.085 0.06,-0.128C0.039,-0.172 0.028,-0.223 0.028,-0.28C0.028,-0.337 0.039,-0.388 0.06,-0.431C0.082,-0.474 0.112,-0.508 0.149,-0.531C0.186,-0.554 0.228,-0.566 0.274,-0.566ZM0.446,-0.279C0.446,-0.322 0.434,-0.355 0.41,-0.38C0.387,-0.405 0.358,-0.417 0.324,-0.417C0.29,-0.417 0.261,-0.405 0.237,-0.38C0.214,-0.356 0.202,-0.323 0.202,-0.28C0.202,-0.237 0.214,-0.203 0.237,-0.178C0.261,-0.153 0.29,-0.141 0.324,-0.141C0.358,-0.141 0.387,-0.153 0.41,-0.178C0.434,-0.203 0.446,-0.236 0.446,-0.279Z" style="fill:url(#_Linear19);fill-rule:nonzero;"/>
                </g>
                <g transform="matrix(80,0,0,78.4,137.409,316.17)">
                    <path d="M0.148,-0.616C0.118,-0.616 0.093,-0.625 0.074,-0.642C0.055,-0.66 0.046,-0.682 0.046,-0.708C0.046,-0.735 0.055,-0.757 0.074,-0.774C0.093,-0.792 0.118,-0.801 0.148,-0.801C0.177,-0.801 0.201,-0.792 0.22,-0.774C0.239,-0.757 0.249,-0.735 0.249,-0.708C0.249,-0.682 0.239,-0.66 0.22,-0.642C0.201,-0.625 0.177,-0.616 0.148,-0.616ZM0.233,-0.558L0.233,-0L0.062,-0L0.062,-0.558L0.233,-0.558Z" style="fill:url(#_Linear20);fill-rule:nonzero;"/>
                </g>
                <g transform="matrix(80,0,0,78.4,161.009,316.17)">
                    <path d="M0.402,-0.564C0.467,-0.564 0.519,-0.543 0.558,-0.5C0.597,-0.458 0.617,-0.4 0.617,-0.326L0.617,-0L0.447,-0L0.447,-0.303C0.447,-0.34 0.437,-0.369 0.418,-0.39C0.399,-0.411 0.373,-0.421 0.34,-0.421C0.307,-0.421 0.281,-0.411 0.262,-0.39C0.243,-0.369 0.233,-0.34 0.233,-0.303L0.233,-0L0.062,-0L0.062,-0.558L0.233,-0.558L0.233,-0.484C0.25,-0.509 0.274,-0.528 0.303,-0.542C0.332,-0.557 0.365,-0.564 0.402,-0.564Z" style="fill:url(#_Linear21);fill-rule:nonzero;"/>
                </g>
                <g transform="matrix(80,0,0,78.4,214.929,316.17)">
                    <path d="M0.274,-0.566C0.313,-0.566 0.348,-0.558 0.377,-0.542C0.407,-0.526 0.43,-0.505 0.446,-0.479L0.446,-0.558L0.617,-0.558L0.617,-0.001C0.617,0.05 0.607,0.097 0.586,0.138C0.566,0.18 0.535,0.213 0.493,0.238C0.452,0.263 0.4,0.275 0.338,0.275C0.255,0.275 0.188,0.255 0.137,0.216C0.086,0.177 0.056,0.125 0.049,0.058L0.218,0.058C0.223,0.079 0.236,0.096 0.256,0.108C0.276,0.121 0.301,0.127 0.33,0.127C0.365,0.127 0.393,0.117 0.414,0.096C0.435,0.076 0.446,0.044 0.446,-0.001L0.446,-0.08C0.429,-0.054 0.406,-0.033 0.377,-0.016C0.348,0 0.313,0.008 0.274,0.008C0.228,0.008 0.186,-0.004 0.149,-0.027C0.112,-0.051 0.082,-0.085 0.06,-0.128C0.039,-0.172 0.028,-0.223 0.028,-0.28C0.028,-0.337 0.039,-0.388 0.06,-0.431C0.082,-0.474 0.112,-0.508 0.149,-0.531C0.186,-0.554 0.228,-0.566 0.274,-0.566ZM0.446,-0.279C0.446,-0.322 0.434,-0.355 0.41,-0.38C0.387,-0.405 0.358,-0.417 0.324,-0.417C0.29,-0.417 0.261,-0.405 0.237,-0.38C0.214,-0.356 0.202,-0.323 0.202,-0.28C0.202,-0.237 0.214,-0.203 0.237,-0.178C0.261,-0.153 0.29,-0.141 0.324,-0.141C0.358,-0.141 0.387,-0.153 0.41,-0.178C0.434,-0.203 0.446,-0.236 0.446,-0.279Z" style="fill:url(#_Linear22);fill-rule:nonzero;"/>
                </g>
                <g transform="matrix(80,0,0,78.4,303.169,316.17)">
                    <path d="M0.342,-0.416L0.25,-0.416L0.25,-0L0.079,-0L0.079,-0.416L0.017,-0.416L0.017,-0.558L0.079,-0.558L0.079,-0.574C0.079,-0.643 0.099,-0.695 0.138,-0.73C0.177,-0.766 0.235,-0.784 0.311,-0.784C0.324,-0.784 0.333,-0.784 0.339,-0.783L0.339,-0.638C0.306,-0.64 0.283,-0.635 0.27,-0.624C0.257,-0.613 0.25,-0.592 0.25,-0.563L0.25,-0.558L0.342,-0.558L0.342,-0.416Z" style="fill:rgb(51,51,51);fill-rule:nonzero;"/>
                </g>
                <g transform="matrix(80,0,0,78.4,331.969,316.17)">
                    <path d="M0.316,0.008C0.261,0.008 0.212,-0.004 0.168,-0.027C0.125,-0.05 0.09,-0.084 0.065,-0.127C0.04,-0.17 0.028,-0.221 0.028,-0.279C0.028,-0.336 0.041,-0.387 0.066,-0.43C0.091,-0.474 0.126,-0.508 0.17,-0.531C0.214,-0.554 0.263,-0.566 0.318,-0.566C0.373,-0.566 0.422,-0.554 0.466,-0.531C0.51,-0.508 0.545,-0.474 0.57,-0.43C0.595,-0.387 0.608,-0.336 0.608,-0.279C0.608,-0.222 0.595,-0.171 0.569,-0.127C0.544,-0.084 0.509,-0.05 0.464,-0.027C0.42,-0.004 0.371,0.008 0.316,0.008ZM0.316,-0.14C0.349,-0.14 0.376,-0.152 0.399,-0.176C0.422,-0.2 0.434,-0.234 0.434,-0.279C0.434,-0.324 0.423,-0.358 0.4,-0.382C0.378,-0.406 0.351,-0.418 0.318,-0.418C0.285,-0.418 0.257,-0.406 0.235,-0.382C0.213,-0.359 0.202,-0.324 0.202,-0.279C0.202,-0.234 0.213,-0.2 0.234,-0.176C0.256,-0.152 0.283,-0.14 0.316,-0.14Z" style="fill:rgb(51,51,51);fill-rule:nonzero;"/>
                </g>
                <g transform="matrix(80,0,0,78.4,382.929,316.17)">
                    <path d="M0.233,-0.465C0.253,-0.496 0.278,-0.52 0.308,-0.537C0.338,-0.555 0.371,-0.564 0.408,-0.564L0.408,-0.383L0.361,-0.383C0.318,-0.383 0.286,-0.374 0.265,-0.355C0.244,-0.337 0.233,-0.305 0.233,-0.259L0.233,-0L0.062,-0L0.062,-0.558L0.233,-0.558L0.233,-0.465Z" style="fill:rgb(51,51,51);fill-rule:nonzero;"/>
                </g>
                <g transform="matrix(80,0,0,78.4,-174.311,416.17)">
                    <path d="M0.499,-0.124L0.237,-0.124L0.195,-0L0.016,-0L0.27,-0.702L0.468,-0.702L0.722,-0L0.541,-0L0.499,-0.124ZM0.455,-0.256L0.368,-0.513L0.282,-0.256L0.455,-0.256Z" style="fill:rgb(51,51,51);fill-rule:nonzero;"/>
                </g>
                <g transform="matrix(80,0,0,78.4,-115.351,416.17)">
                    <path d="M0.316,0.007C0.265,0.007 0.219,-0.001 0.178,-0.018C0.137,-0.035 0.105,-0.059 0.08,-0.092C0.056,-0.125 0.043,-0.164 0.042,-0.21L0.224,-0.21C0.227,-0.184 0.236,-0.164 0.251,-0.15C0.266,-0.137 0.286,-0.13 0.311,-0.13C0.336,-0.13 0.356,-0.136 0.371,-0.147C0.386,-0.159 0.393,-0.175 0.393,-0.196C0.393,-0.213 0.387,-0.228 0.375,-0.239C0.364,-0.25 0.349,-0.26 0.332,-0.267C0.315,-0.274 0.291,-0.283 0.26,-0.292C0.215,-0.306 0.178,-0.32 0.149,-0.334C0.12,-0.348 0.096,-0.369 0.075,-0.396C0.054,-0.423 0.044,-0.459 0.044,-0.503C0.044,-0.568 0.068,-0.619 0.115,-0.656C0.162,-0.693 0.224,-0.712 0.3,-0.712C0.377,-0.712 0.44,-0.693 0.487,-0.656C0.534,-0.619 0.56,-0.568 0.563,-0.502L0.378,-0.502C0.377,-0.525 0.368,-0.542 0.353,-0.555C0.338,-0.568 0.318,-0.575 0.294,-0.575C0.273,-0.575 0.257,-0.569 0.244,-0.558C0.231,-0.547 0.225,-0.532 0.225,-0.511C0.225,-0.488 0.236,-0.471 0.257,-0.458C0.278,-0.445 0.312,-0.432 0.357,-0.417C0.402,-0.402 0.439,-0.387 0.467,-0.373C0.496,-0.359 0.52,-0.339 0.541,-0.312C0.562,-0.285 0.572,-0.251 0.572,-0.209C0.572,-0.169 0.562,-0.133 0.541,-0.1C0.521,-0.067 0.492,-0.041 0.453,-0.022C0.414,-0.003 0.369,0.007 0.316,0.007Z" style="fill:rgb(51,51,51);fill-rule:nonzero;"/>
                </g>
                <g transform="matrix(80,0,0,78.4,-66.1505,416.17)">
                    <path d="M0.597,-0.476C0.597,-0.435 0.588,-0.398 0.569,-0.364C0.55,-0.331 0.522,-0.304 0.483,-0.283C0.444,-0.262 0.396,-0.252 0.339,-0.252L0.233,-0.252L0.233,-0L0.062,-0L0.062,-0.702L0.339,-0.702C0.395,-0.702 0.442,-0.692 0.481,-0.673C0.52,-0.654 0.549,-0.627 0.568,-0.593C0.587,-0.559 0.597,-0.52 0.597,-0.476ZM0.326,-0.388C0.359,-0.388 0.383,-0.396 0.399,-0.411C0.415,-0.426 0.423,-0.448 0.423,-0.476C0.423,-0.504 0.415,-0.526 0.399,-0.541C0.383,-0.556 0.359,-0.564 0.326,-0.564L0.233,-0.564L0.233,-0.388L0.326,-0.388Z" style="fill:rgb(51,51,51);fill-rule:nonzero;"/>
                </g>
                <g transform="matrix(80,0,0,78.4,-16.2305,416.17)">
                    <path d="M0.142,0.008C0.112,0.008 0.087,-0.001 0.068,-0.018C0.049,-0.036 0.04,-0.058 0.04,-0.084C0.04,-0.111 0.049,-0.133 0.068,-0.151C0.087,-0.169 0.112,-0.178 0.142,-0.178C0.171,-0.178 0.195,-0.169 0.214,-0.151C0.233,-0.133 0.243,-0.111 0.243,-0.084C0.243,-0.058 0.233,-0.036 0.214,-0.018C0.195,-0.001 0.171,0.008 0.142,0.008Z" style="fill:rgb(51,51,51);fill-rule:nonzero;"/>
                </g>
                <g transform="matrix(80,0,0,78.4,6.32947,416.17)">
                    <path d="M0.69,-0L0.519,-0L0.233,-0.433L0.233,-0L0.062,-0L0.062,-0.702L0.233,-0.702L0.519,-0.267L0.519,-0.702L0.69,-0.702L0.69,-0Z" style="fill:rgb(51,51,51);fill-rule:nonzero;"/>
                </g>
                <g transform="matrix(80,0,0,78.4,66.4895,416.17)">
                    <path d="M0.233,-0.565L0.233,-0.423L0.462,-0.423L0.462,-0.291L0.233,-0.291L0.233,-0.137L0.492,-0.137L0.492,-0L0.062,-0L0.062,-0.702L0.492,-0.702L0.492,-0.565L0.233,-0.565Z" style="fill:rgb(51,51,51);fill-rule:nonzero;"/>
                </g>
                <g transform="matrix(80,0,0,78.4,109.769,416.17)">
                    <path d="M0.567,-0.702L0.567,-0.565L0.381,-0.565L0.381,-0L0.21,-0L0.21,-0.565L0.024,-0.565L0.024,-0.702L0.567,-0.702Z" style="fill:rgb(51,51,51);fill-rule:nonzero;"/>
                </g>
                <g transform="matrix(80,0,0,78.4,174.009,416.17)">
                    <path d="M0.033,-0.352C0.033,-0.421 0.048,-0.483 0.078,-0.537C0.108,-0.592 0.15,-0.634 0.203,-0.664C0.257,-0.695 0.318,-0.71 0.386,-0.71C0.469,-0.71 0.541,-0.688 0.6,-0.644C0.659,-0.6 0.699,-0.54 0.719,-0.464L0.531,-0.464C0.517,-0.493 0.497,-0.516 0.471,-0.531C0.446,-0.546 0.417,-0.554 0.384,-0.554C0.331,-0.554 0.289,-0.536 0.256,-0.499C0.223,-0.462 0.207,-0.413 0.207,-0.352C0.207,-0.291 0.223,-0.242 0.256,-0.205C0.289,-0.168 0.331,-0.15 0.384,-0.15C0.417,-0.15 0.446,-0.158 0.471,-0.173C0.497,-0.188 0.517,-0.211 0.531,-0.24L0.719,-0.24C0.699,-0.164 0.659,-0.104 0.6,-0.06C0.541,-0.017 0.469,0.005 0.386,0.005C0.318,0.005 0.257,-0.01 0.203,-0.04C0.15,-0.071 0.108,-0.113 0.078,-0.167C0.048,-0.221 0.033,-0.283 0.033,-0.352Z" style="fill:rgb(51,51,51);fill-rule:nonzero;"/>
                </g>
                <g transform="matrix(80,0,0,78.4,234.969,416.17)">
                    <path d="M0.316,0.008C0.261,0.008 0.212,-0.004 0.168,-0.027C0.125,-0.05 0.09,-0.084 0.065,-0.127C0.04,-0.17 0.028,-0.221 0.028,-0.279C0.028,-0.336 0.041,-0.387 0.066,-0.43C0.091,-0.474 0.126,-0.508 0.17,-0.531C0.214,-0.554 0.263,-0.566 0.318,-0.566C0.373,-0.566 0.422,-0.554 0.466,-0.531C0.51,-0.508 0.545,-0.474 0.57,-0.43C0.595,-0.387 0.608,-0.336 0.608,-0.279C0.608,-0.222 0.595,-0.171 0.569,-0.127C0.544,-0.084 0.509,-0.05 0.464,-0.027C0.42,-0.004 0.371,0.008 0.316,0.008ZM0.316,-0.14C0.349,-0.14 0.376,-0.152 0.399,-0.176C0.422,-0.2 0.434,-0.234 0.434,-0.279C0.434,-0.324 0.423,-0.358 0.4,-0.382C0.378,-0.406 0.351,-0.418 0.318,-0.418C0.285,-0.418 0.257,-0.406 0.235,-0.382C0.213,-0.359 0.202,-0.324 0.202,-0.279C0.202,-0.234 0.213,-0.2 0.234,-0.176C0.256,-0.152 0.283,-0.14 0.316,-0.14Z" style="fill:rgb(51,51,51);fill-rule:nonzero;"/>
                </g>
                <g transform="matrix(80,0,0,78.4,285.929,416.17)">
                    <path d="M0.233,-0.465C0.253,-0.496 0.278,-0.52 0.308,-0.537C0.338,-0.555 0.371,-0.564 0.408,-0.564L0.408,-0.383L0.361,-0.383C0.318,-0.383 0.286,-0.374 0.265,-0.355C0.244,-0.337 0.233,-0.305 0.233,-0.259L0.233,-0L0.062,-0L0.062,-0.558L0.233,-0.558L0.233,-0.465Z" style="fill:rgb(51,51,51);fill-rule:nonzero;"/>
                </g>
                <g transform="matrix(80,0,0,78.4,320.169,416.17)">
                    <path d="M0.588,-0.288C0.588,-0.272 0.587,-0.255 0.585,-0.238L0.198,-0.238C0.201,-0.203 0.212,-0.177 0.231,-0.158C0.251,-0.14 0.275,-0.131 0.304,-0.131C0.347,-0.131 0.376,-0.149 0.393,-0.185L0.575,-0.185C0.566,-0.148 0.549,-0.115 0.524,-0.086C0.5,-0.057 0.47,-0.034 0.433,-0.017C0.396,-0 0.355,0.008 0.31,0.008C0.255,0.008 0.207,-0.004 0.164,-0.027C0.121,-0.05 0.088,-0.084 0.064,-0.127C0.04,-0.17 0.028,-0.221 0.028,-0.279C0.028,-0.337 0.04,-0.388 0.063,-0.431C0.087,-0.474 0.12,-0.508 0.163,-0.531C0.206,-0.554 0.255,-0.566 0.31,-0.566C0.364,-0.566 0.412,-0.555 0.454,-0.532C0.496,-0.509 0.529,-0.477 0.552,-0.435C0.576,-0.393 0.588,-0.344 0.588,-0.288ZM0.413,-0.333C0.413,-0.362 0.403,-0.386 0.383,-0.403C0.363,-0.42 0.338,-0.429 0.308,-0.429C0.279,-0.429 0.255,-0.421 0.235,-0.404C0.216,-0.387 0.204,-0.364 0.199,-0.333L0.413,-0.333Z" style="fill:rgb(51,51,51);fill-rule:nonzero;"/>
                </g>
            </g>
        </g>
        <g transform="matrix(1,0,0,2.67987,0,0)">
            <g transform="matrix(1.19534,0,0,0.446043,-288.935,-28.6158)">
                <path d="M2715.62,309.76C2719.08,309.76 2721.89,312.572 2721.89,316.035C2721.89,319.497 2719.08,322.309 2715.62,322.309C2712.15,322.309 2709.34,319.497 2709.34,316.035C2709.34,312.572 2712.15,309.76 2715.62,309.76ZM2715.62,311.433C2713.08,311.433 2711.01,313.495 2711.01,316.035C2711.01,318.574 2713.08,320.636 2715.62,320.636C2718.16,320.636 2720.22,318.574 2720.22,316.035C2720.22,313.495 2718.16,311.433 2715.62,311.433Z" style="fill:rgb(79,159,73);"/>
            </g>
        </g>
        <g transform="matrix(1,0,0,2.67987,0,0)">
            <g transform="matrix(1.19534,0,0,0.446043,-237.94,-28.6158)">
                <path d="M2715.62,309.76C2719.08,309.76 2721.89,312.572 2721.89,316.035C2721.89,319.497 2719.08,322.309 2715.62,322.309C2712.15,322.309 2709.34,319.497 2709.34,316.035C2709.34,312.572 2712.15,309.76 2715.62,309.76ZM2715.62,311.433C2713.08,311.433 2711.01,313.495 2711.01,316.035C2711.01,318.574 2713.08,320.636 2715.62,320.636C2718.16,320.636 2720.22,318.574 2720.22,316.035C2720.22,313.495 2718.16,311.433 2715.62,311.433Z" style="fill:rgb(79,159,73);"/>
            </g>
        </g>
        <g transform="matrix(1,0,0,2.67987,0,0)">
            <g transform="matrix(1.19534,0,0,0.446043,-264.498,-28.6158)">
                <path d="M2715.62,309.76C2719.08,309.76 2721.89,312.572 2721.89,316.035C2721.89,319.497 2719.08,322.309 2715.62,322.309C2712.15,322.309 2709.34,319.497 2709.34,316.035C2709.34,312.572 2712.15,309.76 2715.62,309.76ZM2715.62,310.597C2712.62,310.597 2710.18,313.033 2710.18,316.035C2710.18,319.036 2712.62,321.472 2715.62,321.472C2718.62,321.472 2721.05,319.036 2721.05,316.035C2721.05,313.033 2718.62,310.597 2715.62,310.597Z" style="fill:rgb(79,159,73);"/>
            </g>
        </g>
        <g transform="matrix(1,0,0,2.67987,0,0)">
            <g transform="matrix(1.19534,0,0,0.446043,-212.94,-28.6158)">
                <path d="M2715.62,309.76C2719.08,309.76 2721.89,312.572 2721.89,316.035C2721.89,319.497 2719.08,322.309 2715.62,322.309C2712.15,322.309 2709.34,319.497 2709.34,316.035C2709.34,312.572 2712.15,309.76 2715.62,309.76ZM2715.62,311.433C2713.08,311.433 2711.01,313.495 2711.01,316.035C2711.01,318.574 2713.08,320.636 2715.62,320.636C2718.16,320.636 2720.22,318.574 2720.22,316.035C2720.22,313.495 2718.16,311.433 2715.62,311.433Z" style="fill:rgb(79,159,73);"/>
            </g>
        </g>
        <g transform="matrix(1,0,0,2.67987,0,0)">
            <g transform="matrix(1.4846,0,0,0.553983,-1476.39,-6.74001)">
                <path d="M2891.37,171.192L2887.56,171.192L2887.56,172.539L2891.37,172.539L2891.37,174.006L2887.56,174.006L2887.56,175.354L2891.37,175.354L2891.37,176.821L2887.56,176.821L2887.56,178.168L2891.37,178.168L2891.37,180.367C2891.37,180.545 2891.29,180.717 2891.17,180.843C2890.31,181.696 2886.9,185.109 2885.09,186.924C2884.89,187.117 2884.6,187.175 2884.35,187.07C2884.1,186.966 2883.94,186.721 2883.94,186.448C2883.94,181.498 2883.94,166.948 2883.94,166.948C2883.94,166.948 2875.09,156.701 2872.1,153.245C2871.93,153.045 2871.89,152.762 2872,152.523C2872.11,152.283 2872.35,152.13 2872.61,152.131C2878.08,152.162 2897.09,152.27 2902.53,152.301C2902.79,152.303 2903.03,152.457 2903.14,152.697C2903.24,152.936 2903.2,153.217 2903.03,153.416C2900.09,156.815 2891.37,166.875 2891.37,166.875L2891.37,171.192Z" style="fill:rgb(130,187,19);"/>
            </g>
        </g>
    </g>
    <defs>
        <linearGradient id="_Linear1" x1="0" y1="0" x2="1" y2="0" gradientUnits="userSpaceOnUse" gradientTransform="matrix(8.322,0,0,1.42857,0,-0.357143)"><stop offset="0" style="stop-color:rgb(141,192,12);stop-opacity:1"/><stop offset="1" style="stop-color:rgb(32,141,79);stop-opacity:1"/></linearGradient>
        <linearGradient id="_Linear2" x1="0" y1="0" x2="1" y2="0" gradientUnits="userSpaceOnUse" gradientTransform="matrix(8.322,0,0,1.42857,-0.36,-0.357143)"><stop offset="0" style="stop-color:rgb(141,192,12);stop-opacity:1"/><stop offset="1" style="stop-color:rgb(32,141,79);stop-opacity:1"/></linearGradient>
        <linearGradient id="_Linear3" x1="0" y1="0" x2="1" y2="0" gradientUnits="userSpaceOnUse" gradientTransform="matrix(8.322,0,0,1.42857,-0.655,-0.357143)"><stop offset="0" style="stop-color:rgb(141,192,12);stop-opacity:1"/><stop offset="1" style="stop-color:rgb(32,141,79);stop-opacity:1"/></linearGradient>
        <linearGradient id="_Linear4" x1="0" y1="0" x2="1" y2="0" gradientUnits="userSpaceOnUse" gradientTransform="matrix(8.322,0,0,1.42857,-1.454,-0.357143)"><stop offset="0" style="stop-color:rgb(141,192,12);stop-opacity:1"/><stop offset="1" style="stop-color:rgb(32,141,79);stop-opacity:1"/></linearGradient>
        <linearGradient id="_Linear5" x1="0" y1="0" x2="1" y2="0" gradientUnits="userSpaceOnUse" gradientTransform="matrix(8.322,0,0,1.42857,-2.07,-0.357143)"><stop offset="0" style="stop-color:rgb(141,192,12);stop-opacity:1"/><stop offset="1" style="stop-color:rgb(32,141,79);stop-opacity:1"/></linearGradient>
        <linearGradient id="_Linear6" x1="0" y1="0" x2="1" y2="0" gradientUnits="userSpaceOnUse" gradientTransform="matrix(8.322,0,0,1.42857,-2.498,-0.357143)"><stop offset="0" style="stop-color:rgb(141,192,12);stop-opacity:1"/><stop offset="1" style="stop-color:rgb(32,141,79);stop-opacity:1"/></linearGradient>
        <linearGradient id="_Linear7" x1="0" y1="0" x2="1" y2="0" gradientUnits="userSpaceOnUse" gradientTransform="matrix(8.322,0,0,1.42857,-2.793,-0.357143)"><stop offset="0" style="stop-color:rgb(141,192,12);stop-opacity:1"/><stop offset="1" style="stop-color:rgb(32,141,79);stop-opacity:1"/></linearGradient>
        <linearGradient id="_Linear8" x1="0" y1="0" x2="1" y2="0" gradientUnits="userSpaceOnUse" gradientTransform="matrix(8.322,0,0,1.42857,-3.467,-0.357143)"><stop offset="0" style="stop-color:rgb(141,192,12);stop-opacity:1"/><stop offset="1" style="stop-color:rgb(32,141,79);stop-opacity:1"/></linearGradient>
        <linearGradient id="_Linear9" x1="0" y1="0" x2="1" y2="0" gradientUnits="userSpaceOnUse" gradientTransform="matrix(8.322,0,0,1.42857,-4.146,-0.357143)"><stop offset="0" style="stop-color:rgb(141,192,12);stop-opacity:1"/><stop offset="1" style="stop-color:rgb(32,141,79);stop-opacity:1"/></linearGradient>
        <linearGradient id="_Linear10" x1="0" y1="0" x2="1" y2="0" gradientUnits="userSpaceOnUse" gradientTransform="matrix(8.322,0,0,1.42857,-4.645,-0.357143)"><stop offset="0" style="stop-color:rgb(141,192,12);stop-opacity:1"/><stop offset="1" style="stop-color:rgb(32,141,79);stop-opacity:1"/></linearGradient>
        <linearGradient id="_Linear11" x1="0" y1="0" x2="1" y2="0" gradientUnits="userSpaceOnUse" gradientTransform="matrix(8.322,0,0,1.42857,-5.203,-0.357143)"><stop offset="0" style="stop-color:rgb(141,192,12);stop-opacity:1"/><stop offset="1" style="stop-color:rgb(32,141,79);stop-opacity:1"/></linearGradient>
        <linearGradient id="_Linear12" x1="0" y1="0" x2="1" y2="0" gradientUnits="userSpaceOnUse" gradientTransform="matrix(8.322,0,0,1.42857,-5.84,-0.357143)"><stop offset="0" style="stop-color:rgb(141,192,12);stop-opacity:1"/><stop offset="1" style="stop-color:rgb(32,141,79);stop-opacity:1"/></linearGradient>
        <linearGradient id="_Linear13" x1="0" y1="0" x2="1" y2="0" gradientUnits="userSpaceOnUse" gradientTransform="matrix(8.322,0,0,1.42857,-6.268,-0.357143)"><stop offset="0" style="stop-color:rgb(141,192,12);stop-opacity:1"/><stop offset="1" style="stop-color:rgb(32,141,79);stop-opacity:1"/></linearGradient>
        <linearGradient id="_Linear14" x1="0" y1="0" x2="1" y2="0" gradientUnits="userSpaceOnUse" gradientTransform="matrix(8.322,0,0,1.42857,-6.674,-0.357143)"><stop offset="0" style="stop-color:rgb(141,192,12);stop-opacity:1"/><stop offset="1" style="stop-color:rgb(32,141,79);stop-opacity:1"/></linearGradient>
        <linearGradient id="_Linear15" x1="0" y1="0" x2="1" y2="0" gradientUnits="userSpaceOnUse" gradientTransform="matrix(8.322,0,0,1.42857,-6.969,-0.357143)"><stop offset="0" style="stop-color:rgb(141,192,12);stop-opacity:1"/><stop offset="1" style="stop-color:rgb(32,141,79);stop-opacity:1"/></linearGradient>
        <linearGradient id="_Linear16" x1="0" y1="0" x2="1" y2="0" gradientUnits="userSpaceOnUse" gradientTransform="matrix(8.322,0,0,1.42857,-7.643,-0.357143)"><stop offset="0" style="stop-color:rgb(141,192,12);stop-opacity:1"/><stop offset="1" style="stop-color:rgb(32,141,79);stop-opacity:1"/></linearGradient>
        <linearGradient id="_Linear17" x1="0" y1="0" x2="1" y2="0" gradientUnits="userSpaceOnUse" gradientTransform="matrix(3.685,0,0,1.42857,0,-0.357143)"><stop offset="0" style="stop-color:rgb(151,186,63);stop-opacity:1"/><stop offset="1" style="stop-color:rgb(32,141,79);stop-opacity:1"/></linearGradient>
        <linearGradient id="_Linear18" x1="0" y1="0" x2="1" y2="0" gradientUnits="userSpaceOnUse" gradientTransform="matrix(3.685,0,0,1.42857,-0.679,-0.357143)"><stop offset="0" style="stop-color:rgb(151,186,63);stop-opacity:1"/><stop offset="1" style="stop-color:rgb(32,141,79);stop-opacity:1"/></linearGradient>
        <linearGradient id="_Linear19" x1="0" y1="0" x2="1" y2="0" gradientUnits="userSpaceOnUse" gradientTransform="matrix(3.685,0,0,1.42857,-1.358,-0.357143)"><stop offset="0" style="stop-color:rgb(151,186,63);stop-opacity:1"/><stop offset="1" style="stop-color:rgb(32,141,79);stop-opacity:1"/></linearGradient>
        <linearGradient id="_Linear20" x1="0" y1="0" x2="1" y2="0" gradientUnits="userSpaceOnUse" gradientTransform="matrix(3.685,0,0,1.42857,-2.037,-0.357143)"><stop offset="0" style="stop-color:rgb(151,186,63);stop-opacity:1"/><stop offset="1" style="stop-color:rgb(32,141,79);stop-opacity:1"/></linearGradient>
        <linearGradient id="_Linear21" x1="0" y1="0" x2="1" y2="0" gradientUnits="userSpaceOnUse" gradientTransform="matrix(3.685,0,0,1.42857,-2.332,-0.357143)"><stop offset="0" style="stop-color:rgb(151,186,63);stop-opacity:1"/><stop offset="1" style="stop-color:rgb(32,141,79);stop-opacity:1"/></linearGradient>
        <linearGradient id="_Linear22" x1="0" y1="0" x2="1" y2="0" gradientUnits="userSpaceOnUse" gradientTransform="matrix(3.685,0,0,1.42857,-3.006,-0.357143)"><stop offset="0" style="stop-color:rgb(151,186,63);stop-opacity:1"/><stop offset="1" style="stop-color:rgb(32,141,79);stop-opacity:1"/></linearGradient>
    </defs>
</svg>
