<?xml version="1.0" encoding="UTF-8" standalone="no"?>
<!DOCTYPE svg PUBLIC "-//W3C//DTD SVG 1.1//EN" "http://www.w3.org/Graphics/SVG/1.1/DTD/svg11.dtd">
<svg width="100%" height="100%" viewBox="0 0 10 13" version="1.1" xmlns="http://www.w3.org/2000/svg" xmlns:xlink="http://www.w3.org/1999/xlink" xml:space="preserve" xmlns:serif="http://www.serif.com/" style="fill-rule:evenodd;clip-rule:evenodd;stroke-linecap:round;stroke-linejoin:round;">
    <g transform="matrix(1,0,0,1,-4274.79,-4254.6)">
        <g transform="matrix(1,0,0,0.783011,-3940,3055)">
            <g transform="matrix(0.561397,0,0,0.716972,8212.82,1531.13)">
                <path d="M16.5,10.5L16.5,6.75C16.5,4.281 14.469,2.25 12,2.25C9.531,2.25 7.5,4.281 7.5,6.75L7.5,10.5M6.75,21.75L17.25,21.75C18.484,21.75 19.5,20.734 19.5,19.5L19.5,12.75C19.5,11.516 18.484,10.5 17.25,10.5L6.75,10.5C5.516,10.5 4.5,11.516 4.5,12.75L4.5,19.5C4.5,20.734 5.516,21.75 6.75,21.75Z" style="fill:none;fill-rule:nonzero;stroke:rgb(131,131,131);stroke-width:2px;"/>
            </g>
        </g>
    </g>
</svg>
