<?xml version="1.0" encoding="UTF-8" standalone="no"?>
<!DOCTYPE svg PUBLIC "-//W3C//DTD SVG 1.1//EN" "http://www.w3.org/Graphics/SVG/1.1/DTD/svg11.dtd">
<svg width="100%" height="100%" viewBox="0 0 197 42" version="1.1" xmlns="http://www.w3.org/2000/svg" xmlns:xlink="http://www.w3.org/1999/xlink" xml:space="preserve" xmlns:serif="http://www.serif.com/" style="fill-rule:evenodd;clip-rule:evenodd;stroke-linejoin:round;stroke-miterlimit:2;">
    <g transform="matrix(1,0,0,1,-2020,-29.9261)">
        <g transform="matrix(1,0,0,2.67987,0,0)">
            <g transform="matrix(0.572769,0,0,0.21373,1583.36,-54.7173)">
                <g transform="matrix(54.2943,0,0,54.2943,759.298,364.741)">
                    <path d="M0.613,-0.47C0.613,-0.427 0.603,-0.388 0.583,-0.353C0.564,-0.318 0.534,-0.29 0.494,-0.269C0.455,-0.248 0.406,-0.238 0.349,-0.238L0.252,-0.238L0.252,-0L0.056,-0L0.056,-0.705L0.349,-0.705C0.406,-0.705 0.454,-0.695 0.493,-0.675C0.533,-0.655 0.563,-0.627 0.583,-0.592C0.603,-0.557 0.613,-0.516 0.613,-0.47ZM0.33,-0.394C0.385,-0.394 0.413,-0.419 0.413,-0.47C0.413,-0.521 0.385,-0.547 0.33,-0.547L0.252,-0.547L0.252,-0.394L0.33,-0.394Z" style="fill:rgb(51,51,51);fill-rule:nonzero;"/>
                </g>
                <g transform="matrix(54.2943,0,0,54.2943,796.544,364.741)">
                    <path d="M0.252,-0.15L0.471,-0.15L0.471,-0L0.056,-0L0.056,-0.705L0.252,-0.705L0.252,-0.15Z" style="fill:rgb(51,51,51);fill-rule:nonzero;"/>
                </g>
                <g transform="matrix(54.2943,0,0,54.2943,825.917,364.741)">
                    <path d="M0.502,-0.115L0.252,-0.115L0.214,-0L0.008,-0L0.265,-0.705L0.491,-0.705L0.747,-0L0.54,-0L0.502,-0.115ZM0.453,-0.265L0.377,-0.493L0.302,-0.265L0.453,-0.265Z" style="fill:rgb(51,51,51);fill-rule:nonzero;"/>
                </g>
                <g transform="matrix(54.2943,0,0,54.2943,869.624,364.741)">
                    <rect x="0.056" y="-0.705" width="0.196" height="0.705" style="fill:rgb(98,181,16);fill-rule:nonzero;"/>
                </g>
                <g transform="matrix(54.2943,0,0,54.2943,889.061,364.741)">
                    <path d="M0.709,-0L0.513,-0L0.252,-0.394L0.252,-0L0.056,-0L0.056,-0.705L0.252,-0.705L0.513,-0.306L0.513,-0.705L0.709,-0.705L0.709,-0Z" style="fill:rgb(51,51,51);fill-rule:nonzero;"/>
                </g>
                <g transform="matrix(54.2943,0,0,54.2943,933.311,364.741)">
                    <path d="M0.539,0.118L0.461,0.001C0.439,0.005 0.417,0.007 0.394,0.007C0.328,0.007 0.267,-0.008 0.212,-0.039C0.157,-0.07 0.113,-0.113 0.08,-0.168C0.048,-0.223 0.032,-0.286 0.032,-0.355C0.032,-0.424 0.048,-0.486 0.08,-0.541C0.113,-0.596 0.157,-0.639 0.212,-0.67C0.267,-0.701 0.328,-0.716 0.394,-0.716C0.461,-0.716 0.521,-0.701 0.576,-0.67C0.631,-0.639 0.675,-0.596 0.707,-0.541C0.739,-0.486 0.755,-0.424 0.755,-0.355C0.755,-0.297 0.743,-0.243 0.72,-0.194C0.697,-0.145 0.665,-0.105 0.624,-0.072L0.773,0.118L0.539,0.118ZM0.232,-0.355C0.232,-0.3 0.246,-0.256 0.275,-0.223C0.304,-0.191 0.343,-0.175 0.394,-0.175C0.444,-0.175 0.483,-0.191 0.512,-0.224C0.541,-0.257 0.556,-0.3 0.556,-0.355C0.556,-0.411 0.541,-0.455 0.512,-0.487C0.483,-0.52 0.444,-0.536 0.394,-0.536C0.343,-0.536 0.304,-0.52 0.275,-0.487C0.246,-0.455 0.232,-0.411 0.232,-0.355Z" style="fill:rgb(51,51,51);fill-rule:nonzero;"/>
                </g>
                <g transform="matrix(54.2943,0,0,54.2943,978.809,364.741)">
                    <path d="M0.248,-0.705L0.248,-0.296C0.248,-0.258 0.257,-0.229 0.274,-0.208C0.292,-0.187 0.319,-0.177 0.355,-0.177C0.391,-0.177 0.418,-0.187 0.436,-0.208C0.455,-0.229 0.464,-0.259 0.464,-0.296L0.464,-0.705L0.66,-0.705L0.66,-0.296C0.66,-0.231 0.646,-0.176 0.619,-0.13C0.592,-0.085 0.554,-0.05 0.507,-0.027C0.46,-0.004 0.408,0.007 0.351,0.007C0.294,0.007 0.242,-0.004 0.197,-0.027C0.152,-0.05 0.117,-0.085 0.091,-0.13C0.066,-0.175 0.053,-0.231 0.053,-0.296L0.053,-0.705L0.248,-0.705Z" style="fill:rgb(51,51,51);fill-rule:nonzero;"/>
                </g>
                <g transform="matrix(54.2943,0,0,54.2943,1020.18,364.741)">
                    <rect x="0.056" y="-0.705" width="0.196" height="0.705" style="fill:rgb(98,181,16);fill-rule:nonzero;"/>
                </g>
                <g transform="matrix(54.2943,0,0,54.2943,1039.62,364.741)">
                    <path d="M0.413,-0L0.273,-0.26L0.252,-0.26L0.252,-0L0.056,-0L0.056,-0.705L0.365,-0.705C0.422,-0.705 0.47,-0.695 0.509,-0.675C0.548,-0.656 0.578,-0.629 0.598,-0.594C0.618,-0.56 0.628,-0.522 0.628,-0.479C0.628,-0.431 0.615,-0.389 0.588,-0.352C0.562,-0.316 0.524,-0.29 0.473,-0.275L0.632,-0L0.413,-0ZM0.252,-0.394L0.349,-0.394C0.376,-0.394 0.396,-0.4 0.409,-0.413C0.422,-0.426 0.429,-0.444 0.429,-0.468C0.429,-0.491 0.422,-0.508 0.408,-0.521C0.395,-0.534 0.375,-0.541 0.349,-0.541L0.252,-0.541L0.252,-0.394Z" style="fill:rgb(51,51,51);fill-rule:nonzero;"/>
                </g>
                <g transform="matrix(54.2943,0,0,54.2943,1078.22,364.741)">
                    <path d="M0.252,-0.548L0.252,-0.433L0.477,-0.433L0.477,-0.284L0.252,-0.284L0.252,-0.157L0.507,-0.157L0.507,-0L0.056,-0L0.056,-0.705L0.507,-0.705L0.507,-0.548L0.252,-0.548Z" style="fill:rgb(51,51,51);fill-rule:nonzero;"/>
                </g>
            </g>
        </g>
        <g transform="matrix(1,0,0,2.67987,0,0)">
            <g transform="matrix(0.261173,0,0,0.389574,2015.97,-20.028)">
                <path d="M302.679,80.075C302.679,83.577 291.312,86.421 277.311,86.421L257.818,86.421C257.818,82.918 269.185,80.075 283.186,80.075L302.679,80.075Z" style="fill:url(#_Linear1);"/>
            </g>
        </g>
        <g transform="matrix(1,0,0,2.67987,0,0)">
            <g transform="matrix(-0.261173,0,0,-0.389574,2242.76,58.032)">
                <path d="M302.679,80.075C302.679,83.577 291.312,86.421 277.311,86.421L257.818,86.421C257.818,82.918 269.185,80.075 283.186,80.075L302.679,80.075Z" style="fill:url(#_Linear2);"/>
            </g>
        </g>
        <g transform="matrix(1,0,0,2.67987,0,0)">
            <g transform="matrix(-0.265829,0,0,0.389574,2243.96,-20.028)">
                <path d="M302.679,80.075C302.679,83.577 291.511,86.421 277.755,86.421L257.818,86.421C257.818,82.918 268.986,80.075 282.742,80.075L302.679,80.075Z" style="fill:url(#_Linear3);"/>
            </g>
        </g>
        <g transform="matrix(1,0,0,2.67987,0,0)">
            <g transform="matrix(0.265829,0,0,-0.389574,2014.77,58.032)">
                <path d="M302.679,80.075C302.679,83.577 291.511,86.421 277.755,86.421L257.818,86.421C257.818,82.918 268.986,80.075 282.742,80.075L302.679,80.075Z" style="fill:url(#_Linear4);"/>
            </g>
        </g>
    </g>
    <defs>
        <linearGradient id="_Linear1" x1="0" y1="0" x2="1" y2="0" gradientUnits="userSpaceOnUse" gradientTransform="matrix(-3.88455e-15,-6.34614,-63.4395,3.88589e-16,285.583,86.4207)"><stop offset="0" style="stop-color:rgb(158,211,23);stop-opacity:1"/><stop offset="1" style="stop-color:rgb(52,162,0);stop-opacity:1"/></linearGradient>
        <linearGradient id="_Linear2" x1="0" y1="0" x2="1" y2="0" gradientUnits="userSpaceOnUse" gradientTransform="matrix(-3.88455e-15,-6.34614,-63.4395,3.88589e-16,285.583,86.4207)"><stop offset="0" style="stop-color:rgb(158,211,23);stop-opacity:1"/><stop offset="1" style="stop-color:rgb(52,162,0);stop-opacity:1"/></linearGradient>
        <linearGradient id="_Linear3" x1="0" y1="0" x2="1" y2="0" gradientUnits="userSpaceOnUse" gradientTransform="matrix(-3.88455e-15,-6.34614,-63.4395,3.88589e-16,285.583,86.4207)"><stop offset="0" style="stop-color:rgb(158,211,23);stop-opacity:1"/><stop offset="1" style="stop-color:rgb(52,162,0);stop-opacity:1"/></linearGradient>
        <linearGradient id="_Linear4" x1="0" y1="0" x2="1" y2="0" gradientUnits="userSpaceOnUse" gradientTransform="matrix(-3.88455e-15,-6.34614,-63.4395,3.88589e-16,285.583,86.4207)"><stop offset="0" style="stop-color:rgb(158,211,23);stop-opacity:1"/><stop offset="1" style="stop-color:rgb(52,162,0);stop-opacity:1"/></linearGradient>
    </defs>
</svg>
