<?xml version="1.0" encoding="UTF-8" standalone="no"?>
<!DOCTYPE svg PUBLIC "-//W3C//DTD SVG 1.1//EN" "http://www.w3.org/Graphics/SVG/1.1/DTD/svg11.dtd">
<svg width="100%" height="100%" viewBox="0 0 48 44" version="1.1" xmlns="http://www.w3.org/2000/svg" xmlns:xlink="http://www.w3.org/1999/xlink" xml:space="preserve" xmlns:serif="http://www.serif.com/" style="fill-rule:evenodd;clip-rule:evenodd;stroke-linecap:round;stroke-linejoin:round;">
    <g transform="matrix(1,0,0,1,-4184,-3193.42)">
        <g transform="matrix(1,0,0,0.783011,-3940,3055)">
            <g transform="matrix(2.66667,0,0,3.40566,8116,164.005)">
                <path d="M10.5,6L20.25,6M10.5,6C10.5,6.823 9.823,7.5 9,7.5C8.177,7.5 7.5,6.823 7.5,6M10.5,6C10.5,5.177 9.823,4.5 9,4.5C8.177,4.5 7.5,5.177 7.5,6M3.75,6L7.5,6M10.5,18L20.25,18M10.5,18C10.5,18.823 9.823,19.5 9,19.5C8.177,19.5 7.5,18.823 7.5,18M10.5,18C10.5,17.177 9.823,16.5 9,16.5C8.177,16.5 7.5,17.177 7.5,18M3.75,18L7.5,18M16.5,12L20.25,12M16.5,12C16.5,12.823 15.823,13.5 15,13.5C14.177,13.5 13.5,12.823 13.5,12M16.5,12C16.5,11.177 15.823,10.5 15,10.5C14.177,10.5 13.5,11.177 13.5,12M3.75,12L13.5,12" style="fill:none;fill-rule:nonzero;stroke:url(#_Linear1);stroke-width:1.5px;"/>
            </g>
        </g>
    </g>
    <defs>
        <linearGradient id="_Linear1" x1="0" y1="0" x2="1" y2="0" gradientUnits="userSpaceOnUse" gradientTransform="matrix(16.5,0,0,15,3.75,12)"><stop offset="0" style="stop-color:rgb(158,211,23);stop-opacity:1"/><stop offset="1" style="stop-color:rgb(38,187,102);stop-opacity:1"/></linearGradient>
    </defs>
</svg>
