<?xml version="1.0" encoding="UTF-8" standalone="no"?>
<!DOCTYPE svg PUBLIC "-//W3C//DTD SVG 1.1//EN" "http://www.w3.org/Graphics/SVG/1.1/DTD/svg11.dtd">
<svg width="100%" height="100%" viewBox="0 0 56 44" version="1.1" xmlns="http://www.w3.org/2000/svg" xmlns:xlink="http://www.w3.org/1999/xlink" xml:space="preserve" xmlns:serif="http://www.serif.com/" style="fill-rule:evenodd;clip-rule:evenodd;stroke-linecap:round;stroke-linejoin:round;">
    <g transform="matrix(1,0,0,1,-4176,-3716.87)">
        <g transform="matrix(1,0,0,0.783011,-3940,3055)">
            <g transform="matrix(2.66667,0,0,3.40566,8112,832.51)">
                <path d="M3.375,19.5L20.625,19.5M3.375,19.5C2.758,19.5 2.25,18.992 2.25,18.375M3.375,19.5L10.875,19.5C11.496,19.5 12,18.996 12,18.375M2.25,18.375L2.25,5.625M2.25,18.375L2.25,16.875C2.25,16.254 2.754,15.75 3.375,15.75M21.75,18.375L21.75,5.625M21.75,18.375C21.75,18.996 21.246,19.5 20.625,19.5M21.75,18.375L21.75,16.875C21.75,16.254 21.246,15.75 20.625,15.75M20.625,19.5L13.125,19.5C12.508,19.5 12,18.992 12,18.375M21.75,5.625C21.75,5.004 21.246,4.5 20.625,4.5L3.375,4.5C2.754,4.5 2.25,5.004 2.25,5.625M21.75,5.625L21.75,7.125C21.75,7.746 21.246,8.25 20.625,8.25M2.25,5.625L2.25,7.125C2.25,7.746 2.754,8.25 3.375,8.25M3.375,8.25L20.625,8.25M3.375,8.25L10.875,8.25C11.496,8.25 12,8.754 12,9.375M3.375,8.25C2.754,8.25 2.25,8.754 2.25,9.375L2.25,10.875C2.25,11.496 2.754,12 3.375,12M20.625,8.25L13.125,8.25C12.504,8.25 12,8.754 12,9.375M20.625,8.25C21.246,8.25 21.75,8.754 21.75,9.375L21.75,10.875C21.75,11.496 21.246,12 20.625,12M3.375,12L10.875,12M3.375,12C2.754,12 2.25,12.504 2.25,13.125L2.25,14.625C2.25,15.246 2.754,15.75 3.375,15.75M12,10.875L12,9.375M12,10.875C12,11.496 11.496,12 10.875,12M12,10.875C12,11.496 12.504,12 13.125,12M10.875,12C11.496,12 12,12.504 12,13.125M13.125,12L20.625,12M13.125,12C12.504,12 12,12.504 12,13.125M20.625,12C21.246,12 21.75,12.504 21.75,13.125L21.75,14.625C21.75,15.246 21.246,15.75 20.625,15.75M3.375,15.75L10.875,15.75M12,14.625L12,13.125M12,14.625C12,15.246 11.496,15.75 10.875,15.75M12,14.625C12,15.246 12.504,15.75 13.125,15.75M10.875,15.75C11.496,15.75 12,16.254 12,16.875M12,18.375L12,16.875M12,16.875C12,16.254 12.504,15.75 13.125,15.75M13.125,15.75L20.625,15.75" style="fill:none;fill-rule:nonzero;stroke:url(#_Linear1);stroke-width:1.5px;"/>
            </g>
        </g>
    </g>
    <defs>
        <linearGradient id="_Linear1" x1="0" y1="0" x2="1" y2="0" gradientUnits="userSpaceOnUse" gradientTransform="matrix(19.5,0,0,15,2.25,12)"><stop offset="0" style="stop-color:rgb(158,211,23);stop-opacity:1"/><stop offset="1" style="stop-color:rgb(38,187,102);stop-opacity:1"/></linearGradient>
    </defs>
</svg>
