<?xml version="1.0" encoding="UTF-8" standalone="no"?>
<!DOCTYPE svg PUBLIC "-//W3C//DTD SVG 1.1//EN" "http://www.w3.org/Graphics/SVG/1.1/DTD/svg11.dtd">
<svg width="100%" height="100%" viewBox="0 0 1009 226" version="1.1" xmlns="http://www.w3.org/2000/svg" xmlns:xlink="http://www.w3.org/1999/xlink" xml:space="preserve" xmlns:serif="http://www.serif.com/" style="fill-rule:evenodd;clip-rule:evenodd;stroke-linejoin:round;stroke-miterlimit:2;">
    <g transform="matrix(1,0,0,1,-56.9019,-670.109)">
        <g id="SQL" transform="matrix(1,0,0,1,-458.127,-29.1844)">
            <g transform="matrix(2.98402,0,0,0.942012,325.705,638.585)">
                <path d="M68.489,64.446L396.285,64.446C399.059,64.446 401.327,66.714 401.327,69.488L401.327,298.944C401.327,301.719 399.058,303.987 396.285,303.987L68.489,303.987C65.715,303.987 63.446,301.719 63.446,298.944L63.446,69.488C63.446,66.714 65.715,64.446 68.489,64.446Z" style="fill:white;"/>
            </g>
            <g transform="matrix(2.98402,0,0,2.10372,325.705,563.717)">
                <path d="M68.491,64.446L396.285,64.446C399.059,64.446 401.327,66.714 401.327,69.489L401.327,87.139L63.446,87.139L63.446,69.489C63.446,66.714 65.715,64.446 68.491,64.446Z" style="fill:rgb(255,242,157);"/>
            </g>
            <g id="Filename" transform="matrix(1,0,0,1,30.3983,-361.171)">
                <g transform="matrix(25,0,0,25,499.593,1092.71)">
                    <path d="M0.636,0.132L0.497,-0.007C0.463,0.002 0.428,0.007 0.393,0.007C0.328,0.007 0.269,-0.008 0.216,-0.039C0.163,-0.069 0.121,-0.111 0.09,-0.166C0.059,-0.22 0.043,-0.281 0.043,-0.349C0.043,-0.417 0.059,-0.478 0.09,-0.533C0.121,-0.587 0.163,-0.629 0.216,-0.66C0.269,-0.69 0.328,-0.705 0.393,-0.705C0.458,-0.705 0.518,-0.69 0.571,-0.66C0.624,-0.629 0.666,-0.587 0.697,-0.533C0.728,-0.479 0.743,-0.418 0.743,-0.349C0.743,-0.282 0.728,-0.222 0.699,-0.169C0.67,-0.116 0.629,-0.074 0.578,-0.043L0.754,0.132L0.636,0.132ZM0.136,-0.349C0.136,-0.294 0.147,-0.245 0.17,-0.203C0.192,-0.161 0.223,-0.129 0.262,-0.106C0.301,-0.083 0.344,-0.072 0.393,-0.072C0.442,-0.072 0.486,-0.083 0.525,-0.106C0.564,-0.129 0.594,-0.161 0.617,-0.203C0.639,-0.245 0.65,-0.294 0.65,-0.349C0.65,-0.405 0.639,-0.454 0.617,-0.496C0.594,-0.537 0.564,-0.569 0.525,-0.592C0.486,-0.615 0.442,-0.626 0.393,-0.626C0.344,-0.626 0.3,-0.615 0.261,-0.592C0.222,-0.569 0.192,-0.537 0.17,-0.496C0.147,-0.454 0.136,-0.405 0.136,-0.349Z" style="fill-rule:nonzero;"/>
                </g>
                <g transform="matrix(25,0,0,25,519.293,1092.71)">
                    <path d="M0.563,-0.548L0.563,-0L0.472,-0L0.472,-0.081C0.455,-0.053 0.431,-0.031 0.4,-0.016C0.369,0 0.334,0.008 0.297,0.008C0.254,0.008 0.216,-0.001 0.182,-0.019C0.148,-0.036 0.121,-0.063 0.102,-0.098C0.082,-0.133 0.072,-0.176 0.072,-0.227L0.072,-0.548L0.162,-0.548L0.162,-0.239C0.162,-0.185 0.176,-0.143 0.203,-0.115C0.23,-0.086 0.268,-0.071 0.315,-0.071C0.364,-0.071 0.402,-0.086 0.43,-0.116C0.458,-0.146 0.472,-0.19 0.472,-0.247L0.472,-0.548L0.563,-0.548Z" style="fill-rule:nonzero;"/>
                </g>
                <g transform="matrix(25,0,0,25,535.293,1092.71)">
                    <path d="M0.577,-0.295C0.577,-0.278 0.576,-0.259 0.574,-0.24L0.136,-0.24C0.139,-0.186 0.158,-0.144 0.192,-0.114C0.225,-0.083 0.266,-0.068 0.314,-0.068C0.353,-0.068 0.386,-0.077 0.412,-0.096C0.439,-0.114 0.457,-0.138 0.468,-0.169L0.566,-0.169C0.551,-0.116 0.522,-0.074 0.478,-0.041C0.434,-0.008 0.379,0.009 0.314,0.009C0.262,0.009 0.216,-0.003 0.174,-0.026C0.134,-0.049 0.101,-0.083 0.078,-0.126C0.055,-0.169 0.043,-0.218 0.043,-0.275C0.043,-0.332 0.054,-0.381 0.077,-0.424C0.1,-0.467 0.132,-0.5 0.172,-0.523C0.214,-0.546 0.261,-0.557 0.314,-0.557C0.366,-0.557 0.412,-0.546 0.452,-0.523C0.492,-0.5 0.523,-0.469 0.545,-0.43C0.566,-0.39 0.577,-0.345 0.577,-0.295ZM0.483,-0.314C0.483,-0.349 0.475,-0.379 0.46,-0.404C0.445,-0.429 0.424,-0.448 0.398,-0.461C0.371,-0.473 0.342,-0.48 0.31,-0.48C0.264,-0.48 0.225,-0.465 0.193,-0.436C0.16,-0.407 0.142,-0.366 0.137,-0.314L0.483,-0.314Z" style="fill-rule:nonzero;"/>
                </g>
                <g transform="matrix(25,0,0,25,550.793,1092.71)">
                    <path d="M0.168,-0.459C0.184,-0.49 0.207,-0.515 0.236,-0.532C0.266,-0.549 0.302,-0.558 0.345,-0.558L0.345,-0.464L0.321,-0.464C0.219,-0.464 0.168,-0.409 0.168,-0.298L0.168,-0L0.077,-0L0.077,-0.548L0.168,-0.548L0.168,-0.459Z" style="fill-rule:nonzero;"/>
                </g>
                <g transform="matrix(25,0,0,25,560.118,1092.71)">
                    <path d="M0.549,-0.548L0.219,0.258L0.125,0.258L0.233,-0.006L0.012,-0.548L0.113,-0.548L0.285,-0.104L0.455,-0.548L0.549,-0.548Z" style="fill-rule:nonzero;"/>
                </g>
                <g transform="matrix(25,0,0,25,574.193,1092.71)">
                    <path d="M0.106,0.006C0.089,0.006 0.074,-0 0.062,-0.012C0.05,-0.024 0.044,-0.039 0.044,-0.056C0.044,-0.073 0.05,-0.088 0.062,-0.1C0.074,-0.112 0.089,-0.118 0.106,-0.118C0.123,-0.118 0.137,-0.112 0.149,-0.1C0.16,-0.088 0.166,-0.073 0.166,-0.056C0.166,-0.039 0.16,-0.024 0.149,-0.012C0.137,-0 0.123,0.006 0.106,0.006Z" style="fill-rule:nonzero;"/>
                </g>
                <g transform="matrix(25,0,0,25,579.443,1092.71)">
                    <path d="M0.271,0.009C0.229,0.009 0.191,0.002 0.158,-0.013C0.125,-0.027 0.098,-0.047 0.079,-0.073C0.06,-0.098 0.049,-0.128 0.047,-0.161L0.141,-0.161C0.144,-0.134 0.157,-0.111 0.18,-0.094C0.203,-0.077 0.233,-0.068 0.27,-0.068C0.305,-0.068 0.332,-0.076 0.352,-0.091C0.372,-0.106 0.382,-0.126 0.382,-0.149C0.382,-0.173 0.371,-0.191 0.35,-0.203C0.329,-0.214 0.296,-0.226 0.251,-0.237C0.21,-0.248 0.177,-0.259 0.152,-0.27C0.126,-0.281 0.104,-0.297 0.086,-0.319C0.067,-0.34 0.058,-0.369 0.058,-0.404C0.058,-0.432 0.066,-0.458 0.083,-0.481C0.1,-0.504 0.123,-0.523 0.154,-0.537C0.185,-0.55 0.22,-0.557 0.259,-0.557C0.32,-0.557 0.369,-0.542 0.406,-0.511C0.443,-0.48 0.463,-0.438 0.466,-0.385L0.375,-0.385C0.373,-0.414 0.362,-0.437 0.341,-0.454C0.32,-0.471 0.291,-0.48 0.256,-0.48C0.223,-0.48 0.197,-0.473 0.178,-0.459C0.159,-0.445 0.149,-0.427 0.149,-0.404C0.149,-0.386 0.155,-0.371 0.167,-0.36C0.178,-0.348 0.193,-0.339 0.211,-0.332C0.228,-0.325 0.253,-0.317 0.284,-0.308C0.323,-0.297 0.355,-0.287 0.38,-0.277C0.405,-0.266 0.426,-0.251 0.444,-0.23C0.461,-0.209 0.47,-0.182 0.471,-0.149C0.471,-0.119 0.463,-0.092 0.446,-0.068C0.429,-0.044 0.406,-0.025 0.376,-0.012C0.345,0.002 0.31,0.009 0.271,0.009Z" style="fill-rule:nonzero;"/>
                </g>
                <g transform="matrix(25,0,0,25,592.493,1092.71)">
                    <path d="M0.043,-0.276C0.043,-0.332 0.054,-0.381 0.077,-0.424C0.1,-0.466 0.131,-0.499 0.171,-0.522C0.21,-0.545 0.255,-0.557 0.304,-0.557C0.351,-0.557 0.393,-0.547 0.429,-0.526C0.464,-0.504 0.49,-0.479 0.507,-0.448L0.507,-0.548L0.599,-0.548L0.599,0.26L0.507,0.26L0.507,-0.101C0.49,-0.07 0.463,-0.044 0.427,-0.023C0.391,-0.002 0.349,0.009 0.301,0.009C0.253,0.009 0.209,-0.003 0.17,-0.027C0.131,-0.051 0.1,-0.085 0.077,-0.128C0.054,-0.171 0.043,-0.221 0.043,-0.276ZM0.507,-0.275C0.507,-0.316 0.499,-0.352 0.482,-0.383C0.465,-0.414 0.443,-0.437 0.414,-0.454C0.386,-0.47 0.355,-0.478 0.321,-0.478C0.287,-0.478 0.256,-0.47 0.228,-0.454C0.2,-0.438 0.178,-0.415 0.161,-0.384C0.144,-0.353 0.136,-0.317 0.136,-0.276C0.136,-0.234 0.144,-0.198 0.161,-0.167C0.178,-0.136 0.2,-0.112 0.228,-0.096C0.256,-0.079 0.287,-0.071 0.321,-0.071C0.355,-0.071 0.386,-0.079 0.414,-0.096C0.443,-0.112 0.465,-0.136 0.482,-0.167C0.499,-0.198 0.507,-0.234 0.507,-0.275Z" style="fill-rule:nonzero;"/>
                </g>
                <g transform="matrix(25,0,0,25,609.393,1092.71)">
                    <rect x="0.077" y="-0.74" width="0.091" height="0.74" style="fill-rule:nonzero;"/>
                </g>
            </g>
            <g id="SQL1" serif:id="SQL" transform="matrix(0.140107,0,0,0.140107,445.63,553.367)">
                <g transform="matrix(208.174,0,0,208.174,611.907,1662.69)">
                    <path d="M0.117,-0.143C0.142,-0.118 0.17,-0.099 0.203,-0.084C0.236,-0.069 0.27,-0.061 0.306,-0.061C0.353,-0.061 0.389,-0.071 0.414,-0.091C0.439,-0.11 0.452,-0.136 0.452,-0.168C0.452,-0.185 0.449,-0.199 0.443,-0.211C0.437,-0.222 0.429,-0.232 0.418,-0.241C0.407,-0.249 0.395,-0.256 0.381,-0.263C0.366,-0.27 0.351,-0.277 0.334,-0.284L0.24,-0.325C0.223,-0.332 0.207,-0.34 0.19,-0.349C0.173,-0.358 0.158,-0.37 0.145,-0.383C0.131,-0.396 0.12,-0.412 0.111,-0.431C0.102,-0.449 0.098,-0.47 0.098,-0.494C0.098,-0.519 0.103,-0.542 0.114,-0.563C0.125,-0.584 0.14,-0.603 0.159,-0.619C0.178,-0.634 0.2,-0.646 0.227,-0.655C0.253,-0.664 0.282,-0.668 0.313,-0.668C0.354,-0.668 0.392,-0.661 0.427,-0.646C0.462,-0.63 0.491,-0.611 0.515,-0.587L0.471,-0.533C0.45,-0.552 0.426,-0.568 0.401,-0.579C0.375,-0.59 0.346,-0.595 0.313,-0.595C0.273,-0.595 0.241,-0.587 0.218,-0.57C0.195,-0.553 0.183,-0.529 0.183,-0.499C0.183,-0.483 0.187,-0.469 0.194,-0.459C0.201,-0.448 0.21,-0.438 0.221,-0.43C0.232,-0.421 0.244,-0.414 0.258,-0.408C0.272,-0.402 0.286,-0.396 0.3,-0.39L0.392,-0.35C0.412,-0.342 0.431,-0.333 0.449,-0.323C0.466,-0.312 0.482,-0.3 0.495,-0.286C0.507,-0.273 0.518,-0.257 0.526,-0.238C0.533,-0.22 0.537,-0.199 0.537,-0.175C0.537,-0.149 0.532,-0.125 0.521,-0.102C0.51,-0.079 0.495,-0.059 0.475,-0.043C0.455,-0.025 0.431,-0.012 0.402,-0.003C0.373,0.007 0.341,0.012 0.305,0.012C0.257,0.012 0.213,0.003 0.172,-0.014C0.132,-0.031 0.097,-0.055 0.067,-0.085L0.117,-0.143Z" style="fill:rgb(0,0,255);fill-rule:nonzero;"/>
                </g>
                <g transform="matrix(208.174,0,0,208.174,736.812,1662.69)">
                    <path d="M0.115,-0.656L0.52,-0.656L0.52,-0.586L0.199,-0.586L0.199,-0.38L0.47,-0.38L0.47,-0.309L0.199,-0.309L0.199,-0.071L0.53,-0.071L0.53,-0L0.115,-0L0.115,-0.656Z" style="fill:rgb(0,0,255);fill-rule:nonzero;"/>
                </g>
                <g transform="matrix(208.174,0,0,208.174,861.716,1662.69)">
                    <path d="M0.134,-0.656L0.216,-0.656L0.216,-0.071L0.541,-0.071L0.541,-0L0.134,-0L0.134,-0.656Z" style="fill:rgb(0,0,255);fill-rule:nonzero;"/>
                </g>
                <g transform="matrix(208.174,0,0,208.174,986.621,1662.69)">
                    <path d="M0.115,-0.656L0.52,-0.656L0.52,-0.586L0.199,-0.586L0.199,-0.38L0.47,-0.38L0.47,-0.309L0.199,-0.309L0.199,-0.071L0.53,-0.071L0.53,-0L0.115,-0L0.115,-0.656Z" style="fill:rgb(0,0,255);fill-rule:nonzero;"/>
                </g>
                <g transform="matrix(208.174,0,0,208.174,1111.53,1662.69)">
                    <path d="M0.066,-0.328C0.066,-0.381 0.073,-0.428 0.087,-0.47C0.102,-0.512 0.122,-0.548 0.148,-0.577C0.174,-0.606 0.205,-0.629 0.241,-0.645C0.277,-0.66 0.316,-0.668 0.359,-0.668C0.399,-0.668 0.434,-0.66 0.464,-0.644C0.494,-0.628 0.519,-0.609 0.538,-0.588L0.491,-0.535C0.474,-0.553 0.454,-0.568 0.433,-0.579C0.412,-0.59 0.387,-0.595 0.359,-0.595C0.328,-0.595 0.299,-0.589 0.274,-0.577C0.248,-0.564 0.226,-0.547 0.208,-0.524C0.19,-0.5 0.176,-0.473 0.167,-0.44C0.157,-0.407 0.152,-0.371 0.152,-0.33C0.152,-0.289 0.157,-0.252 0.167,-0.219C0.176,-0.186 0.19,-0.157 0.208,-0.134C0.226,-0.111 0.248,-0.093 0.274,-0.08C0.299,-0.067 0.328,-0.061 0.359,-0.061C0.389,-0.061 0.416,-0.067 0.439,-0.08C0.462,-0.093 0.485,-0.111 0.506,-0.134L0.554,-0.083C0.528,-0.053 0.499,-0.03 0.466,-0.013C0.433,0.004 0.396,0.012 0.354,0.012C0.313,0.012 0.275,0.004 0.239,-0.011C0.204,-0.026 0.174,-0.049 0.149,-0.078C0.123,-0.107 0.103,-0.142 0.088,-0.185C0.073,-0.227 0.066,-0.275 0.066,-0.328Z" style="fill:rgb(0,0,255);fill-rule:nonzero;"/>
                </g>
                <g transform="matrix(208.174,0,0,208.174,1236.43,1662.69)">
                    <path d="M0.258,-0.586L0.042,-0.586L0.042,-0.656L0.558,-0.656L0.558,-0.586L0.342,-0.586L0.342,-0L0.258,-0L0.258,-0.586Z" style="fill:rgb(0,0,255);fill-rule:nonzero;"/>
                </g>
                <g transform="matrix(208.174,0,0,208.174,1486.24,1662.69)">
                    <path d="M0.155,-0.345L0.242,-0.487L0.104,-0.549L0.12,-0.595L0.265,-0.554L0.276,-0.712L0.324,-0.712L0.335,-0.555L0.48,-0.595L0.496,-0.549L0.358,-0.487L0.445,-0.345L0.403,-0.316L0.3,-0.447L0.197,-0.316L0.155,-0.345Z" style="fill:rgb(128,128,128);fill-rule:nonzero;"/>
                </g>
                <g transform="matrix(208.174,0,0,208.174,611.907,1870.86)">
                    <path d="M0.135,-0.656L0.536,-0.656L0.536,-0.586L0.218,-0.586L0.218,-0.364L0.487,-0.364L0.487,-0.294L0.218,-0.294L0.218,-0L0.135,-0L0.135,-0.656Z" style="fill:rgb(0,0,255);fill-rule:nonzero;"/>
                </g>
                <g transform="matrix(208.174,0,0,208.174,736.812,1870.86)">
                    <path d="M0.183,-0.345L0.292,-0.345C0.343,-0.345 0.383,-0.356 0.409,-0.377C0.437,-0.398 0.45,-0.429 0.45,-0.472C0.45,-0.515 0.437,-0.546 0.409,-0.563C0.383,-0.58 0.343,-0.589 0.292,-0.589L0.183,-0.589L0.183,-0.345ZM0.458,-0L0.3,-0.277L0.183,-0.277L0.183,-0L0.1,-0L0.1,-0.656L0.304,-0.656C0.337,-0.656 0.368,-0.653 0.396,-0.647C0.424,-0.64 0.448,-0.63 0.469,-0.615C0.489,-0.6 0.505,-0.581 0.516,-0.558C0.527,-0.535 0.533,-0.506 0.533,-0.472C0.533,-0.421 0.52,-0.38 0.493,-0.349C0.466,-0.318 0.431,-0.297 0.386,-0.286L0.553,-0L0.458,-0Z" style="fill:rgb(0,0,255);fill-rule:nonzero;"/>
                </g>
                <g transform="matrix(208.174,0,0,208.174,861.716,1870.86)">
                    <path d="M0.3,0.012C0.263,0.012 0.229,0.004 0.198,-0.012C0.167,-0.028 0.141,-0.051 0.118,-0.081C0.096,-0.11 0.079,-0.146 0.067,-0.189C0.054,-0.231 0.048,-0.278 0.048,-0.331C0.048,-0.384 0.054,-0.431 0.067,-0.472C0.079,-0.514 0.096,-0.55 0.118,-0.579C0.141,-0.608 0.167,-0.63 0.198,-0.645C0.229,-0.66 0.263,-0.668 0.3,-0.668C0.337,-0.668 0.371,-0.66 0.402,-0.645C0.433,-0.629 0.459,-0.607 0.482,-0.578C0.504,-0.549 0.521,-0.513 0.534,-0.471C0.546,-0.43 0.552,-0.383 0.552,-0.331C0.552,-0.278 0.546,-0.231 0.534,-0.189C0.521,-0.146 0.504,-0.11 0.482,-0.081C0.459,-0.051 0.433,-0.028 0.402,-0.012C0.371,0.004 0.337,0.012 0.3,0.012ZM0.3,-0.061C0.325,-0.061 0.347,-0.067 0.368,-0.08C0.389,-0.093 0.406,-0.111 0.421,-0.135C0.435,-0.158 0.446,-0.187 0.454,-0.22C0.462,-0.253 0.466,-0.29 0.466,-0.331C0.466,-0.372 0.462,-0.408 0.454,-0.441C0.446,-0.474 0.435,-0.501 0.421,-0.524C0.406,-0.547 0.389,-0.564 0.368,-0.577C0.347,-0.589 0.325,-0.595 0.3,-0.595C0.275,-0.595 0.252,-0.589 0.232,-0.577C0.211,-0.564 0.194,-0.547 0.18,-0.524C0.165,-0.501 0.154,-0.474 0.146,-0.441C0.138,-0.408 0.134,-0.372 0.134,-0.331C0.134,-0.29 0.138,-0.253 0.146,-0.22C0.154,-0.187 0.165,-0.158 0.18,-0.135C0.194,-0.111 0.211,-0.093 0.232,-0.08C0.252,-0.067 0.275,-0.061 0.3,-0.061Z" style="fill:rgb(0,0,255);fill-rule:nonzero;"/>
                </g>
                <g transform="matrix(208.174,0,0,208.174,986.621,1870.86)">
                    <path d="M0.081,-0.656L0.173,-0.656L0.266,-0.377L0.299,-0.271L0.303,-0.271L0.335,-0.377L0.427,-0.656L0.519,-0.656L0.519,-0L0.448,-0L0.448,-0.369C0.448,-0.382 0.448,-0.398 0.449,-0.416C0.45,-0.434 0.451,-0.452 0.452,-0.47C0.453,-0.489 0.454,-0.507 0.455,-0.525C0.456,-0.542 0.457,-0.558 0.458,-0.571L0.455,-0.571L0.412,-0.431L0.322,-0.178L0.277,-0.178L0.187,-0.431L0.143,-0.571L0.14,-0.571C0.141,-0.558 0.142,-0.542 0.143,-0.525C0.144,-0.507 0.146,-0.489 0.147,-0.47C0.148,-0.452 0.149,-0.434 0.15,-0.416C0.151,-0.398 0.151,-0.382 0.151,-0.369L0.151,-0L0.081,-0L0.081,-0.656Z" style="fill:rgb(0,0,255);fill-rule:nonzero;"/>
                </g>
                <g transform="matrix(208.174,0,0,208.174,1236.43,1870.86)">
                    <path d="M0.066,-0.328C0.066,-0.381 0.073,-0.428 0.087,-0.47C0.102,-0.512 0.122,-0.548 0.148,-0.577C0.174,-0.606 0.205,-0.629 0.241,-0.645C0.277,-0.66 0.316,-0.668 0.359,-0.668C0.399,-0.668 0.434,-0.66 0.464,-0.644C0.494,-0.628 0.519,-0.609 0.538,-0.588L0.491,-0.535C0.474,-0.553 0.454,-0.568 0.433,-0.579C0.412,-0.59 0.387,-0.595 0.359,-0.595C0.328,-0.595 0.299,-0.589 0.274,-0.577C0.248,-0.564 0.226,-0.547 0.208,-0.524C0.19,-0.5 0.176,-0.473 0.167,-0.44C0.157,-0.407 0.152,-0.371 0.152,-0.33C0.152,-0.289 0.157,-0.252 0.167,-0.219C0.176,-0.186 0.19,-0.157 0.208,-0.134C0.226,-0.111 0.248,-0.093 0.274,-0.08C0.299,-0.067 0.328,-0.061 0.359,-0.061C0.389,-0.061 0.416,-0.067 0.439,-0.08C0.462,-0.093 0.485,-0.111 0.506,-0.134L0.554,-0.083C0.528,-0.053 0.499,-0.03 0.466,-0.013C0.433,0.004 0.396,0.012 0.354,0.012C0.313,0.012 0.275,0.004 0.239,-0.011C0.204,-0.026 0.174,-0.049 0.149,-0.078C0.123,-0.107 0.103,-0.142 0.088,-0.185C0.073,-0.227 0.066,-0.275 0.066,-0.328Z" style="fill-rule:nonzero;"/>
                </g>
                <g transform="matrix(208.174,0,0,208.174,1361.33,1870.86)">
                    <path d="M0.505,-0L0.438,-0L0.431,-0.085L0.427,-0.085C0.402,-0.056 0.376,-0.033 0.346,-0.015C0.318,0.003 0.284,0.012 0.246,0.012C0.187,0.012 0.145,-0.005 0.117,-0.038C0.091,-0.07 0.077,-0.119 0.077,-0.184L0.077,-0.486L0.16,-0.486L0.16,-0.195C0.16,-0.149 0.169,-0.115 0.186,-0.093C0.203,-0.07 0.231,-0.059 0.272,-0.059C0.3,-0.059 0.325,-0.066 0.348,-0.081C0.371,-0.095 0.396,-0.118 0.423,-0.149L0.423,-0.486L0.505,-0.486L0.505,-0Z" style="fill-rule:nonzero;"/>
                </g>
                <g transform="matrix(208.174,0,0,208.174,1486.24,1870.86)">
                    <path d="M0.112,-0.118C0.139,-0.098 0.169,-0.082 0.2,-0.07C0.231,-0.058 0.269,-0.052 0.313,-0.052C0.357,-0.052 0.39,-0.059 0.411,-0.074C0.432,-0.089 0.443,-0.107 0.443,-0.128C0.443,-0.147 0.432,-0.163 0.408,-0.178C0.386,-0.193 0.344,-0.207 0.285,-0.222C0.26,-0.228 0.236,-0.235 0.214,-0.244C0.191,-0.253 0.172,-0.263 0.155,-0.275C0.138,-0.286 0.125,-0.299 0.115,-0.313C0.105,-0.327 0.1,-0.343 0.1,-0.36C0.1,-0.379 0.104,-0.398 0.113,-0.414C0.122,-0.432 0.135,-0.446 0.152,-0.459C0.169,-0.471 0.19,-0.481 0.216,-0.488C0.241,-0.495 0.271,-0.498 0.304,-0.498C0.341,-0.498 0.376,-0.492 0.411,-0.48C0.446,-0.467 0.475,-0.453 0.499,-0.436L0.459,-0.383C0.438,-0.398 0.414,-0.411 0.388,-0.42C0.362,-0.429 0.334,-0.434 0.304,-0.434C0.281,-0.434 0.262,-0.432 0.247,-0.429C0.232,-0.425 0.219,-0.42 0.21,-0.413C0.201,-0.407 0.194,-0.4 0.19,-0.391C0.186,-0.382 0.184,-0.373 0.184,-0.364C0.184,-0.344 0.198,-0.328 0.225,-0.315C0.252,-0.302 0.288,-0.289 0.332,-0.278C0.398,-0.261 0.447,-0.242 0.478,-0.221C0.51,-0.2 0.526,-0.17 0.526,-0.133C0.526,-0.113 0.521,-0.094 0.512,-0.077C0.503,-0.06 0.489,-0.044 0.47,-0.031C0.452,-0.018 0.43,-0.007 0.403,0C0.376,0.008 0.345,0.012 0.31,0.012C0.262,0.012 0.218,0.004 0.178,-0.011C0.137,-0.025 0.102,-0.043 0.072,-0.064L0.112,-0.118Z" style="fill-rule:nonzero;"/>
                </g>
                <g transform="matrix(208.174,0,0,208.174,1611.14,1870.86)">
                    <path d="M0.206,-0.419L0.069,-0.419L0.069,-0.481L0.209,-0.486L0.22,-0.622L0.288,-0.622L0.288,-0.486L0.526,-0.486L0.526,-0.419L0.288,-0.419L0.288,-0.188C0.288,-0.166 0.29,-0.147 0.294,-0.131C0.298,-0.114 0.305,-0.1 0.314,-0.089C0.323,-0.078 0.336,-0.069 0.352,-0.064C0.368,-0.058 0.388,-0.055 0.411,-0.055C0.434,-0.055 0.455,-0.057 0.474,-0.061C0.493,-0.065 0.511,-0.07 0.528,-0.077L0.545,-0.017C0.524,-0.009 0.5,-0.002 0.473,0.003C0.446,0.009 0.42,0.012 0.393,0.012C0.358,0.012 0.328,0.007 0.304,-0.003C0.28,-0.012 0.261,-0.026 0.247,-0.043C0.232,-0.061 0.222,-0.082 0.216,-0.107C0.209,-0.132 0.206,-0.159 0.206,-0.189L0.206,-0.419Z" style="fill-rule:nonzero;"/>
                </g>
                <g transform="matrix(208.174,0,0,208.174,1736.05,1870.86)">
                    <path d="M0.06,-0.242C0.06,-0.283 0.067,-0.319 0.08,-0.35C0.093,-0.382 0.11,-0.409 0.132,-0.431C0.154,-0.453 0.18,-0.47 0.209,-0.481C0.237,-0.492 0.268,-0.498 0.3,-0.498C0.332,-0.498 0.363,-0.492 0.392,-0.481C0.421,-0.47 0.446,-0.453 0.468,-0.431C0.49,-0.409 0.507,-0.382 0.521,-0.35C0.534,-0.319 0.54,-0.283 0.54,-0.242C0.54,-0.202 0.534,-0.166 0.521,-0.135C0.507,-0.103 0.49,-0.076 0.468,-0.055C0.446,-0.033 0.421,-0.016 0.392,-0.005C0.363,0.006 0.332,0.012 0.3,0.012C0.268,0.012 0.237,0.006 0.209,-0.005C0.18,-0.016 0.154,-0.033 0.132,-0.055C0.11,-0.076 0.093,-0.103 0.08,-0.135C0.067,-0.166 0.06,-0.202 0.06,-0.242ZM0.145,-0.242C0.145,-0.214 0.149,-0.189 0.156,-0.166C0.163,-0.143 0.174,-0.124 0.188,-0.108C0.201,-0.091 0.218,-0.079 0.236,-0.07C0.256,-0.061 0.277,-0.056 0.3,-0.056C0.323,-0.056 0.344,-0.061 0.364,-0.07C0.383,-0.079 0.399,-0.091 0.412,-0.108C0.426,-0.124 0.437,-0.143 0.444,-0.166C0.451,-0.189 0.455,-0.214 0.455,-0.242C0.455,-0.27 0.451,-0.296 0.444,-0.319C0.437,-0.342 0.426,-0.361 0.412,-0.378C0.399,-0.395 0.383,-0.407 0.364,-0.417C0.344,-0.426 0.323,-0.43 0.3,-0.43C0.277,-0.43 0.256,-0.426 0.236,-0.417C0.218,-0.407 0.201,-0.395 0.188,-0.378C0.174,-0.361 0.163,-0.342 0.156,-0.319C0.149,-0.296 0.145,-0.27 0.145,-0.242Z" style="fill-rule:nonzero;"/>
                </g>
                <g transform="matrix(208.174,0,0,208.174,1860.95,1870.86)">
                    <path d="M0.06,-0.486L0.124,-0.486L0.131,-0.422L0.134,-0.422C0.146,-0.445 0.16,-0.463 0.177,-0.477C0.193,-0.491 0.215,-0.498 0.243,-0.498C0.292,-0.498 0.323,-0.47 0.335,-0.414C0.35,-0.439 0.366,-0.46 0.383,-0.475C0.4,-0.49 0.423,-0.498 0.45,-0.498C0.484,-0.498 0.51,-0.485 0.529,-0.46C0.547,-0.434 0.556,-0.397 0.556,-0.348L0.556,-0L0.477,-0L0.477,-0.341C0.477,-0.398 0.459,-0.427 0.424,-0.427C0.407,-0.427 0.392,-0.421 0.379,-0.408C0.366,-0.396 0.354,-0.377 0.341,-0.352L0.341,-0L0.275,-0L0.275,-0.341C0.275,-0.398 0.257,-0.427 0.22,-0.427C0.203,-0.427 0.188,-0.421 0.176,-0.408C0.164,-0.396 0.152,-0.377 0.139,-0.352L0.139,-0L0.06,-0L0.06,-0.486Z" style="fill-rule:nonzero;"/>
                </g>
                <g transform="matrix(208.174,0,0,208.174,1985.86,1870.86)">
                    <path d="M0.069,-0.242C0.069,-0.282 0.076,-0.318 0.09,-0.349C0.104,-0.381 0.123,-0.408 0.146,-0.43C0.169,-0.452 0.195,-0.469 0.225,-0.481C0.254,-0.492 0.285,-0.498 0.316,-0.498C0.351,-0.498 0.382,-0.493 0.409,-0.482C0.436,-0.47 0.46,-0.455 0.478,-0.435C0.498,-0.415 0.512,-0.391 0.522,-0.363C0.532,-0.335 0.537,-0.304 0.537,-0.27C0.537,-0.252 0.536,-0.237 0.534,-0.225L0.154,-0.225C0.157,-0.172 0.176,-0.131 0.21,-0.1C0.243,-0.069 0.287,-0.054 0.34,-0.054C0.369,-0.054 0.395,-0.058 0.419,-0.066C0.442,-0.074 0.465,-0.085 0.488,-0.099L0.517,-0.045C0.493,-0.03 0.466,-0.016 0.435,-0.005C0.404,0.006 0.369,0.012 0.33,0.012C0.294,0.012 0.26,0.006 0.229,-0.006C0.197,-0.017 0.169,-0.034 0.146,-0.056C0.122,-0.077 0.103,-0.104 0.09,-0.135C0.076,-0.166 0.069,-0.202 0.069,-0.242ZM0.461,-0.279C0.461,-0.329 0.448,-0.367 0.423,-0.394C0.398,-0.42 0.362,-0.433 0.317,-0.433C0.297,-0.433 0.278,-0.43 0.26,-0.423C0.241,-0.416 0.225,-0.406 0.21,-0.393C0.195,-0.38 0.183,-0.364 0.172,-0.344C0.162,-0.326 0.156,-0.304 0.153,-0.279L0.461,-0.279Z" style="fill-rule:nonzero;"/>
                </g>
                <g transform="matrix(208.174,0,0,208.174,2110.76,1870.86)">
                    <path d="M0.146,-0.486L0.214,-0.486L0.221,-0.371L0.224,-0.371C0.249,-0.41 0.281,-0.441 0.318,-0.464C0.355,-0.487 0.396,-0.498 0.441,-0.498C0.459,-0.498 0.475,-0.497 0.491,-0.494C0.505,-0.491 0.521,-0.485 0.536,-0.478L0.519,-0.407C0.502,-0.413 0.487,-0.417 0.475,-0.42C0.463,-0.423 0.447,-0.424 0.428,-0.424C0.391,-0.424 0.356,-0.413 0.323,-0.393C0.289,-0.372 0.257,-0.336 0.228,-0.285L0.228,-0L0.146,-0L0.146,-0.486Z" style="fill-rule:nonzero;"/>
                </g>
                <g transform="matrix(208.174,0,0,208.174,2235.66,1870.86)">
                    <path d="M0.112,-0.118C0.139,-0.098 0.169,-0.082 0.2,-0.07C0.231,-0.058 0.269,-0.052 0.313,-0.052C0.357,-0.052 0.39,-0.059 0.411,-0.074C0.432,-0.089 0.443,-0.107 0.443,-0.128C0.443,-0.147 0.432,-0.163 0.408,-0.178C0.386,-0.193 0.344,-0.207 0.285,-0.222C0.26,-0.228 0.236,-0.235 0.214,-0.244C0.191,-0.253 0.172,-0.263 0.155,-0.275C0.138,-0.286 0.125,-0.299 0.115,-0.313C0.105,-0.327 0.1,-0.343 0.1,-0.36C0.1,-0.379 0.104,-0.398 0.113,-0.414C0.122,-0.432 0.135,-0.446 0.152,-0.459C0.169,-0.471 0.19,-0.481 0.216,-0.488C0.241,-0.495 0.271,-0.498 0.304,-0.498C0.341,-0.498 0.376,-0.492 0.411,-0.48C0.446,-0.467 0.475,-0.453 0.499,-0.436L0.459,-0.383C0.438,-0.398 0.414,-0.411 0.388,-0.42C0.362,-0.429 0.334,-0.434 0.304,-0.434C0.281,-0.434 0.262,-0.432 0.247,-0.429C0.232,-0.425 0.219,-0.42 0.21,-0.413C0.201,-0.407 0.194,-0.4 0.19,-0.391C0.186,-0.382 0.184,-0.373 0.184,-0.364C0.184,-0.344 0.198,-0.328 0.225,-0.315C0.252,-0.302 0.288,-0.289 0.332,-0.278C0.398,-0.261 0.447,-0.242 0.478,-0.221C0.51,-0.2 0.526,-0.17 0.526,-0.133C0.526,-0.113 0.521,-0.094 0.512,-0.077C0.503,-0.06 0.489,-0.044 0.47,-0.031C0.452,-0.018 0.43,-0.007 0.403,0C0.376,0.008 0.345,0.012 0.31,0.012C0.262,0.012 0.218,0.004 0.178,-0.011C0.137,-0.025 0.102,-0.043 0.072,-0.064L0.112,-0.118Z" style="fill-rule:nonzero;"/>
                </g>
                <g transform="matrix(208.174,0,0,208.174,611.907,2079.04)">
                    <path d="M0.01,-0.657L0.093,-0.657L0.146,-0.245C0.147,-0.217 0.15,-0.19 0.153,-0.164C0.156,-0.137 0.158,-0.11 0.16,-0.083L0.163,-0.083C0.17,-0.11 0.178,-0.137 0.185,-0.164C0.192,-0.191 0.198,-0.218 0.205,-0.245L0.274,-0.487L0.333,-0.487L0.402,-0.245C0.408,-0.218 0.414,-0.192 0.422,-0.165C0.429,-0.138 0.436,-0.11 0.443,-0.083L0.447,-0.083C0.449,-0.11 0.451,-0.137 0.454,-0.164C0.457,-0.191 0.459,-0.218 0.461,-0.245L0.511,-0.657L0.59,-0.657L0.493,-0L0.401,-0L0.326,-0.275C0.321,-0.294 0.317,-0.314 0.313,-0.334C0.309,-0.354 0.305,-0.374 0.302,-0.393L0.299,-0.393C0.295,-0.374 0.291,-0.354 0.287,-0.334C0.283,-0.314 0.278,-0.294 0.273,-0.275L0.201,-0L0.111,-0L0.01,-0.657Z" style="fill:rgb(0,0,255);fill-rule:nonzero;"/>
                </g>
                <g transform="matrix(208.174,0,0,208.174,736.812,2079.04)">
                    <path d="M0.079,-0.656L0.163,-0.656L0.163,-0.381L0.437,-0.381L0.437,-0.656L0.521,-0.656L0.521,-0L0.437,-0L0.437,-0.309L0.163,-0.309L0.163,-0L0.079,-0L0.079,-0.656Z" style="fill:rgb(0,0,255);fill-rule:nonzero;"/>
                </g>
                <g transform="matrix(208.174,0,0,208.174,861.716,2079.04)">
                    <path d="M0.115,-0.656L0.52,-0.656L0.52,-0.586L0.199,-0.586L0.199,-0.38L0.47,-0.38L0.47,-0.309L0.199,-0.309L0.199,-0.071L0.53,-0.071L0.53,-0L0.115,-0L0.115,-0.656Z" style="fill:rgb(0,0,255);fill-rule:nonzero;"/>
                </g>
                <g transform="matrix(208.174,0,0,208.174,986.621,2079.04)">
                    <path d="M0.183,-0.345L0.292,-0.345C0.343,-0.345 0.383,-0.356 0.409,-0.377C0.437,-0.398 0.45,-0.429 0.45,-0.472C0.45,-0.515 0.437,-0.546 0.409,-0.563C0.383,-0.58 0.343,-0.589 0.292,-0.589L0.183,-0.589L0.183,-0.345ZM0.458,-0L0.3,-0.277L0.183,-0.277L0.183,-0L0.1,-0L0.1,-0.656L0.304,-0.656C0.337,-0.656 0.368,-0.653 0.396,-0.647C0.424,-0.64 0.448,-0.63 0.469,-0.615C0.489,-0.6 0.505,-0.581 0.516,-0.558C0.527,-0.535 0.533,-0.506 0.533,-0.472C0.533,-0.421 0.52,-0.38 0.493,-0.349C0.466,-0.318 0.431,-0.297 0.386,-0.286L0.553,-0L0.458,-0Z" style="fill:rgb(0,0,255);fill-rule:nonzero;"/>
                </g>
                <g transform="matrix(208.174,0,0,208.174,1111.53,2079.04)">
                    <path d="M0.115,-0.656L0.52,-0.656L0.52,-0.586L0.199,-0.586L0.199,-0.38L0.47,-0.38L0.47,-0.309L0.199,-0.309L0.199,-0.071L0.53,-0.071L0.53,-0L0.115,-0L0.115,-0.656Z" style="fill:rgb(0,0,255);fill-rule:nonzero;"/>
                </g>
                <g transform="matrix(208.174,0,0,208.174,1361.33,2079.04)">
                    <path d="M0.079,-0.656L0.163,-0.656L0.163,-0.246C0.163,-0.212 0.167,-0.183 0.173,-0.16C0.181,-0.136 0.19,-0.117 0.203,-0.102C0.215,-0.088 0.229,-0.078 0.246,-0.071C0.263,-0.064 0.281,-0.061 0.301,-0.061C0.321,-0.061 0.339,-0.064 0.356,-0.071C0.373,-0.078 0.387,-0.088 0.4,-0.102C0.413,-0.117 0.423,-0.136 0.43,-0.16C0.437,-0.183 0.44,-0.212 0.44,-0.246L0.44,-0.656L0.521,-0.656L0.521,-0.248C0.521,-0.201 0.516,-0.161 0.504,-0.128C0.494,-0.095 0.478,-0.069 0.459,-0.048C0.44,-0.027 0.417,-0.011 0.39,-0.002C0.363,0.007 0.333,0.012 0.301,0.012C0.269,0.012 0.239,0.007 0.212,-0.002C0.185,-0.011 0.161,-0.027 0.141,-0.048C0.122,-0.069 0.107,-0.095 0.096,-0.128C0.085,-0.161 0.079,-0.201 0.079,-0.248L0.079,-0.656Z" style="fill:rgb(255,0,255);fill-rule:nonzero;"/>
                </g>
                <g transform="matrix(208.174,0,0,208.174,1486.24,2079.04)">
                    <path d="M0.102,-0.656L0.303,-0.656C0.339,-0.656 0.372,-0.653 0.402,-0.646C0.432,-0.639 0.458,-0.628 0.478,-0.614C0.5,-0.599 0.516,-0.579 0.528,-0.554C0.539,-0.529 0.545,-0.499 0.545,-0.463C0.545,-0.428 0.539,-0.398 0.528,-0.373C0.516,-0.348 0.499,-0.327 0.478,-0.31C0.457,-0.293 0.431,-0.281 0.402,-0.273C0.372,-0.264 0.339,-0.26 0.303,-0.26L0.185,-0.26L0.185,-0L0.102,-0L0.102,-0.656ZM0.292,-0.328C0.35,-0.328 0.393,-0.339 0.421,-0.361C0.448,-0.382 0.462,-0.416 0.462,-0.463C0.462,-0.51 0.448,-0.543 0.42,-0.562C0.391,-0.58 0.349,-0.589 0.292,-0.589L0.185,-0.589L0.185,-0.328L0.292,-0.328Z" style="fill:rgb(255,0,255);fill-rule:nonzero;"/>
                </g>
                <g transform="matrix(208.174,0,0,208.174,1611.14,2079.04)">
                    <path d="M0.102,-0.656L0.303,-0.656C0.339,-0.656 0.372,-0.653 0.402,-0.646C0.432,-0.639 0.458,-0.628 0.478,-0.614C0.5,-0.599 0.516,-0.579 0.528,-0.554C0.539,-0.529 0.545,-0.499 0.545,-0.463C0.545,-0.428 0.539,-0.398 0.528,-0.373C0.516,-0.348 0.499,-0.327 0.478,-0.31C0.457,-0.293 0.431,-0.281 0.402,-0.273C0.372,-0.264 0.339,-0.26 0.303,-0.26L0.185,-0.26L0.185,-0L0.102,-0L0.102,-0.656ZM0.292,-0.328C0.35,-0.328 0.393,-0.339 0.421,-0.361C0.448,-0.382 0.462,-0.416 0.462,-0.463C0.462,-0.51 0.448,-0.543 0.42,-0.562C0.391,-0.58 0.349,-0.589 0.292,-0.589L0.185,-0.589L0.185,-0.328L0.292,-0.328Z" style="fill:rgb(255,0,255);fill-rule:nonzero;"/>
                </g>
                <g transform="matrix(208.174,0,0,208.174,1736.05,2079.04)">
                    <path d="M0.115,-0.656L0.52,-0.656L0.52,-0.586L0.199,-0.586L0.199,-0.38L0.47,-0.38L0.47,-0.309L0.199,-0.309L0.199,-0.071L0.53,-0.071L0.53,-0L0.115,-0L0.115,-0.656Z" style="fill:rgb(255,0,255);fill-rule:nonzero;"/>
                </g>
                <g transform="matrix(208.174,0,0,208.174,1860.95,2079.04)">
                    <path d="M0.183,-0.345L0.292,-0.345C0.343,-0.345 0.383,-0.356 0.409,-0.377C0.437,-0.398 0.45,-0.429 0.45,-0.472C0.45,-0.515 0.437,-0.546 0.409,-0.563C0.383,-0.58 0.343,-0.589 0.292,-0.589L0.183,-0.589L0.183,-0.345ZM0.458,-0L0.3,-0.277L0.183,-0.277L0.183,-0L0.1,-0L0.1,-0.656L0.304,-0.656C0.337,-0.656 0.368,-0.653 0.396,-0.647C0.424,-0.64 0.448,-0.63 0.469,-0.615C0.489,-0.6 0.505,-0.581 0.516,-0.558C0.527,-0.535 0.533,-0.506 0.533,-0.472C0.533,-0.421 0.52,-0.38 0.493,-0.349C0.466,-0.318 0.431,-0.297 0.386,-0.286L0.553,-0L0.458,-0Z" style="fill:rgb(255,0,255);fill-rule:nonzero;"/>
                </g>
                <g transform="matrix(208.174,0,0,208.174,1985.86,2079.04)">
                    <path d="M0.433,0.176C0.364,0.122 0.309,0.057 0.269,-0.019C0.228,-0.095 0.208,-0.181 0.208,-0.278C0.208,-0.375 0.228,-0.461 0.269,-0.537C0.309,-0.613 0.364,-0.678 0.433,-0.732L0.478,-0.69C0.411,-0.633 0.361,-0.572 0.33,-0.505C0.298,-0.438 0.282,-0.363 0.282,-0.278C0.282,-0.193 0.298,-0.118 0.33,-0.051C0.361,0.016 0.411,0.077 0.478,0.134L0.433,0.176Z" style="fill:rgb(128,128,128);fill-rule:nonzero;"/>
                </g>
                <g transform="matrix(208.174,0,0,208.174,2110.76,2079.04)">
                    <path d="M0.083,-0.656L0.168,-0.656L0.381,-0.242L0.447,-0.108L0.449,-0.108C0.448,-0.141 0.446,-0.175 0.443,-0.211C0.44,-0.246 0.438,-0.281 0.438,-0.316L0.438,-0.656L0.517,-0.656L0.517,-0L0.432,-0L0.219,-0.414L0.153,-0.548L0.151,-0.548C0.152,-0.514 0.155,-0.48 0.158,-0.446C0.161,-0.411 0.162,-0.377 0.162,-0.343L0.162,-0L0.083,-0L0.083,-0.656Z" style="fill-rule:nonzero;"/>
                </g>
                <g transform="matrix(208.174,0,0,208.174,2235.66,2079.04)">
                    <path d="M0.081,-0.126C0.081,-0.153 0.087,-0.177 0.101,-0.198C0.114,-0.218 0.134,-0.235 0.163,-0.25C0.191,-0.265 0.227,-0.277 0.272,-0.286C0.317,-0.295 0.37,-0.303 0.433,-0.308C0.432,-0.325 0.43,-0.34 0.425,-0.355C0.42,-0.37 0.413,-0.383 0.403,-0.394C0.393,-0.405 0.38,-0.413 0.364,-0.42C0.347,-0.427 0.327,-0.43 0.304,-0.43C0.272,-0.43 0.241,-0.424 0.212,-0.411C0.183,-0.399 0.157,-0.386 0.134,-0.372L0.102,-0.428C0.114,-0.436 0.128,-0.444 0.145,-0.453C0.161,-0.461 0.178,-0.468 0.197,-0.475C0.215,-0.482 0.234,-0.487 0.255,-0.492C0.276,-0.496 0.297,-0.498 0.318,-0.498C0.385,-0.498 0.434,-0.48 0.467,-0.444C0.499,-0.407 0.515,-0.359 0.515,-0.298L0.515,-0L0.448,-0L0.441,-0.066L0.438,-0.066C0.411,-0.045 0.381,-0.026 0.347,-0.011C0.315,0.004 0.281,0.012 0.246,0.012C0.223,0.012 0.202,0.009 0.182,0.002C0.162,-0.004 0.145,-0.013 0.13,-0.025C0.115,-0.036 0.103,-0.051 0.094,-0.068C0.085,-0.085 0.081,-0.104 0.081,-0.126ZM0.161,-0.132C0.161,-0.118 0.164,-0.106 0.17,-0.097C0.176,-0.087 0.184,-0.079 0.194,-0.073C0.203,-0.066 0.215,-0.062 0.228,-0.059C0.241,-0.056 0.254,-0.054 0.268,-0.054C0.296,-0.054 0.324,-0.06 0.35,-0.073C0.378,-0.085 0.405,-0.103 0.433,-0.126L0.433,-0.254C0.381,-0.25 0.338,-0.244 0.303,-0.237C0.268,-0.23 0.239,-0.221 0.219,-0.211C0.198,-0.2 0.183,-0.189 0.174,-0.175C0.165,-0.163 0.161,-0.148 0.161,-0.132Z" style="fill-rule:nonzero;"/>
                </g>
                <g transform="matrix(208.174,0,0,208.174,2360.57,2079.04)">
                    <path d="M0.06,-0.486L0.124,-0.486L0.131,-0.422L0.134,-0.422C0.146,-0.445 0.16,-0.463 0.177,-0.477C0.193,-0.491 0.215,-0.498 0.243,-0.498C0.292,-0.498 0.323,-0.47 0.335,-0.414C0.35,-0.439 0.366,-0.46 0.383,-0.475C0.4,-0.49 0.423,-0.498 0.45,-0.498C0.484,-0.498 0.51,-0.485 0.529,-0.46C0.547,-0.434 0.556,-0.397 0.556,-0.348L0.556,-0L0.477,-0L0.477,-0.341C0.477,-0.398 0.459,-0.427 0.424,-0.427C0.407,-0.427 0.392,-0.421 0.379,-0.408C0.366,-0.396 0.354,-0.377 0.341,-0.352L0.341,-0L0.275,-0L0.275,-0.341C0.275,-0.398 0.257,-0.427 0.22,-0.427C0.203,-0.427 0.188,-0.421 0.176,-0.408C0.164,-0.396 0.152,-0.377 0.139,-0.352L0.139,-0L0.06,-0L0.06,-0.486Z" style="fill-rule:nonzero;"/>
                </g>
                <g transform="matrix(208.174,0,0,208.174,2485.47,2079.04)">
                    <path d="M0.069,-0.242C0.069,-0.282 0.076,-0.318 0.09,-0.349C0.104,-0.381 0.123,-0.408 0.146,-0.43C0.169,-0.452 0.195,-0.469 0.225,-0.481C0.254,-0.492 0.285,-0.498 0.316,-0.498C0.351,-0.498 0.382,-0.493 0.409,-0.482C0.436,-0.47 0.46,-0.455 0.478,-0.435C0.498,-0.415 0.512,-0.391 0.522,-0.363C0.532,-0.335 0.537,-0.304 0.537,-0.27C0.537,-0.252 0.536,-0.237 0.534,-0.225L0.154,-0.225C0.157,-0.172 0.176,-0.131 0.21,-0.1C0.243,-0.069 0.287,-0.054 0.34,-0.054C0.369,-0.054 0.395,-0.058 0.419,-0.066C0.442,-0.074 0.465,-0.085 0.488,-0.099L0.517,-0.045C0.493,-0.03 0.466,-0.016 0.435,-0.005C0.404,0.006 0.369,0.012 0.33,0.012C0.294,0.012 0.26,0.006 0.229,-0.006C0.197,-0.017 0.169,-0.034 0.146,-0.056C0.122,-0.077 0.103,-0.104 0.09,-0.135C0.076,-0.166 0.069,-0.202 0.069,-0.242ZM0.461,-0.279C0.461,-0.329 0.448,-0.367 0.423,-0.394C0.398,-0.42 0.362,-0.433 0.317,-0.433C0.297,-0.433 0.278,-0.43 0.26,-0.423C0.241,-0.416 0.225,-0.406 0.21,-0.393C0.195,-0.38 0.183,-0.364 0.172,-0.344C0.162,-0.326 0.156,-0.304 0.153,-0.279L0.461,-0.279Z" style="fill-rule:nonzero;"/>
                </g>
                <g transform="matrix(208.174,0,0,208.174,2610.38,2079.04)">
                    <path d="M0.122,0.134C0.189,0.077 0.239,0.016 0.271,-0.051C0.302,-0.118 0.318,-0.193 0.318,-0.278C0.318,-0.363 0.302,-0.438 0.271,-0.505C0.239,-0.572 0.189,-0.633 0.122,-0.69L0.167,-0.732C0.236,-0.678 0.291,-0.613 0.332,-0.537C0.372,-0.461 0.392,-0.375 0.392,-0.278C0.392,-0.181 0.372,-0.095 0.332,-0.019C0.291,0.057 0.236,0.122 0.167,0.176L0.122,0.134Z" style="fill:rgb(128,128,128);fill-rule:nonzero;"/>
                </g>
                <g transform="matrix(208.174,0,0,208.174,2860.19,2079.04)">
                    <path d="M0.134,-0.656L0.216,-0.656L0.216,-0.071L0.541,-0.071L0.541,-0L0.134,-0L0.134,-0.656Z" style="fill:rgb(128,128,128);fill-rule:nonzero;"/>
                </g>
                <g transform="matrix(208.174,0,0,208.174,2985.09,2079.04)">
                    <path d="M0.095,-0.071L0.258,-0.071L0.258,-0.586L0.095,-0.586L0.095,-0.656L0.505,-0.656L0.505,-0.586L0.342,-0.586L0.342,-0.071L0.505,-0.071L0.505,-0L0.095,-0L0.095,-0.071Z" style="fill:rgb(128,128,128);fill-rule:nonzero;"/>
                </g>
                <g transform="matrix(208.174,0,0,208.174,3110,2079.04)">
                    <path d="M0.098,-0.656L0.182,-0.656L0.182,-0.327L0.185,-0.327L0.461,-0.656L0.555,-0.656L0.348,-0.406L0.579,-0L0.486,-0L0.296,-0.341L0.182,-0.208L0.182,-0L0.098,-0L0.098,-0.656Z" style="fill:rgb(128,128,128);fill-rule:nonzero;"/>
                </g>
                <g transform="matrix(208.174,0,0,208.174,3234.9,2079.04)">
                    <path d="M0.115,-0.656L0.52,-0.656L0.52,-0.586L0.199,-0.586L0.199,-0.38L0.47,-0.38L0.47,-0.309L0.199,-0.309L0.199,-0.071L0.53,-0.071L0.53,-0L0.115,-0L0.115,-0.656Z" style="fill:rgb(128,128,128);fill-rule:nonzero;"/>
                </g>
                <g transform="matrix(208.174,0,0,208.174,3484.71,2079.04)">
                    <path d="M0.247,-0.577L0.245,-0.687L0.355,-0.687L0.353,-0.577L0.328,-0.352L0.272,-0.352L0.247,-0.577Z" style="fill:rgb(255,0,0);fill-rule:nonzero;"/>
                </g>
                <g transform="matrix(208.174,0,0,208.174,3609.61,2079.04)">
                    <path d="M0.167,-0.321C0.126,-0.321 0.093,-0.336 0.067,-0.365C0.041,-0.394 0.028,-0.435 0.028,-0.488C0.028,-0.54 0.041,-0.58 0.067,-0.608C0.093,-0.636 0.126,-0.65 0.167,-0.65C0.208,-0.65 0.241,-0.636 0.267,-0.608C0.293,-0.58 0.306,-0.54 0.306,-0.488C0.306,-0.435 0.293,-0.394 0.267,-0.365C0.241,-0.336 0.208,-0.321 0.167,-0.321ZM0.167,-0.371C0.188,-0.371 0.207,-0.381 0.222,-0.4C0.237,-0.419 0.245,-0.448 0.245,-0.488C0.245,-0.528 0.237,-0.557 0.222,-0.575C0.207,-0.592 0.188,-0.601 0.167,-0.601C0.146,-0.601 0.127,-0.592 0.112,-0.575C0.097,-0.557 0.089,-0.528 0.089,-0.488C0.089,-0.448 0.097,-0.419 0.112,-0.4C0.127,-0.381 0.146,-0.371 0.167,-0.371ZM0.028,-0.077L0.211,-0.265L0.244,-0.235L0.077,-0.032L0.028,-0.077ZM0.572,-0.579L0.389,-0.391L0.356,-0.421L0.523,-0.624L0.572,-0.579ZM0.434,0.012C0.393,0.012 0.36,-0.003 0.334,-0.032C0.308,-0.061 0.295,-0.102 0.295,-0.155C0.295,-0.207 0.308,-0.247 0.334,-0.275C0.36,-0.303 0.393,-0.317 0.434,-0.317C0.475,-0.317 0.508,-0.303 0.534,-0.275C0.56,-0.247 0.573,-0.207 0.573,-0.155C0.573,-0.102 0.56,-0.061 0.534,-0.032C0.508,-0.003 0.475,0.012 0.434,0.012ZM0.434,-0.038C0.455,-0.038 0.474,-0.048 0.489,-0.067C0.504,-0.086 0.512,-0.115 0.512,-0.155C0.512,-0.195 0.504,-0.224 0.489,-0.242C0.474,-0.259 0.455,-0.268 0.434,-0.268C0.413,-0.268 0.394,-0.259 0.379,-0.242C0.364,-0.224 0.356,-0.195 0.356,-0.155C0.356,-0.115 0.364,-0.086 0.379,-0.067C0.394,-0.048 0.413,-0.038 0.434,-0.038Z" style="fill:rgb(255,0,0);fill-rule:nonzero;"/>
                </g>
                <g transform="matrix(208.174,0,0,208.174,3734.52,2079.04)">
                    <path d="M0.135,-0.147C0.154,-0.118 0.176,-0.096 0.2,-0.082C0.224,-0.068 0.249,-0.061 0.274,-0.061C0.321,-0.061 0.356,-0.074 0.378,-0.099C0.399,-0.124 0.41,-0.163 0.41,-0.217L0.41,-0.587L0.135,-0.587L0.135,-0.657L0.493,-0.657L0.493,-0.21C0.493,-0.179 0.489,-0.151 0.482,-0.124C0.475,-0.097 0.463,-0.073 0.446,-0.053C0.429,-0.033 0.406,-0.017 0.379,-0.006C0.351,0.006 0.317,0.012 0.276,0.012C0.239,0.012 0.203,0.003 0.168,-0.014C0.133,-0.031 0.104,-0.059 0.081,-0.097L0.135,-0.147Z" style="fill:rgb(255,0,0);fill-rule:nonzero;"/>
                </g>
                <g transform="matrix(208.174,0,0,208.174,3859.42,2079.04)">
                    <path d="M0.06,-0.242C0.06,-0.283 0.067,-0.319 0.08,-0.35C0.093,-0.382 0.11,-0.409 0.132,-0.431C0.154,-0.453 0.18,-0.47 0.209,-0.481C0.237,-0.492 0.268,-0.498 0.3,-0.498C0.332,-0.498 0.363,-0.492 0.392,-0.481C0.421,-0.47 0.446,-0.453 0.468,-0.431C0.49,-0.409 0.507,-0.382 0.521,-0.35C0.534,-0.319 0.54,-0.283 0.54,-0.242C0.54,-0.202 0.534,-0.166 0.521,-0.135C0.507,-0.103 0.49,-0.076 0.468,-0.055C0.446,-0.033 0.421,-0.016 0.392,-0.005C0.363,0.006 0.332,0.012 0.3,0.012C0.268,0.012 0.237,0.006 0.209,-0.005C0.18,-0.016 0.154,-0.033 0.132,-0.055C0.11,-0.076 0.093,-0.103 0.08,-0.135C0.067,-0.166 0.06,-0.202 0.06,-0.242ZM0.145,-0.242C0.145,-0.214 0.149,-0.189 0.156,-0.166C0.163,-0.143 0.174,-0.124 0.188,-0.108C0.201,-0.091 0.218,-0.079 0.236,-0.07C0.256,-0.061 0.277,-0.056 0.3,-0.056C0.323,-0.056 0.344,-0.061 0.364,-0.07C0.383,-0.079 0.399,-0.091 0.412,-0.108C0.426,-0.124 0.437,-0.143 0.444,-0.166C0.451,-0.189 0.455,-0.214 0.455,-0.242C0.455,-0.27 0.451,-0.296 0.444,-0.319C0.437,-0.342 0.426,-0.361 0.412,-0.378C0.399,-0.395 0.383,-0.407 0.364,-0.417C0.344,-0.426 0.323,-0.43 0.3,-0.43C0.277,-0.43 0.256,-0.426 0.236,-0.417C0.218,-0.407 0.201,-0.395 0.188,-0.378C0.174,-0.361 0.163,-0.342 0.156,-0.319C0.149,-0.296 0.145,-0.27 0.145,-0.242Z" style="fill:rgb(255,0,0);fill-rule:nonzero;"/>
                </g>
                <g transform="matrix(208.174,0,0,208.174,3984.33,2079.04)">
                    <path d="M0.069,-0.242C0.069,-0.282 0.076,-0.318 0.09,-0.349C0.104,-0.381 0.123,-0.408 0.146,-0.43C0.169,-0.452 0.195,-0.469 0.225,-0.481C0.254,-0.492 0.285,-0.498 0.316,-0.498C0.351,-0.498 0.382,-0.493 0.409,-0.482C0.436,-0.47 0.46,-0.455 0.478,-0.435C0.498,-0.415 0.512,-0.391 0.522,-0.363C0.532,-0.335 0.537,-0.304 0.537,-0.27C0.537,-0.252 0.536,-0.237 0.534,-0.225L0.154,-0.225C0.157,-0.172 0.176,-0.131 0.21,-0.1C0.243,-0.069 0.287,-0.054 0.34,-0.054C0.369,-0.054 0.395,-0.058 0.419,-0.066C0.442,-0.074 0.465,-0.085 0.488,-0.099L0.517,-0.045C0.493,-0.03 0.466,-0.016 0.435,-0.005C0.404,0.006 0.369,0.012 0.33,0.012C0.294,0.012 0.26,0.006 0.229,-0.006C0.197,-0.017 0.169,-0.034 0.146,-0.056C0.122,-0.077 0.103,-0.104 0.09,-0.135C0.076,-0.166 0.069,-0.202 0.069,-0.242ZM0.461,-0.279C0.461,-0.329 0.448,-0.367 0.423,-0.394C0.398,-0.42 0.362,-0.433 0.317,-0.433C0.297,-0.433 0.278,-0.43 0.26,-0.423C0.241,-0.416 0.225,-0.406 0.21,-0.393C0.195,-0.38 0.183,-0.364 0.172,-0.344C0.162,-0.326 0.156,-0.304 0.153,-0.279L0.461,-0.279Z" style="fill:rgb(255,0,0);fill-rule:nonzero;"/>
                </g>
                <g transform="matrix(208.174,0,0,208.174,4109.23,2079.04)">
                    <path d="M0.167,-0.321C0.126,-0.321 0.093,-0.336 0.067,-0.365C0.041,-0.394 0.028,-0.435 0.028,-0.488C0.028,-0.54 0.041,-0.58 0.067,-0.608C0.093,-0.636 0.126,-0.65 0.167,-0.65C0.208,-0.65 0.241,-0.636 0.267,-0.608C0.293,-0.58 0.306,-0.54 0.306,-0.488C0.306,-0.435 0.293,-0.394 0.267,-0.365C0.241,-0.336 0.208,-0.321 0.167,-0.321ZM0.167,-0.371C0.188,-0.371 0.207,-0.381 0.222,-0.4C0.237,-0.419 0.245,-0.448 0.245,-0.488C0.245,-0.528 0.237,-0.557 0.222,-0.575C0.207,-0.592 0.188,-0.601 0.167,-0.601C0.146,-0.601 0.127,-0.592 0.112,-0.575C0.097,-0.557 0.089,-0.528 0.089,-0.488C0.089,-0.448 0.097,-0.419 0.112,-0.4C0.127,-0.381 0.146,-0.371 0.167,-0.371ZM0.028,-0.077L0.211,-0.265L0.244,-0.235L0.077,-0.032L0.028,-0.077ZM0.572,-0.579L0.389,-0.391L0.356,-0.421L0.523,-0.624L0.572,-0.579ZM0.434,0.012C0.393,0.012 0.36,-0.003 0.334,-0.032C0.308,-0.061 0.295,-0.102 0.295,-0.155C0.295,-0.207 0.308,-0.247 0.334,-0.275C0.36,-0.303 0.393,-0.317 0.434,-0.317C0.475,-0.317 0.508,-0.303 0.534,-0.275C0.56,-0.247 0.573,-0.207 0.573,-0.155C0.573,-0.102 0.56,-0.061 0.534,-0.032C0.508,-0.003 0.475,0.012 0.434,0.012ZM0.434,-0.038C0.455,-0.038 0.474,-0.048 0.489,-0.067C0.504,-0.086 0.512,-0.115 0.512,-0.155C0.512,-0.195 0.504,-0.224 0.489,-0.242C0.474,-0.259 0.455,-0.268 0.434,-0.268C0.413,-0.268 0.394,-0.259 0.379,-0.242C0.364,-0.224 0.356,-0.195 0.356,-0.155C0.356,-0.115 0.364,-0.086 0.379,-0.067C0.394,-0.048 0.413,-0.038 0.434,-0.038Z" style="fill:rgb(255,0,0);fill-rule:nonzero;"/>
                </g>
                <g transform="matrix(208.174,0,0,208.174,4234.13,2079.04)">
                    <path d="M0.247,-0.577L0.245,-0.687L0.355,-0.687L0.353,-0.577L0.328,-0.352L0.272,-0.352L0.247,-0.577Z" style="fill:rgb(255,0,0);fill-rule:nonzero;"/>
                </g>
                <g transform="matrix(208.174,0,0,208.174,611.907,2287.21)">
                    <path d="M0.3,0.012C0.263,0.012 0.229,0.004 0.198,-0.012C0.167,-0.028 0.141,-0.051 0.118,-0.081C0.096,-0.11 0.079,-0.146 0.067,-0.189C0.054,-0.231 0.048,-0.278 0.048,-0.331C0.048,-0.384 0.054,-0.431 0.067,-0.472C0.079,-0.514 0.096,-0.55 0.118,-0.579C0.141,-0.608 0.167,-0.63 0.198,-0.645C0.229,-0.66 0.263,-0.668 0.3,-0.668C0.337,-0.668 0.371,-0.66 0.402,-0.645C0.433,-0.629 0.459,-0.607 0.482,-0.578C0.504,-0.549 0.521,-0.513 0.534,-0.471C0.546,-0.43 0.552,-0.383 0.552,-0.331C0.552,-0.278 0.546,-0.231 0.534,-0.189C0.521,-0.146 0.504,-0.11 0.482,-0.081C0.459,-0.051 0.433,-0.028 0.402,-0.012C0.371,0.004 0.337,0.012 0.3,0.012ZM0.3,-0.061C0.325,-0.061 0.347,-0.067 0.368,-0.08C0.389,-0.093 0.406,-0.111 0.421,-0.135C0.435,-0.158 0.446,-0.187 0.454,-0.22C0.462,-0.253 0.466,-0.29 0.466,-0.331C0.466,-0.372 0.462,-0.408 0.454,-0.441C0.446,-0.474 0.435,-0.501 0.421,-0.524C0.406,-0.547 0.389,-0.564 0.368,-0.577C0.347,-0.589 0.325,-0.595 0.3,-0.595C0.275,-0.595 0.252,-0.589 0.232,-0.577C0.211,-0.564 0.194,-0.547 0.18,-0.524C0.165,-0.501 0.154,-0.474 0.146,-0.441C0.138,-0.408 0.134,-0.372 0.134,-0.331C0.134,-0.29 0.138,-0.253 0.146,-0.22C0.154,-0.187 0.165,-0.158 0.18,-0.135C0.194,-0.111 0.211,-0.093 0.232,-0.08C0.252,-0.067 0.275,-0.061 0.3,-0.061Z" style="fill:rgb(0,0,255);fill-rule:nonzero;"/>
                </g>
                <g transform="matrix(208.174,0,0,208.174,736.812,2287.21)">
                    <path d="M0.183,-0.345L0.292,-0.345C0.343,-0.345 0.383,-0.356 0.409,-0.377C0.437,-0.398 0.45,-0.429 0.45,-0.472C0.45,-0.515 0.437,-0.546 0.409,-0.563C0.383,-0.58 0.343,-0.589 0.292,-0.589L0.183,-0.589L0.183,-0.345ZM0.458,-0L0.3,-0.277L0.183,-0.277L0.183,-0L0.1,-0L0.1,-0.656L0.304,-0.656C0.337,-0.656 0.368,-0.653 0.396,-0.647C0.424,-0.64 0.448,-0.63 0.469,-0.615C0.489,-0.6 0.505,-0.581 0.516,-0.558C0.527,-0.535 0.533,-0.506 0.533,-0.472C0.533,-0.421 0.52,-0.38 0.493,-0.349C0.466,-0.318 0.431,-0.297 0.386,-0.286L0.553,-0L0.458,-0Z" style="fill:rgb(0,0,255);fill-rule:nonzero;"/>
                </g>
                <g transform="matrix(208.174,0,0,208.174,861.716,2287.21)">
                    <path d="M0.085,-0.656L0.245,-0.656C0.344,-0.656 0.42,-0.628 0.471,-0.572C0.523,-0.516 0.549,-0.436 0.549,-0.331C0.549,-0.279 0.543,-0.233 0.53,-0.192C0.517,-0.151 0.497,-0.116 0.472,-0.087C0.447,-0.059 0.415,-0.038 0.378,-0.023C0.341,-0.008 0.298,-0 0.249,-0L0.085,-0L0.085,-0.656ZM0.24,-0.068C0.315,-0.068 0.371,-0.091 0.407,-0.137C0.445,-0.183 0.463,-0.248 0.463,-0.331C0.463,-0.414 0.445,-0.478 0.407,-0.522C0.371,-0.566 0.315,-0.588 0.24,-0.588L0.168,-0.588L0.168,-0.068L0.24,-0.068Z" style="fill:rgb(0,0,255);fill-rule:nonzero;"/>
                </g>
                <g transform="matrix(208.174,0,0,208.174,986.621,2287.21)">
                    <path d="M0.115,-0.656L0.52,-0.656L0.52,-0.586L0.199,-0.586L0.199,-0.38L0.47,-0.38L0.47,-0.309L0.199,-0.309L0.199,-0.071L0.53,-0.071L0.53,-0L0.115,-0L0.115,-0.656Z" style="fill:rgb(0,0,255);fill-rule:nonzero;"/>
                </g>
                <g transform="matrix(208.174,0,0,208.174,1111.53,2287.21)">
                    <path d="M0.183,-0.345L0.292,-0.345C0.343,-0.345 0.383,-0.356 0.409,-0.377C0.437,-0.398 0.45,-0.429 0.45,-0.472C0.45,-0.515 0.437,-0.546 0.409,-0.563C0.383,-0.58 0.343,-0.589 0.292,-0.589L0.183,-0.589L0.183,-0.345ZM0.458,-0L0.3,-0.277L0.183,-0.277L0.183,-0L0.1,-0L0.1,-0.656L0.304,-0.656C0.337,-0.656 0.368,-0.653 0.396,-0.647C0.424,-0.64 0.448,-0.63 0.469,-0.615C0.489,-0.6 0.505,-0.581 0.516,-0.558C0.527,-0.535 0.533,-0.506 0.533,-0.472C0.533,-0.421 0.52,-0.38 0.493,-0.349C0.466,-0.318 0.431,-0.297 0.386,-0.286L0.553,-0L0.458,-0Z" style="fill:rgb(0,0,255);fill-rule:nonzero;"/>
                </g>
                <g transform="matrix(208.174,0,0,208.174,1361.33,2287.21)">
                    <path d="M0.103,-0.656L0.283,-0.656C0.316,-0.656 0.347,-0.653 0.375,-0.647C0.402,-0.641 0.426,-0.632 0.446,-0.619C0.465,-0.606 0.481,-0.59 0.492,-0.57C0.502,-0.549 0.508,-0.525 0.508,-0.496C0.508,-0.463 0.499,-0.434 0.48,-0.407C0.461,-0.381 0.432,-0.363 0.393,-0.353L0.393,-0.349C0.441,-0.342 0.478,-0.325 0.505,-0.299C0.532,-0.273 0.545,-0.237 0.545,-0.192C0.545,-0.16 0.539,-0.132 0.527,-0.108C0.515,-0.084 0.498,-0.064 0.476,-0.048C0.455,-0.032 0.429,-0.02 0.399,-0.012C0.368,-0.004 0.335,-0 0.298,-0L0.103,-0L0.103,-0.656ZM0.269,-0.376C0.325,-0.376 0.365,-0.386 0.39,-0.405C0.414,-0.424 0.426,-0.452 0.426,-0.489C0.426,-0.525 0.413,-0.551 0.388,-0.567C0.362,-0.582 0.324,-0.59 0.273,-0.59L0.187,-0.59L0.187,-0.376L0.269,-0.376ZM0.286,-0.066C0.343,-0.066 0.386,-0.077 0.417,-0.098C0.448,-0.118 0.463,-0.151 0.463,-0.196C0.463,-0.237 0.448,-0.267 0.418,-0.285C0.388,-0.305 0.344,-0.314 0.286,-0.314L0.187,-0.314L0.187,-0.066L0.286,-0.066Z" style="fill:rgb(0,0,255);fill-rule:nonzero;"/>
                </g>
                <g transform="matrix(208.174,0,0,208.174,1486.24,2287.21)">
                    <path d="M0.258,-0.234L0.038,-0.656L0.126,-0.656L0.225,-0.461C0.238,-0.436 0.25,-0.41 0.262,-0.386C0.274,-0.361 0.287,-0.335 0.3,-0.308L0.304,-0.308C0.317,-0.335 0.368,-0.437 0.381,-0.462L0.476,-0.656L0.562,-0.656L0.342,-0.234L0.342,-0L0.258,-0L0.258,-0.234Z" style="fill:rgb(0,0,255);fill-rule:nonzero;"/>
                </g>
                <g transform="matrix(208.174,0,0,208.174,1736.05,2287.21)">
                    <path d="M0.095,-0.071L0.258,-0.071L0.258,-0.586L0.095,-0.586L0.095,-0.656L0.505,-0.656L0.505,-0.586L0.342,-0.586L0.342,-0.071L0.505,-0.071L0.505,-0L0.095,-0L0.095,-0.071Z" style="fill-rule:nonzero;"/>
                </g>
                <g transform="matrix(208.174,0,0,208.174,1860.95,2287.21)">
                    <path d="M0.06,-0.242C0.06,-0.281 0.066,-0.317 0.079,-0.348C0.091,-0.38 0.107,-0.407 0.128,-0.429C0.148,-0.451 0.171,-0.468 0.198,-0.48C0.225,-0.492 0.252,-0.498 0.281,-0.498C0.311,-0.498 0.337,-0.492 0.36,-0.481C0.383,-0.47 0.405,-0.454 0.428,-0.435L0.425,-0.525L0.425,-0.712L0.507,-0.712L0.507,-0L0.439,-0L0.432,-0.064L0.429,-0.064C0.409,-0.043 0.385,-0.025 0.358,-0.011C0.33,0.004 0.301,0.012 0.271,0.012C0.239,0.012 0.21,0.006 0.185,-0.005C0.159,-0.016 0.137,-0.033 0.118,-0.055C0.099,-0.076 0.085,-0.103 0.075,-0.134C0.065,-0.165 0.06,-0.201 0.06,-0.242ZM0.145,-0.243C0.145,-0.184 0.158,-0.139 0.183,-0.106C0.207,-0.073 0.243,-0.057 0.288,-0.057C0.336,-0.057 0.382,-0.081 0.425,-0.13L0.425,-0.372C0.403,-0.393 0.382,-0.407 0.361,-0.416C0.34,-0.425 0.318,-0.429 0.297,-0.429C0.276,-0.429 0.256,-0.425 0.237,-0.416C0.219,-0.406 0.203,-0.394 0.19,-0.378C0.176,-0.361 0.165,-0.342 0.157,-0.319C0.149,-0.296 0.145,-0.271 0.145,-0.243Z" style="fill-rule:nonzero;"/>
                </g>
                <g transform="matrix(208.174,0,0,208.174,611.907,2495.39)">
                    <path d="M0.3,0.012C0.263,0.012 0.229,0.004 0.198,-0.012C0.167,-0.028 0.141,-0.051 0.118,-0.081C0.096,-0.11 0.079,-0.146 0.067,-0.189C0.054,-0.231 0.048,-0.278 0.048,-0.331C0.048,-0.384 0.054,-0.431 0.067,-0.472C0.079,-0.514 0.096,-0.55 0.118,-0.579C0.141,-0.608 0.167,-0.63 0.198,-0.645C0.229,-0.66 0.263,-0.668 0.3,-0.668C0.337,-0.668 0.371,-0.66 0.402,-0.645C0.433,-0.629 0.459,-0.607 0.482,-0.578C0.504,-0.549 0.521,-0.513 0.534,-0.471C0.546,-0.43 0.552,-0.383 0.552,-0.331C0.552,-0.278 0.546,-0.231 0.534,-0.189C0.521,-0.146 0.504,-0.11 0.482,-0.081C0.459,-0.051 0.433,-0.028 0.402,-0.012C0.371,0.004 0.337,0.012 0.3,0.012ZM0.3,-0.061C0.325,-0.061 0.347,-0.067 0.368,-0.08C0.389,-0.093 0.406,-0.111 0.421,-0.135C0.435,-0.158 0.446,-0.187 0.454,-0.22C0.462,-0.253 0.466,-0.29 0.466,-0.331C0.466,-0.372 0.462,-0.408 0.454,-0.441C0.446,-0.474 0.435,-0.501 0.421,-0.524C0.406,-0.547 0.389,-0.564 0.368,-0.577C0.347,-0.589 0.325,-0.595 0.3,-0.595C0.275,-0.595 0.252,-0.589 0.232,-0.577C0.211,-0.564 0.194,-0.547 0.18,-0.524C0.165,-0.501 0.154,-0.474 0.146,-0.441C0.138,-0.408 0.134,-0.372 0.134,-0.331C0.134,-0.29 0.138,-0.253 0.146,-0.22C0.154,-0.187 0.165,-0.158 0.18,-0.135C0.194,-0.111 0.211,-0.093 0.232,-0.08C0.252,-0.067 0.275,-0.061 0.3,-0.061Z" style="fill:rgb(0,0,255);fill-rule:nonzero;"/>
                </g>
                <g transform="matrix(208.174,0,0,208.174,736.812,2495.39)">
                    <path d="M0.135,-0.656L0.536,-0.656L0.536,-0.586L0.218,-0.586L0.218,-0.364L0.487,-0.364L0.487,-0.294L0.218,-0.294L0.218,-0L0.135,-0L0.135,-0.656Z" style="fill:rgb(0,0,255);fill-rule:nonzero;"/>
                </g>
                <g transform="matrix(208.174,0,0,208.174,861.716,2495.39)">
                    <path d="M0.135,-0.656L0.536,-0.656L0.536,-0.586L0.218,-0.586L0.218,-0.364L0.487,-0.364L0.487,-0.294L0.218,-0.294L0.218,-0L0.135,-0L0.135,-0.656Z" style="fill:rgb(0,0,255);fill-rule:nonzero;"/>
                </g>
                <g transform="matrix(208.174,0,0,208.174,986.621,2495.39)">
                    <path d="M0.117,-0.143C0.142,-0.118 0.17,-0.099 0.203,-0.084C0.236,-0.069 0.27,-0.061 0.306,-0.061C0.353,-0.061 0.389,-0.071 0.414,-0.091C0.439,-0.11 0.452,-0.136 0.452,-0.168C0.452,-0.185 0.449,-0.199 0.443,-0.211C0.437,-0.222 0.429,-0.232 0.418,-0.241C0.407,-0.249 0.395,-0.256 0.381,-0.263C0.366,-0.27 0.351,-0.277 0.334,-0.284L0.24,-0.325C0.223,-0.332 0.207,-0.34 0.19,-0.349C0.173,-0.358 0.158,-0.37 0.145,-0.383C0.131,-0.396 0.12,-0.412 0.111,-0.431C0.102,-0.449 0.098,-0.47 0.098,-0.494C0.098,-0.519 0.103,-0.542 0.114,-0.563C0.125,-0.584 0.14,-0.603 0.159,-0.619C0.178,-0.634 0.2,-0.646 0.227,-0.655C0.253,-0.664 0.282,-0.668 0.313,-0.668C0.354,-0.668 0.392,-0.661 0.427,-0.646C0.462,-0.63 0.491,-0.611 0.515,-0.587L0.471,-0.533C0.45,-0.552 0.426,-0.568 0.401,-0.579C0.375,-0.59 0.346,-0.595 0.313,-0.595C0.273,-0.595 0.241,-0.587 0.218,-0.57C0.195,-0.553 0.183,-0.529 0.183,-0.499C0.183,-0.483 0.187,-0.469 0.194,-0.459C0.201,-0.448 0.21,-0.438 0.221,-0.43C0.232,-0.421 0.244,-0.414 0.258,-0.408C0.272,-0.402 0.286,-0.396 0.3,-0.39L0.392,-0.35C0.412,-0.342 0.431,-0.333 0.449,-0.323C0.466,-0.312 0.482,-0.3 0.495,-0.286C0.507,-0.273 0.518,-0.257 0.526,-0.238C0.533,-0.22 0.537,-0.199 0.537,-0.175C0.537,-0.149 0.532,-0.125 0.521,-0.102C0.51,-0.079 0.495,-0.059 0.475,-0.043C0.455,-0.025 0.431,-0.012 0.402,-0.003C0.373,0.007 0.341,0.012 0.305,0.012C0.257,0.012 0.213,0.003 0.172,-0.014C0.132,-0.031 0.097,-0.055 0.067,-0.085L0.117,-0.143Z" style="fill:rgb(0,0,255);fill-rule:nonzero;"/>
                </g>
                <g transform="matrix(208.174,0,0,208.174,1111.53,2495.39)">
                    <path d="M0.115,-0.656L0.52,-0.656L0.52,-0.586L0.199,-0.586L0.199,-0.38L0.47,-0.38L0.47,-0.309L0.199,-0.309L0.199,-0.071L0.53,-0.071L0.53,-0L0.115,-0L0.115,-0.656Z" style="fill:rgb(0,0,255);fill-rule:nonzero;"/>
                </g>
                <g transform="matrix(208.174,0,0,208.174,1236.43,2495.39)">
                    <path d="M0.258,-0.586L0.042,-0.586L0.042,-0.656L0.558,-0.656L0.558,-0.586L0.342,-0.586L0.342,-0L0.258,-0L0.258,-0.586Z" style="fill:rgb(0,0,255);fill-rule:nonzero;"/>
                </g>
                <g transform="matrix(208.174,0,0,208.174,1486.24,2495.39)">
                    <path d="M0.528,-0.068L0.528,-0L0.098,-0L0.098,-0.068L0.279,-0.068L0.279,-0.538L0.143,-0.538L0.143,-0.591C0.177,-0.596 0.207,-0.603 0.232,-0.611C0.257,-0.618 0.28,-0.627 0.3,-0.638L0.361,-0.638L0.361,-0.068L0.528,-0.068Z" style="fill-rule:nonzero;"/>
                </g>
                <g transform="matrix(208.174,0,0,208.174,1611.14,2495.39)">
                    <path d="M0.3,0.012C0.229,0.012 0.173,-0.017 0.132,-0.075C0.091,-0.132 0.071,-0.214 0.071,-0.321C0.071,-0.428 0.091,-0.51 0.132,-0.566C0.173,-0.622 0.229,-0.65 0.3,-0.65C0.371,-0.65 0.427,-0.622 0.468,-0.566C0.509,-0.51 0.529,-0.428 0.529,-0.321C0.529,-0.214 0.509,-0.132 0.468,-0.075C0.427,-0.017 0.371,0.012 0.3,0.012ZM0.3,-0.584C0.278,-0.584 0.258,-0.579 0.239,-0.569C0.22,-0.559 0.204,-0.543 0.191,-0.522C0.177,-0.5 0.166,-0.472 0.159,-0.44C0.152,-0.406 0.148,-0.367 0.148,-0.321C0.148,-0.23 0.162,-0.162 0.191,-0.119C0.219,-0.076 0.255,-0.054 0.3,-0.054C0.345,-0.054 0.381,-0.076 0.409,-0.119C0.438,-0.162 0.452,-0.23 0.452,-0.321C0.452,-0.367 0.448,-0.406 0.441,-0.44C0.434,-0.472 0.423,-0.5 0.409,-0.522C0.396,-0.543 0.38,-0.559 0.361,-0.569C0.342,-0.579 0.322,-0.584 0.3,-0.584ZM0.3,-0.261C0.283,-0.261 0.269,-0.267 0.257,-0.279C0.244,-0.29 0.238,-0.307 0.238,-0.328C0.238,-0.349 0.244,-0.365 0.257,-0.377C0.269,-0.388 0.283,-0.394 0.3,-0.394C0.317,-0.394 0.331,-0.388 0.344,-0.377C0.356,-0.365 0.362,-0.349 0.362,-0.328C0.362,-0.307 0.356,-0.29 0.344,-0.279C0.331,-0.267 0.317,-0.261 0.3,-0.261Z" style="fill-rule:nonzero;"/>
                </g>
                <g transform="matrix(208.174,0,0,208.174,1860.95,2495.39)">
                    <path d="M0.183,-0.345L0.292,-0.345C0.343,-0.345 0.383,-0.356 0.409,-0.377C0.437,-0.398 0.45,-0.429 0.45,-0.472C0.45,-0.515 0.437,-0.546 0.409,-0.563C0.383,-0.58 0.343,-0.589 0.292,-0.589L0.183,-0.589L0.183,-0.345ZM0.458,-0L0.3,-0.277L0.183,-0.277L0.183,-0L0.1,-0L0.1,-0.656L0.304,-0.656C0.337,-0.656 0.368,-0.653 0.396,-0.647C0.424,-0.64 0.448,-0.63 0.469,-0.615C0.489,-0.6 0.505,-0.581 0.516,-0.558C0.527,-0.535 0.533,-0.506 0.533,-0.472C0.533,-0.421 0.52,-0.38 0.493,-0.349C0.466,-0.318 0.431,-0.297 0.386,-0.286L0.553,-0L0.458,-0Z" style="fill:rgb(0,0,255);fill-rule:nonzero;"/>
                </g>
                <g transform="matrix(208.174,0,0,208.174,1985.86,2495.39)">
                    <path d="M0.3,0.012C0.263,0.012 0.229,0.004 0.198,-0.012C0.167,-0.028 0.141,-0.051 0.118,-0.081C0.096,-0.11 0.079,-0.146 0.067,-0.189C0.054,-0.231 0.048,-0.278 0.048,-0.331C0.048,-0.384 0.054,-0.431 0.067,-0.472C0.079,-0.514 0.096,-0.55 0.118,-0.579C0.141,-0.608 0.167,-0.63 0.198,-0.645C0.229,-0.66 0.263,-0.668 0.3,-0.668C0.337,-0.668 0.371,-0.66 0.402,-0.645C0.433,-0.629 0.459,-0.607 0.482,-0.578C0.504,-0.549 0.521,-0.513 0.534,-0.471C0.546,-0.43 0.552,-0.383 0.552,-0.331C0.552,-0.278 0.546,-0.231 0.534,-0.189C0.521,-0.146 0.504,-0.11 0.482,-0.081C0.459,-0.051 0.433,-0.028 0.402,-0.012C0.371,0.004 0.337,0.012 0.3,0.012ZM0.3,-0.061C0.325,-0.061 0.347,-0.067 0.368,-0.08C0.389,-0.093 0.406,-0.111 0.421,-0.135C0.435,-0.158 0.446,-0.187 0.454,-0.22C0.462,-0.253 0.466,-0.29 0.466,-0.331C0.466,-0.372 0.462,-0.408 0.454,-0.441C0.446,-0.474 0.435,-0.501 0.421,-0.524C0.406,-0.547 0.389,-0.564 0.368,-0.577C0.347,-0.589 0.325,-0.595 0.3,-0.595C0.275,-0.595 0.252,-0.589 0.232,-0.577C0.211,-0.564 0.194,-0.547 0.18,-0.524C0.165,-0.501 0.154,-0.474 0.146,-0.441C0.138,-0.408 0.134,-0.372 0.134,-0.331C0.134,-0.29 0.138,-0.253 0.146,-0.22C0.154,-0.187 0.165,-0.158 0.18,-0.135C0.194,-0.111 0.211,-0.093 0.232,-0.08C0.252,-0.067 0.275,-0.061 0.3,-0.061Z" style="fill:rgb(0,0,255);fill-rule:nonzero;"/>
                </g>
                <g transform="matrix(208.174,0,0,208.174,2110.76,2495.39)">
                    <path d="M0.01,-0.657L0.093,-0.657L0.146,-0.245C0.147,-0.217 0.15,-0.19 0.153,-0.164C0.156,-0.137 0.158,-0.11 0.16,-0.083L0.163,-0.083C0.17,-0.11 0.178,-0.137 0.185,-0.164C0.192,-0.191 0.198,-0.218 0.205,-0.245L0.274,-0.487L0.333,-0.487L0.402,-0.245C0.408,-0.218 0.414,-0.192 0.422,-0.165C0.429,-0.138 0.436,-0.11 0.443,-0.083L0.447,-0.083C0.449,-0.11 0.451,-0.137 0.454,-0.164C0.457,-0.191 0.459,-0.218 0.461,-0.245L0.511,-0.657L0.59,-0.657L0.493,-0L0.401,-0L0.326,-0.275C0.321,-0.294 0.317,-0.314 0.313,-0.334C0.309,-0.354 0.305,-0.374 0.302,-0.393L0.299,-0.393C0.295,-0.374 0.291,-0.354 0.287,-0.334C0.283,-0.314 0.278,-0.294 0.273,-0.275L0.201,-0L0.111,-0L0.01,-0.657Z" style="fill:rgb(0,0,255);fill-rule:nonzero;"/>
                </g>
                <g transform="matrix(208.174,0,0,208.174,2235.66,2495.39)">
                    <path d="M0.117,-0.143C0.142,-0.118 0.17,-0.099 0.203,-0.084C0.236,-0.069 0.27,-0.061 0.306,-0.061C0.353,-0.061 0.389,-0.071 0.414,-0.091C0.439,-0.11 0.452,-0.136 0.452,-0.168C0.452,-0.185 0.449,-0.199 0.443,-0.211C0.437,-0.222 0.429,-0.232 0.418,-0.241C0.407,-0.249 0.395,-0.256 0.381,-0.263C0.366,-0.27 0.351,-0.277 0.334,-0.284L0.24,-0.325C0.223,-0.332 0.207,-0.34 0.19,-0.349C0.173,-0.358 0.158,-0.37 0.145,-0.383C0.131,-0.396 0.12,-0.412 0.111,-0.431C0.102,-0.449 0.098,-0.47 0.098,-0.494C0.098,-0.519 0.103,-0.542 0.114,-0.563C0.125,-0.584 0.14,-0.603 0.159,-0.619C0.178,-0.634 0.2,-0.646 0.227,-0.655C0.253,-0.664 0.282,-0.668 0.313,-0.668C0.354,-0.668 0.392,-0.661 0.427,-0.646C0.462,-0.63 0.491,-0.611 0.515,-0.587L0.471,-0.533C0.45,-0.552 0.426,-0.568 0.401,-0.579C0.375,-0.59 0.346,-0.595 0.313,-0.595C0.273,-0.595 0.241,-0.587 0.218,-0.57C0.195,-0.553 0.183,-0.529 0.183,-0.499C0.183,-0.483 0.187,-0.469 0.194,-0.459C0.201,-0.448 0.21,-0.438 0.221,-0.43C0.232,-0.421 0.244,-0.414 0.258,-0.408C0.272,-0.402 0.286,-0.396 0.3,-0.39L0.392,-0.35C0.412,-0.342 0.431,-0.333 0.449,-0.323C0.466,-0.312 0.482,-0.3 0.495,-0.286C0.507,-0.273 0.518,-0.257 0.526,-0.238C0.533,-0.22 0.537,-0.199 0.537,-0.175C0.537,-0.149 0.532,-0.125 0.521,-0.102C0.51,-0.079 0.495,-0.059 0.475,-0.043C0.455,-0.025 0.431,-0.012 0.402,-0.003C0.373,0.007 0.341,0.012 0.305,0.012C0.257,0.012 0.213,0.003 0.172,-0.014C0.132,-0.031 0.097,-0.055 0.067,-0.085L0.117,-0.143Z" style="fill:rgb(0,0,255);fill-rule:nonzero;"/>
                </g>
                <g transform="matrix(208.174,0,0,208.174,2485.47,2495.39)">
                    <path d="M0.135,-0.656L0.536,-0.656L0.536,-0.586L0.218,-0.586L0.218,-0.364L0.487,-0.364L0.487,-0.294L0.218,-0.294L0.218,-0L0.135,-0L0.135,-0.656Z" style="fill:rgb(0,0,255);fill-rule:nonzero;"/>
                </g>
                <g transform="matrix(208.174,0,0,208.174,2610.38,2495.39)">
                    <path d="M0.115,-0.656L0.52,-0.656L0.52,-0.586L0.199,-0.586L0.199,-0.38L0.47,-0.38L0.47,-0.309L0.199,-0.309L0.199,-0.071L0.53,-0.071L0.53,-0L0.115,-0L0.115,-0.656Z" style="fill:rgb(0,0,255);fill-rule:nonzero;"/>
                </g>
                <g transform="matrix(208.174,0,0,208.174,2735.28,2495.39)">
                    <path d="M0.258,-0.586L0.042,-0.586L0.042,-0.656L0.558,-0.656L0.558,-0.586L0.342,-0.586L0.342,-0L0.258,-0L0.258,-0.586Z" style="fill:rgb(0,0,255);fill-rule:nonzero;"/>
                </g>
                <g transform="matrix(208.174,0,0,208.174,2860.19,2495.39)">
                    <path d="M0.066,-0.328C0.066,-0.381 0.073,-0.428 0.087,-0.47C0.102,-0.512 0.122,-0.548 0.148,-0.577C0.174,-0.606 0.205,-0.629 0.241,-0.645C0.277,-0.66 0.316,-0.668 0.359,-0.668C0.399,-0.668 0.434,-0.66 0.464,-0.644C0.494,-0.628 0.519,-0.609 0.538,-0.588L0.491,-0.535C0.474,-0.553 0.454,-0.568 0.433,-0.579C0.412,-0.59 0.387,-0.595 0.359,-0.595C0.328,-0.595 0.299,-0.589 0.274,-0.577C0.248,-0.564 0.226,-0.547 0.208,-0.524C0.19,-0.5 0.176,-0.473 0.167,-0.44C0.157,-0.407 0.152,-0.371 0.152,-0.33C0.152,-0.289 0.157,-0.252 0.167,-0.219C0.176,-0.186 0.19,-0.157 0.208,-0.134C0.226,-0.111 0.248,-0.093 0.274,-0.08C0.299,-0.067 0.328,-0.061 0.359,-0.061C0.389,-0.061 0.416,-0.067 0.439,-0.08C0.462,-0.093 0.485,-0.111 0.506,-0.134L0.554,-0.083C0.528,-0.053 0.499,-0.03 0.466,-0.013C0.433,0.004 0.396,0.012 0.354,0.012C0.313,0.012 0.275,0.004 0.239,-0.011C0.204,-0.026 0.174,-0.049 0.149,-0.078C0.123,-0.107 0.103,-0.142 0.088,-0.185C0.073,-0.227 0.066,-0.275 0.066,-0.328Z" style="fill:rgb(0,0,255);fill-rule:nonzero;"/>
                </g>
                <g transform="matrix(208.174,0,0,208.174,2985.09,2495.39)">
                    <path d="M0.079,-0.656L0.163,-0.656L0.163,-0.381L0.437,-0.381L0.437,-0.656L0.521,-0.656L0.521,-0L0.437,-0L0.437,-0.309L0.163,-0.309L0.163,-0L0.079,-0L0.079,-0.656Z" style="fill:rgb(0,0,255);fill-rule:nonzero;"/>
                </g>
                <g transform="matrix(208.174,0,0,208.174,3234.9,2495.39)">
                    <path d="M0.083,-0.656L0.168,-0.656L0.381,-0.242L0.447,-0.108L0.449,-0.108C0.448,-0.141 0.446,-0.175 0.443,-0.211C0.44,-0.246 0.438,-0.281 0.438,-0.316L0.438,-0.656L0.517,-0.656L0.517,-0L0.432,-0L0.219,-0.414L0.153,-0.548L0.151,-0.548C0.152,-0.514 0.155,-0.48 0.158,-0.446C0.161,-0.411 0.162,-0.377 0.162,-0.343L0.162,-0L0.083,-0L0.083,-0.656Z" style="fill:rgb(0,0,255);fill-rule:nonzero;"/>
                </g>
                <g transform="matrix(208.174,0,0,208.174,3359.8,2495.39)">
                    <path d="M0.115,-0.656L0.52,-0.656L0.52,-0.586L0.199,-0.586L0.199,-0.38L0.47,-0.38L0.47,-0.309L0.199,-0.309L0.199,-0.071L0.53,-0.071L0.53,-0L0.115,-0L0.115,-0.656Z" style="fill:rgb(0,0,255);fill-rule:nonzero;"/>
                </g>
                <g transform="matrix(208.174,0,0,208.174,3484.71,2495.39)">
                    <path d="M0.25,-0.339L0.067,-0.656L0.159,-0.656L0.251,-0.488C0.26,-0.473 0.268,-0.458 0.276,-0.444C0.284,-0.429 0.293,-0.412 0.304,-0.393L0.308,-0.393C0.317,-0.412 0.326,-0.429 0.333,-0.444C0.34,-0.458 0.347,-0.473 0.355,-0.488L0.445,-0.656L0.533,-0.656L0.35,-0.335L0.546,-0L0.454,-0L0.355,-0.177C0.346,-0.193 0.337,-0.21 0.328,-0.227C0.319,-0.244 0.308,-0.262 0.297,-0.282L0.293,-0.282C0.284,-0.262 0.275,-0.244 0.266,-0.227C0.257,-0.21 0.249,-0.193 0.24,-0.177L0.142,-0L0.054,-0L0.25,-0.339Z" style="fill:rgb(0,0,255);fill-rule:nonzero;"/>
                </g>
                <g transform="matrix(208.174,0,0,208.174,3609.61,2495.39)">
                    <path d="M0.258,-0.586L0.042,-0.586L0.042,-0.656L0.558,-0.656L0.558,-0.586L0.342,-0.586L0.342,-0L0.258,-0L0.258,-0.586Z" style="fill:rgb(0,0,255);fill-rule:nonzero;"/>
                </g>
                <g transform="matrix(208.174,0,0,208.174,3859.42,2495.39)">
                    <path d="M0.097,-0.129C0.108,-0.12 0.119,-0.111 0.131,-0.102C0.143,-0.093 0.156,-0.085 0.171,-0.078C0.185,-0.071 0.201,-0.066 0.219,-0.062C0.236,-0.058 0.256,-0.056 0.277,-0.056C0.3,-0.056 0.321,-0.059 0.341,-0.067C0.36,-0.074 0.377,-0.083 0.392,-0.096C0.407,-0.109 0.418,-0.124 0.427,-0.142C0.435,-0.16 0.439,-0.18 0.439,-0.202C0.439,-0.246 0.425,-0.28 0.397,-0.305C0.368,-0.33 0.33,-0.342 0.282,-0.342C0.255,-0.342 0.233,-0.339 0.214,-0.332C0.195,-0.325 0.175,-0.316 0.152,-0.303L0.108,-0.331L0.129,-0.638L0.49,-0.638L0.49,-0.567L0.202,-0.567L0.185,-0.378C0.204,-0.386 0.222,-0.392 0.239,-0.397C0.257,-0.402 0.278,-0.404 0.303,-0.404C0.334,-0.404 0.362,-0.4 0.389,-0.392C0.416,-0.384 0.439,-0.372 0.459,-0.356C0.478,-0.339 0.494,-0.319 0.505,-0.294C0.516,-0.269 0.522,-0.239 0.522,-0.204C0.522,-0.169 0.516,-0.139 0.502,-0.112C0.49,-0.085 0.472,-0.063 0.45,-0.045C0.428,-0.026 0.403,-0.012 0.375,-0.003C0.346,0.007 0.317,0.012 0.286,0.012C0.257,0.012 0.232,0.009 0.209,0.004C0.186,-0.001 0.165,-0.007 0.147,-0.015C0.128,-0.023 0.112,-0.032 0.097,-0.043C0.082,-0.053 0.068,-0.064 0.056,-0.075L0.097,-0.129Z" style="fill-rule:nonzero;"/>
                </g>
                <g transform="matrix(208.174,0,0,208.174,4109.23,2495.39)">
                    <path d="M0.183,-0.345L0.292,-0.345C0.343,-0.345 0.383,-0.356 0.409,-0.377C0.437,-0.398 0.45,-0.429 0.45,-0.472C0.45,-0.515 0.437,-0.546 0.409,-0.563C0.383,-0.58 0.343,-0.589 0.292,-0.589L0.183,-0.589L0.183,-0.345ZM0.458,-0L0.3,-0.277L0.183,-0.277L0.183,-0L0.1,-0L0.1,-0.656L0.304,-0.656C0.337,-0.656 0.368,-0.653 0.396,-0.647C0.424,-0.64 0.448,-0.63 0.469,-0.615C0.489,-0.6 0.505,-0.581 0.516,-0.558C0.527,-0.535 0.533,-0.506 0.533,-0.472C0.533,-0.421 0.52,-0.38 0.493,-0.349C0.466,-0.318 0.431,-0.297 0.386,-0.286L0.553,-0L0.458,-0Z" style="fill:rgb(0,0,255);fill-rule:nonzero;"/>
                </g>
                <g transform="matrix(208.174,0,0,208.174,4234.13,2495.39)">
                    <path d="M0.3,0.012C0.263,0.012 0.229,0.004 0.198,-0.012C0.167,-0.028 0.141,-0.051 0.118,-0.081C0.096,-0.11 0.079,-0.146 0.067,-0.189C0.054,-0.231 0.048,-0.278 0.048,-0.331C0.048,-0.384 0.054,-0.431 0.067,-0.472C0.079,-0.514 0.096,-0.55 0.118,-0.579C0.141,-0.608 0.167,-0.63 0.198,-0.645C0.229,-0.66 0.263,-0.668 0.3,-0.668C0.337,-0.668 0.371,-0.66 0.402,-0.645C0.433,-0.629 0.459,-0.607 0.482,-0.578C0.504,-0.549 0.521,-0.513 0.534,-0.471C0.546,-0.43 0.552,-0.383 0.552,-0.331C0.552,-0.278 0.546,-0.231 0.534,-0.189C0.521,-0.146 0.504,-0.11 0.482,-0.081C0.459,-0.051 0.433,-0.028 0.402,-0.012C0.371,0.004 0.337,0.012 0.3,0.012ZM0.3,-0.061C0.325,-0.061 0.347,-0.067 0.368,-0.08C0.389,-0.093 0.406,-0.111 0.421,-0.135C0.435,-0.158 0.446,-0.187 0.454,-0.22C0.462,-0.253 0.466,-0.29 0.466,-0.331C0.466,-0.372 0.462,-0.408 0.454,-0.441C0.446,-0.474 0.435,-0.501 0.421,-0.524C0.406,-0.547 0.389,-0.564 0.368,-0.577C0.347,-0.589 0.325,-0.595 0.3,-0.595C0.275,-0.595 0.252,-0.589 0.232,-0.577C0.211,-0.564 0.194,-0.547 0.18,-0.524C0.165,-0.501 0.154,-0.474 0.146,-0.441C0.138,-0.408 0.134,-0.372 0.134,-0.331C0.134,-0.29 0.138,-0.253 0.146,-0.22C0.154,-0.187 0.165,-0.158 0.18,-0.135C0.194,-0.111 0.211,-0.093 0.232,-0.08C0.252,-0.067 0.275,-0.061 0.3,-0.061Z" style="fill:rgb(0,0,255);fill-rule:nonzero;"/>
                </g>
                <g transform="matrix(208.174,0,0,208.174,4359.04,2495.39)">
                    <path d="M0.01,-0.657L0.093,-0.657L0.146,-0.245C0.147,-0.217 0.15,-0.19 0.153,-0.164C0.156,-0.137 0.158,-0.11 0.16,-0.083L0.163,-0.083C0.17,-0.11 0.178,-0.137 0.185,-0.164C0.192,-0.191 0.198,-0.218 0.205,-0.245L0.274,-0.487L0.333,-0.487L0.402,-0.245C0.408,-0.218 0.414,-0.192 0.422,-0.165C0.429,-0.138 0.436,-0.11 0.443,-0.083L0.447,-0.083C0.449,-0.11 0.451,-0.137 0.454,-0.164C0.457,-0.191 0.459,-0.218 0.461,-0.245L0.511,-0.657L0.59,-0.657L0.493,-0L0.401,-0L0.326,-0.275C0.321,-0.294 0.317,-0.314 0.313,-0.334C0.309,-0.354 0.305,-0.374 0.302,-0.393L0.299,-0.393C0.295,-0.374 0.291,-0.354 0.287,-0.334C0.283,-0.314 0.278,-0.294 0.273,-0.275L0.201,-0L0.111,-0L0.01,-0.657Z" style="fill:rgb(0,0,255);fill-rule:nonzero;"/>
                </g>
                <g transform="matrix(208.174,0,0,208.174,4483.94,2495.39)">
                    <path d="M0.117,-0.143C0.142,-0.118 0.17,-0.099 0.203,-0.084C0.236,-0.069 0.27,-0.061 0.306,-0.061C0.353,-0.061 0.389,-0.071 0.414,-0.091C0.439,-0.11 0.452,-0.136 0.452,-0.168C0.452,-0.185 0.449,-0.199 0.443,-0.211C0.437,-0.222 0.429,-0.232 0.418,-0.241C0.407,-0.249 0.395,-0.256 0.381,-0.263C0.366,-0.27 0.351,-0.277 0.334,-0.284L0.24,-0.325C0.223,-0.332 0.207,-0.34 0.19,-0.349C0.173,-0.358 0.158,-0.37 0.145,-0.383C0.131,-0.396 0.12,-0.412 0.111,-0.431C0.102,-0.449 0.098,-0.47 0.098,-0.494C0.098,-0.519 0.103,-0.542 0.114,-0.563C0.125,-0.584 0.14,-0.603 0.159,-0.619C0.178,-0.634 0.2,-0.646 0.227,-0.655C0.253,-0.664 0.282,-0.668 0.313,-0.668C0.354,-0.668 0.392,-0.661 0.427,-0.646C0.462,-0.63 0.491,-0.611 0.515,-0.587L0.471,-0.533C0.45,-0.552 0.426,-0.568 0.401,-0.579C0.375,-0.59 0.346,-0.595 0.313,-0.595C0.273,-0.595 0.241,-0.587 0.218,-0.57C0.195,-0.553 0.183,-0.529 0.183,-0.499C0.183,-0.483 0.187,-0.469 0.194,-0.459C0.201,-0.448 0.21,-0.438 0.221,-0.43C0.232,-0.421 0.244,-0.414 0.258,-0.408C0.272,-0.402 0.286,-0.396 0.3,-0.39L0.392,-0.35C0.412,-0.342 0.431,-0.333 0.449,-0.323C0.466,-0.312 0.482,-0.3 0.495,-0.286C0.507,-0.273 0.518,-0.257 0.526,-0.238C0.533,-0.22 0.537,-0.199 0.537,-0.175C0.537,-0.149 0.532,-0.125 0.521,-0.102C0.51,-0.079 0.495,-0.059 0.475,-0.043C0.455,-0.025 0.431,-0.012 0.402,-0.003C0.373,0.007 0.341,0.012 0.305,0.012C0.257,0.012 0.213,0.003 0.172,-0.014C0.132,-0.031 0.097,-0.055 0.067,-0.085L0.117,-0.143Z" style="fill:rgb(0,0,255);fill-rule:nonzero;"/>
                </g>
                <g transform="matrix(208.174,0,0,208.174,4733.75,2495.39)">
                    <path d="M0.3,0.012C0.263,0.012 0.229,0.004 0.198,-0.012C0.167,-0.028 0.141,-0.051 0.118,-0.081C0.096,-0.11 0.079,-0.146 0.067,-0.189C0.054,-0.231 0.048,-0.278 0.048,-0.331C0.048,-0.384 0.054,-0.431 0.067,-0.472C0.079,-0.514 0.096,-0.55 0.118,-0.579C0.141,-0.608 0.167,-0.63 0.198,-0.645C0.229,-0.66 0.263,-0.668 0.3,-0.668C0.337,-0.668 0.371,-0.66 0.402,-0.645C0.433,-0.629 0.459,-0.607 0.482,-0.578C0.504,-0.549 0.521,-0.513 0.534,-0.471C0.546,-0.43 0.552,-0.383 0.552,-0.331C0.552,-0.278 0.546,-0.231 0.534,-0.189C0.521,-0.146 0.504,-0.11 0.482,-0.081C0.459,-0.051 0.433,-0.028 0.402,-0.012C0.371,0.004 0.337,0.012 0.3,0.012ZM0.3,-0.061C0.325,-0.061 0.347,-0.067 0.368,-0.08C0.389,-0.093 0.406,-0.111 0.421,-0.135C0.435,-0.158 0.446,-0.187 0.454,-0.22C0.462,-0.253 0.466,-0.29 0.466,-0.331C0.466,-0.372 0.462,-0.408 0.454,-0.441C0.446,-0.474 0.435,-0.501 0.421,-0.524C0.406,-0.547 0.389,-0.564 0.368,-0.577C0.347,-0.589 0.325,-0.595 0.3,-0.595C0.275,-0.595 0.252,-0.589 0.232,-0.577C0.211,-0.564 0.194,-0.547 0.18,-0.524C0.165,-0.501 0.154,-0.474 0.146,-0.441C0.138,-0.408 0.134,-0.372 0.134,-0.331C0.134,-0.29 0.138,-0.253 0.146,-0.22C0.154,-0.187 0.165,-0.158 0.18,-0.135C0.194,-0.111 0.211,-0.093 0.232,-0.08C0.252,-0.067 0.275,-0.061 0.3,-0.061Z" style="fill:rgb(0,0,255);fill-rule:nonzero;"/>
                </g>
                <g transform="matrix(208.174,0,0,208.174,4858.66,2495.39)">
                    <path d="M0.083,-0.656L0.168,-0.656L0.381,-0.242L0.447,-0.108L0.449,-0.108C0.448,-0.141 0.446,-0.175 0.443,-0.211C0.44,-0.246 0.438,-0.281 0.438,-0.316L0.438,-0.656L0.517,-0.656L0.517,-0L0.432,-0L0.219,-0.414L0.153,-0.548L0.151,-0.548C0.152,-0.514 0.155,-0.48 0.158,-0.446C0.161,-0.411 0.162,-0.377 0.162,-0.343L0.162,-0L0.083,-0L0.083,-0.656Z" style="fill:rgb(0,0,255);fill-rule:nonzero;"/>
                </g>
                <g transform="matrix(208.174,0,0,208.174,4983.56,2495.39)">
                    <path d="M0.134,-0.656L0.216,-0.656L0.216,-0.071L0.541,-0.071L0.541,-0L0.134,-0L0.134,-0.656Z" style="fill:rgb(0,0,255);fill-rule:nonzero;"/>
                </g>
                <g transform="matrix(208.174,0,0,208.174,5108.47,2495.39)">
                    <path d="M0.258,-0.234L0.038,-0.656L0.126,-0.656L0.225,-0.461C0.238,-0.436 0.25,-0.41 0.262,-0.386C0.274,-0.361 0.287,-0.335 0.3,-0.308L0.304,-0.308C0.317,-0.335 0.368,-0.437 0.381,-0.462L0.476,-0.656L0.562,-0.656L0.342,-0.234L0.342,-0L0.258,-0L0.258,-0.234Z" style="fill:rgb(0,0,255);fill-rule:nonzero;"/>
                </g>
            </g>
        </g>
    </g>
</svg>
