<?xml version="1.0" encoding="UTF-8" standalone="no"?>
<!DOCTYPE svg PUBLIC "-//W3C//DTD SVG 1.1//EN" "http://www.w3.org/Graphics/SVG/1.1/DTD/svg11.dtd">
<svg width="100%" height="100%" viewBox="0 0 70 82" version="1.1" xmlns="http://www.w3.org/2000/svg" xmlns:xlink="http://www.w3.org/1999/xlink" xml:space="preserve" xmlns:serif="http://www.serif.com/" style="fill-rule:evenodd;clip-rule:evenodd;stroke-linecap:round;stroke-linejoin:round;">
    <g transform="matrix(1.33333,0,0,1.33333,-3231.6,-2812.28)">
        <g transform="matrix(1,0,0,1,2285.39,881.554)">
            <g transform="matrix(2.90909,0,0,2.90909,129.583,1223.3)">
                <path d="M20.25,6.375C20.25,8.653 16.556,10.5 12,10.5C7.444,10.5 3.75,8.653 3.75,6.375M20.25,6.375C20.25,4.097 16.556,2.25 12,2.25C7.444,2.25 3.75,4.097 3.75,6.375M20.25,6.375L20.25,17.625C20.25,19.903 16.556,21.75 12,21.75C7.444,21.75 3.75,19.903 3.75,17.625L3.75,6.375M20.25,6.375L20.25,10.125M3.75,6.375L3.75,10.125M20.25,10.125L20.25,13.875C20.25,16.153 16.556,18 12,18C7.444,18 3.75,16.153 3.75,13.875L3.75,10.125M20.25,10.125C20.25,12.403 16.556,14.25 12,14.25C7.444,14.25 3.75,12.403 3.75,10.125" style="fill:none;fill-rule:nonzero;stroke:url(#_Linear1);stroke-width:1.5px;"/>
            </g>
        </g>
    </g>
    <defs>
        <linearGradient id="_Linear1" x1="0" y1="0" x2="1" y2="0" gradientUnits="userSpaceOnUse" gradientTransform="matrix(16.5,0,0,19.5,3.75,12)"><stop offset="0" style="stop-color:rgb(158,211,23);stop-opacity:1"/><stop offset="1" style="stop-color:rgb(32,141,79);stop-opacity:1"/></linearGradient>
    </defs>
</svg>
