<?xml version="1.0" encoding="UTF-8" standalone="no"?>
<!DOCTYPE svg PUBLIC "-//W3C//DTD SVG 1.1//EN" "http://www.w3.org/Graphics/SVG/1.1/DTD/svg11.dtd">
<svg width="100%" height="100%" viewBox="0 0 13 16" version="1.1" xmlns="http://www.w3.org/2000/svg" xmlns:xlink="http://www.w3.org/1999/xlink" xml:space="preserve" xmlns:serif="http://www.serif.com/" style="fill-rule:evenodd;clip-rule:evenodd;stroke-linecap:round;stroke-linejoin:round;">
    <g transform="matrix(1,0,0,1,-5460.64,-3385.25)">
        <g transform="matrix(1,0,0,0.783011,-3940,3055)">
            <g transform="matrix(0.71793,0,0,0.916883,9398.48,420.394)">
                <path d="M14.74,9L14.394,18M9.606,18L9.26,9M19.228,5.79C19.57,5.842 19.91,5.897 20.25,5.956M19.228,5.791L18.16,19.673C18.07,20.839 17.085,21.75 15.916,21.75L8.084,21.75C6.915,21.75 5.93,20.839 5.84,19.673L4.772,5.79M19.228,5.79C18.074,5.616 16.914,5.483 15.75,5.393M3.75,5.955C4.09,5.896 4.43,5.841 4.772,5.79M4.772,5.79C5.926,5.616 7.086,5.483 8.25,5.393M15.75,5.393L15.75,4.477C15.75,3.297 14.84,2.313 13.66,2.276C12.554,2.241 11.446,2.241 10.34,2.276C9.16,2.313 8.25,3.298 8.25,4.477L8.25,5.393M15.75,5.393C13.254,5.2 10.746,5.2 8.25,5.393" style="fill:none;fill-rule:nonzero;stroke:rgb(83,170,100);stroke-width:1.5px;"/>
            </g>
        </g>
    </g>
</svg>
